OxygenSans-Thin.ufo
<glyph name="exclam" format="1">
  <advance width="408.500000365"/>
  <unicode hex="0021"/>
  <outline>
    <contour>
      <point x="181.100000151" y="385.600000054" type="line"/>
      <point x="229.300000258" y="385.600000054" type="line"/>
      <point x="276.400000274" y="1283.59999974" type="line"/>
      <point x="276.400000274" y="1373.69999994" type="line"/>
      <point x="129.70000013" y="1373.69999994" type="line"/>
      <point x="129.70000013" y="1283.59999974" type="line"/>
    </contour>
    <contour>
      <point x="205.800000191" y="-13.2999999896" type="curve" smooth="yes"/>
      <point x="286.100000195" y="-13.2999999896"/>
      <point x="312.200000256" y="43.0000000298"/>
      <point x="312.200000256" y="94.0000000745" type="curve" smooth="yes"/>
      <point x="312.200000256" y="145.100000121"/>
      <point x="286.100000195" y="200.500000142"/>
      <point x="205.800000191" y="200.500000142" type="curve" smooth="yes"/>
      <point x="128.10000018" y="200.500000142"/>
      <point x="100.200000122" y="145.100000121"/>
      <point x="100.200000122" y="94.0000000745" type="curve" smooth="yes"/>
      <point x="100.200000122" y="43.0000000298"/>
      <point x="128.10000018" y="-13.2999999896"/>
    </contour>
  </outline>
</glyph>
<glyph name="quotedbl" format="1">
  <advance width="572.100000314"/>
  <unicode hex="0022"/>
  <outline>
    <contour>
      <point x="129.900000013" y="962.099999793" type="line"/>
      <point x="180.200000197" y="962.099999793" type="line"/>
      <point x="207.300000198" y="1386.39999992" type="line"/>
      <point x="116.799999982" y="1386.39999992" type="line"/>
    </contour>
    <contour>
      <point x="370.200000241" y="958.499999799" type="line"/>
      <point x="422.300000422" y="958.499999799" type="line"/>
      <point x="446.700000428" y="1386.39999992" type="line"/>
      <point x="357.10000021" y="1386.39999992" type="line"/>
    </contour>
  </outline>
</glyph>
<glyph name="numbersign" format="1">
  <advance width="1115.70000016"/>
  <unicode hex="0023"/>
  <outline>
    <contour>
      <point x="236.400000021" y="-24.6999999806" type="line"/>
      <point x="314.500000201" y="-24.6999999806" type="line"/>
      <point x="388.100000195" y="375.29999999" type="line"/>
      <point x="641.200000018" y="375.29999999" type="line"/>
      <point x="561.400000036" y="-24.6999999806" type="line"/>
      <point x="666.900000177" y="-24.6999999806" type="line"/>
      <point x="750.500000156" y="375.29999999" type="line"/>
      <point x="861.600000292" y="375.29999999" type="line"/>
      <point x="870.600000292" y="458.800000146" type="line"/>
      <point x="758.800000191" y="458.800000146" type="line"/>
      <point x="826.700000159" y="865.699999906" type="line"/>
      <point x="932.300000288" y="865.699999906" type="line"/>
      <point x="944.300000288" y="945.000000075" type="line"/>
      <point x="840.000000194" y="945.000000075" type="line"/>
      <point x="897.000000209" y="1327.00000001" type="line"/>
      <point x="820.600000024" y="1327.00000001" type="line"/>
      <point x="757.400000021" y="945.000000075" type="line"/>
      <point x="506.800000191" y="945.000000075" type="line"/>
      <point x="582.700000174" y="1327.00000001" type="line"/>
      <point x="473.600000039" y="1327.00000001" type="line"/>
      <point x="393.700000055" y="945.000000075" type="line"/>
      <point x="238.499999963" y="945.000000075" type="line"/>
      <point x="229.699999966" y="864.699999906" type="line"/>
      <point x="376.100000031" y="864.699999906" type="line"/>
      <point x="315.800000057" y="458.800000146" type="line"/>
      <point x="169.499999963" y="458.800000146" type="line"/>
      <point x="160.499999963" y="375.29999999" type="line"/>
      <point x="303.400000021" y="375.29999999" type="line"/>
    </contour>
    <contour>
      <point x="403.900000222" y="458.800000146" type="line"/>
      <point x="489.900000162" y="865.699999906" type="line"/>
      <point x="742.29999999" y="865.699999906" type="line"/>
      <point x="656.500000052" y="458.800000146" type="line"/>
    </contour>
  </outline>
</glyph>
<glyph name="dollar" format="1">
  <advance width="1156.60000002"/>
  <unicode hex="0024"/>
  <outline>
    <contour>
      <point x="545.799999997" y="-17.8119000003" type="line"/>
      <point x="310.647800115" y="-12.805880002"/>
      <point x="196.386700069" y="79.0711899105"/>
      <point x="144.199999973" y="121.199999943" type="curve"/>
      <point x="193.00000003" y="214.800000146" type="line"/>
      <point x="282.600000009" y="147.700000174"/>
      <point x="391.600000098" y="85.8000002056"/>
      <point x="572.200000018" y="85.8000002056" type="curve" smooth="yes"/>
      <point x="776.199999914" y="85.8000002056"/>
      <point x="892.899999835" y="157.600000173"/>
      <point x="900.999999821" y="343.600000069" type="curve" smooth="yes"/>
      <point x="907.299999811" y="493.699999951"/>
      <point x="852.299999811" y="547.499999948"/>
      <point x="660.799999967" y="621.799999878" type="curve" smooth="yes"/>
      <point x="437.999999955" y="707.59999986" type="line" smooth="yes"/>
      <point x="264.299999975" y="774.999999836"/>
      <point x="150.399999991" y="858.099999897"/>
      <point x="158.499999978" y="1038.19999991" type="curve" smooth="yes"/>
      <point x="169.928199959" y="1279.2439999"/>
      <point x="352.588899929" y="1357.68299998"/>
      <point x="545.799999997" y="1369.97" type="curve"/>
      <point x="545.799999997" y="1596.59999989" type="line"/>
      <point x="623.400000066" y="1596.59999989" type="line"/>
      <point x="624.903000063" y="1371.466" type="line"/>
      <point x="769.718900055" y="1366.56199999"/>
      <point x="899.880900055" y="1306.11700003"/>
      <point x="962.70000013" y="1255.80000001" type="curve"/>
      <point x="907.700000085" y="1170.2999998" type="line"/>
      <point x="874.199999988" y="1191.39999983"/>
      <point x="757.099999972" y="1267.79999979"/>
      <point x="594.900000043" y="1267.79999979" type="curve" smooth="yes"/>
      <point x="443.000000075" y="1267.79999979"/>
      <point x="288.000000209" y="1219.4999998"/>
      <point x="280.800000221" y="1043.19999991" type="curve" smooth="yes"/>
      <point x="275.400000229" y="917.000000015"/>
      <point x="325.900000207" y="870.900000013"/>
      <point x="475.100000061" y="811.300000079" type="curve" smooth="yes"/>
      <point x="688.200000063" y="726.7000001" type="line" smooth="yes"/>
      <point x="873.700000145" y="653.100000091"/>
      <point x="1030.00000006" y="584.500000022"/>
      <point x="1018.30000008" y="346.800000057" type="curve" smooth="yes"/>
      <point x="1005.8125001" y="96.9637800828"/>
      <point x="841.498500102" y="-1.95573197524"/>
      <point x="623.705100065" y="-16.1120199948" type="curve"/>
      <point x="625.200000063" y="-248.199999854" type="line"/>
      <point x="545.799999997" y="-248.199999854" type="line"/>
    </contour>
  </outline>
</glyph>
<glyph name="percent" format="1">
  <advance width="1697.50000007"/>
  <unicode hex="0025"/>
  <outline>
    <contour>
      <point x="1306.70000007" y="-12.1000000015" type="curve" smooth="yes"/>
      <point x="1095.90000006" y="-12.1000000015"/>
      <point x="992.500000037" y="140.899999999"/>
      <point x="992.500000037" y="337.899999999" type="curve" smooth="yes"/>
      <point x="992.500000037" y="535.899999999"/>
      <point x="1098.90000006" y="687.899999999"/>
      <point x="1306.70000007" y="687.899999999" type="curve" smooth="yes"/>
      <point x="1518.50000008" y="687.899999999"/>
      <point x="1621.9000001" y="538.899999999"/>
      <point x="1621.9000001" y="337.899999999" type="curve" smooth="yes"/>
      <point x="1621.9000001" y="140.899999999"/>
      <point x="1515.50000008" y="-12.1000000015"/>
    </contour>
    <contour>
      <point x="1308.50000007" y="65.300000079" type="curve" smooth="yes"/>
      <point x="1460.60000002" y="65.300000079"/>
      <point x="1525.40000001" y="185.100000046"/>
      <point x="1525.40000001" y="339.0" type="curve" smooth="yes"/>
      <point x="1525.40000001" y="498.699999951"/>
      <point x="1459.60000002" y="610.59999992"/>
      <point x="1308.50000007" y="610.59999992" type="curve" smooth="yes"/>
      <point x="1155.50000011" y="610.59999992"/>
      <point x="1088.70000013" y="492.799999952"/>
      <point x="1088.70000013" y="339.0" type="curve" smooth="yes"/>
      <point x="1088.70000013" y="180.300000049"/>
      <point x="1156.40000011" y="65.300000079"/>
    </contour>
    <contour>
      <point x="391.599999994" y="740.600000083" type="curve" smooth="yes"/>
      <point x="543.699999951" y="740.600000083"/>
      <point x="608.499999933" y="860.400000051"/>
      <point x="608.499999933" y="1014.3" type="curve" smooth="yes"/>
      <point x="608.499999933" y="1173.99999996"/>
      <point x="542.699999951" y="1285.89999992"/>
      <point x="391.599999994" y="1285.89999992" type="curve" smooth="yes"/>
      <point x="238.600000039" y="1285.89999992"/>
      <point x="171.800000057" y="1168.09999996"/>
      <point x="171.800000057" y="1014.3" type="curve" smooth="yes"/>
      <point x="171.800000057" y="855.600000054"/>
      <point x="239.500000037" y="740.600000083"/>
    </contour>
    <contour>
      <point x="389.799999997" y="663.200000003" type="curve" smooth="yes"/>
      <point x="178.999999985" y="663.200000003"/>
      <point x="75.5999999642" y="816.200000003"/>
      <point x="75.5999999642" y="1013.2" type="curve" smooth="yes"/>
      <point x="75.5999999642" y="1211.2"/>
      <point x="181.999999985" y="1363.2"/>
      <point x="389.799999997" y="1363.2" type="curve" smooth="yes"/>
      <point x="601.600000009" y="1363.2"/>
      <point x="705.00000003" y="1214.2"/>
      <point x="705.00000003" y="1013.2" type="curve" smooth="yes"/>
      <point x="705.00000003" y="816.200000003"/>
      <point x="598.600000009" y="663.200000003"/>
    </contour>
    <contour>
      <point x="408.099999927" y="0.0" type="line"/>
      <point x="1185.99999994" y="1353.8" type="line"/>
      <point x="1291.10000011" y="1353.8" type="line"/>
      <point x="522.100000091" y="0.0" type="line"/>
    </contour>
  </outline>
</glyph>
<glyph name="ampersand" format="1">
  <advance width="1373.29999993"/>
  <unicode hex="0026"/>
  <outline>
    <contour>
      <point x="593.29999999" y="-16.2999999747" type="curve" smooth="yes"/>
      <point x="273.800000116" y="-16.2999999747"/>
      <point x="124.899999984" y="131.699999966"/>
      <point x="124.899999984" y="344.000000075" type="curve" smooth="yes"/>
      <point x="124.899999984" y="541.800000072"/>
      <point x="244.300000019" y="658.300000049"/>
      <point x="443.199999943" y="754.00000003" type="curve"/>
      <point x="333.800000012" y="868.99999997"/>
      <point x="289.599999964" y="958.499999963"/>
      <point x="289.599999964" y="1078.99999996" type="curve" smooth="yes"/>
      <point x="289.599999964" y="1246.80000003"/>
      <point x="414.100000031" y="1370.69999998"/>
      <point x="630.199999973" y="1370.69999998" type="curve" smooth="yes"/>
      <point x="826.099999927" y="1370.69999998"/>
      <point x="961.300000019" y="1264.20000002"/>
      <point x="961.300000019" y="1085.09999997" type="curve" smooth="yes"/>
      <point x="961.300000019" y="930.399999946"/>
      <point x="804.400000051" y="810.299999975"/>
      <point x="612.40000014" y="725.899999999" type="curve"/>
      <point x="1033.99999993" y="261.700000234" type="line"/>
      <point x="1087.09999991" y="314.700000234"/>
      <point x="1159.49999987" y="437.600000158"/>
      <point x="1192.59999987" y="516.900000133" type="curve"/>
      <point x="1282.40000001" y="456.500000052" type="line"/>
      <point x="1248.7" y="376.600000054"/>
      <point x="1166.50000004" y="248.200000122"/>
      <point x="1102.10000005" y="183.100000121" type="curve"/>
      <point x="1252.40000011" y="27.3000000492" type="line"/>
      <point x="1146.99999994" y="-16.6999999657" type="line"/>
      <point x="1031.09999993" y="109.70000004" type="line"/>
      <point x="911.599999934" y="20.2000000477"/>
      <point x="795.999999896" y="-16.2999999747"/>
    </contour>
    <contour>
      <point x="603.699999981" y="82.600000158" type="curve" smooth="yes"/>
      <point x="753.59999989" y="82.600000158"/>
      <point x="864.799999863" y="113.700000159"/>
      <point x="961.999999821" y="190.400000125" type="curve"/>
      <point x="957.099999748" y="195.800000206"/>
      <point x="515.900000088" y="674.299999841"/>
      <point x="511.200000018" y="679.499999918" type="curve"/>
      <point x="351.800000116" y="602.799999952"/>
      <point x="249.100000151" y="495.500000037"/>
      <point x="249.100000151" y="352.200000077" type="curve" smooth="yes"/>
      <point x="249.100000151" y="188.500000097"/>
      <point x="371.70000013" y="82.600000158"/>
    </contour>
    <contour>
      <point x="544.100000061" y="800.000000104" type="curve"/>
      <point x="689.599999964" y="867.800000072"/>
      <point x="846.699999847" y="966.200000003"/>
      <point x="846.699999847" y="1090.39999996" type="curve" smooth="yes"/>
      <point x="846.699999847" y="1207.69999991"/>
      <point x="763.699999891" y="1272.69999986"/>
      <point x="630.899999984" y="1272.69999986" type="curve" smooth="yes"/>
      <point x="503.800000057" y="1272.69999986"/>
      <point x="399.300000139" y="1197.69999992"/>
      <point x="399.300000139" y="1084.39999996" type="curve" smooth="yes"/>
      <point x="399.300000139" y="988.499999993"/>
      <point x="451.100000121" y="884.400000066"/>
    </contour>
  </outline>
</glyph>
<glyph name="quotesingle" format="1">
  <advance width="277.300000392"/>
  <unicode hex="0027"/>
  <outline>
    <contour>
      <point x="97.6000001431" y="913.999999866" type="line"/>
      <point x="174.10000027" y="913.999999866" type="line"/>
      <point x="188.300000288" y="1357.19999997" type="line"/>
      <point x="85.4000001103" y="1357.19999997" type="line"/>
    </contour>
  </outline>
</glyph>
<glyph name="parenleft" format="1">
  <advance width="612.10000018"/>
  <unicode hex="0028"/>
  <outline>
    <contour>
      <point x="373.800000086" y="-236.299999841" type="curve"/>
      <point x="494.200000271" y="-236.299999841" type="line"/>
      <point x="312.100000344" y="45.4000000805"/>
      <point x="260.600000247" y="354.499999978"/>
      <point x="260.600000247" y="653.199999973" type="curve" smooth="yes"/>
      <point x="260.600000247" y="927.800000042"/>
      <point x="311.100000404" y="1174.30000017"/>
      <point x="495.200000271" y="1460.29999994" type="curve"/>
      <point x="371.900000088" y="1460.29999994" type="line"/>
      <point x="213.800000116" y="1226.30000002"/>
      <point x="133.00000006" y="945.900000013"/>
      <point x="133.00000006" y="648.499999978" type="curve" smooth="yes"/>
      <point x="133.00000006" y="313.600000009"/>
      <point x="219.900000088" y="-22.0999998376"/>
    </contour>
  </outline>
</glyph>
<glyph name="parenright" format="1">
  <advance width="630.300000168"/>
  <unicode hex="0029"/>
  <outline>
    <contour>
      <point x="125.799999937" y="-236.299999841" type="curve"/>
      <point x="246.400000125" y="-236.299999841" type="line"/>
      <point x="399.100000106" y="-24.7999998778"/>
      <point x="487.100000151" y="315.00000003"/>
      <point x="487.100000151" y="650.200000003" type="curve" smooth="yes"/>
      <point x="487.100000151" y="947.300000034"/>
      <point x="407.40000011" y="1223.59999998"/>
      <point x="248.100000121" y="1460.29999994" type="curve"/>
      <point x="124.99999994" y="1460.29999994" type="line"/>
      <point x="312.499999858" y="1166.00000004"/>
      <point x="359.499999963" y="927.100000031"/>
      <point x="359.499999963" y="654.499999993" type="curve" smooth="yes"/>
      <point x="359.499999963" y="353.799999967"/>
      <point x="304.499999814" y="37.0999999568"/>
    </contour>
  </outline>
</glyph>
<glyph name="asterisk" format="1">
  <advance width="1119.99999996"/>
  <unicode hex="002A"/>
  <outline>
    <contour>
      <point x="388.600000516" y="538.799999863" type="line"/>
      <point x="320.900000952" y="612.099999927" type="line"/>
      <point x="320.900000952" y="612.099999927"/>
      <point x="514.900000341" y="927.499999769"/>
      <point x="511.100000285" y="932.299999841" type="curve"/>
      <point x="228.600001261" y="1011.99999982" type="line"/>
      <point x="250.400001124" y="1138.59999996" type="line"/>
      <point x="530.700000159" y="994.799999997" type="line"/>
      <point x="502.100000255" y="1384.59999992" type="line"/>
      <point x="596.999999732" y="1384.59999992" type="line"/>
      <point x="567.699999832" y="994.799999997" type="line"/>
      <point x="849.19999887" y="1138.59999996" type="line"/>
      <point x="872.499998726" y="1011.99999982" type="line"/>
      <point x="583.599999711" y="932.299999841" type="line"/>
      <point x="616.899999656" y="885.499999918"/>
      <point x="663.099999227" y="762.399999678"/>
      <point x="780.999999031" y="612.099999927" type="curve"/>
      <point x="708.999999151" y="567.100000001"/>
      <point x="783.999999359" y="584.89999979"/>
      <point x="711.999999478" y="539.899999864" type="curve"/>
      <point x="544.100000001" y="890.399999753" type="line"/>
    </contour>
  </outline>
</glyph>
<glyph name="plus" format="1">
  <advance width="1056.59999996"/>
  <unicode hex="002B"/>
  <outline>
    <contour>
      <point x="484.799999908" y="170.499999933" type="line"/>
      <point x="581.500000067" y="170.499999933" type="line"/>
      <point x="581.500000067" y="546.999999925" type="line"/>
      <point x="929.000000089" y="546.999999925" type="line"/>
      <point x="929.000000089" y="629.900000103" type="line"/>
      <point x="581.600000069" y="629.900000103" type="line"/>
      <point x="581.600000069" y="999.300000109" type="line"/>
      <point x="484.899999909" y="999.300000109" type="line"/>
      <point x="484.899999909" y="629.900000103" type="line"/>
      <point x="129.199999899" y="629.900000103" type="line"/>
      <point x="129.199999899" y="546.999999925" type="line"/>
      <point x="484.799999908" y="546.999999925" type="line"/>
    </contour>
  </outline>
</glyph>
<glyph name="comma" format="1">
  <advance width="440.700000145"/>
  <unicode hex="002C"/>
  <outline>
    <contour>
      <point x="137.499999993" y="-262.699999951" type="curve"/>
      <point x="186.700000204" y="-262.699999951" type="line"/>
      <point x="261.40000008" y="-61.1000002846"/>
      <point x="260.400000319" y="-25.9999996424"/>
      <point x="310.800000235" y="164.800000042" type="curve"/>
      <point x="308.600000247" y="197.300000079" type="line"/>
      <point x="161.600000098" y="197.300000079" type="line"/>
      <point x="149.900000118" y="4.70000039786"/>
      <point x="161.799999952" y="-60.2000002861"/>
    </contour>
  </outline>
</glyph>
<glyph name="hyphen" format="1">
  <advance width="709.199999809"/>
  <unicode hex="002D"/>
  <outline>
    <contour>
      <point x="129.899999879" y="474.399999887" type="line"/>
      <point x="561.099999987" y="474.399999887" type="line"/>
      <point x="561.099999987" y="576.300000049" type="line"/>
      <point x="129.899999879" y="576.300000049" type="line"/>
    </contour>
  </outline>
</glyph>
<glyph name="period" format="1">
  <advance width="444.600000173"/>
  <unicode hex="002E"/>
  <outline>
    <contour>
      <point x="222.500000097" y="-17.6999999657" type="curve" smooth="yes"/>
      <point x="301.900000103" y="-17.6999999657"/>
      <point x="328.900000162" y="38.5000000522"/>
      <point x="328.900000162" y="89.5000000969" type="curve" smooth="yes"/>
      <point x="328.900000162" y="140.600000143"/>
      <point x="301.900000103" y="196.900000162"/>
      <point x="222.500000097" y="196.900000162" type="curve" smooth="yes"/>
      <point x="143.000000089" y="196.900000162"/>
      <point x="116.800000027" y="140.600000143"/>
      <point x="116.800000027" y="89.5000000969" type="curve" smooth="yes"/>
      <point x="116.800000027" y="39.3000000492"/>
      <point x="144.000000089" y="-17.6999999657"/>
    </contour>
  </outline>
</glyph>
<glyph name="slash" format="1">
  <advance width="927.799999923"/>
  <unicode hex="002F"/>
  <outline>
    <contour>
      <point x="95.5999999344" y="-212.899999924" type="line"/>
      <point x="179.700000145" y="-212.899999924" type="line"/>
      <point x="831.999999985" y="1319.00000007" type="line"/>
      <point x="745.799999774" y="1319.00000007" type="line"/>
    </contour>
  </outline>
</glyph>
<glyph name="zero" format="1">
  <advance width="1160.50000016"/>
  <unicode hex="0030"/>
  <outline>
    <contour>
      <point x="585.600000069" y="75.4000001848" type="curve" smooth="yes"/>
      <point x="394.300000079" y="75.4000001848"/>
      <point x="257.900000222" y="243.400000304"/>
      <point x="257.900000222" y="673.400000006" type="curve"/>
      <point x="256.300000228" y="1080.39999974"/>
      <point x="393.600000083" y="1260.99999982"/>
      <point x="585.600000069" y="1260.99999982" type="curve" smooth="yes"/>
      <point x="776.900000058" y="1260.99999982"/>
      <point x="903.29999993" y="1115.29999968"/>
      <point x="903.29999993" y="674.899999999" type="curve" smooth="yes"/>
      <point x="903.29999993" y="244.1000003"/>
      <point x="776.900000058" y="75.4000001848"/>
    </contour>
    <contour>
      <point x="585.600000069" y="-29.6999999806" type="curve" smooth="yes"/>
      <point x="895.200000167" y="-29.6999999806"/>
      <point x="1028.50000016" y="248.300000109"/>
      <point x="1028.50000016" y="669.699999996" type="curve" smooth="yes"/>
      <point x="1028.50000016" y="1117.69999985"/>
      <point x="876.000000194" y="1366.89999998"/>
      <point x="585.600000069" y="1366.89999998" type="curve" smooth="yes"/>
      <point x="294.499999948" y="1366.89999998"/>
      <point x="132.0" y="1116.19999985"/>
      <point x="132.0" y="669.699999996" type="curve" smooth="yes"/>
      <point x="132.0" y="248.300000109"/>
      <point x="276.099999972" y="-29.6999999806"/>
    </contour>
  </outline>
</glyph>
<glyph name="one" format="1">
  <advance width="1119.7"/>
  <unicode hex="0031"/>
  <outline>
    <contour>
      <point x="193.300000004" y="0.0" type="line"/>
      <point x="952.000000075" y="0.0" type="line"/>
      <point x="952.000000075" y="99.2000001669" type="line"/>
      <point x="611.900000058" y="99.2000001669" type="line"/>
      <point x="660.800000131" y="50.2000000924" type="line"/>
      <point x="660.800000131" y="1352.19999997" type="line"/>
      <point x="537.899999969" y="1352.19999997" type="line"/>
      <point x="468.899999954" y="1303.39999996"/>
      <point x="295.00000003" y="1252.69999997"/>
      <point x="227.499999948" y="1241.39999993" type="curve"/>
      <point x="227.499999948" y="1137.59999977" type="line"/>
      <point x="306.200000048" y="1146.99999979"/>
      <point x="494.599999964" y="1201.09999979"/>
      <point x="569.499999933" y="1259.49999978" type="curve"/>
      <point x="532.59999992" y="1277.29999981" type="line"/>
      <point x="532.59999992" y="52.0000000894" type="line"/>
      <point x="579.699999996" y="99.2000001669" type="line"/>
      <point x="193.300000004" y="99.2000001669" type="line"/>
    </contour>
  </outline>
</glyph>
<glyph name="two" format="1">
  <advance width="1122.10000003"/>
  <unicode hex="0032"/>
  <outline>
    <contour>
      <point x="142.70000004" y="0.0" type="line"/>
      <point x="945.800000012" y="0.0" type="line"/>
      <point x="952.00000003" y="99.2000001669" type="line"/>
      <point x="189.000000253" y="99.2000001669" type="line"/>
      <point x="201.500000305" y="53.1000001058" type="line"/>
      <point x="703.800000042" y="549.199999899" type="line" smooth="yes"/>
      <point x="884.400000021" y="727.599999905"/>
      <point x="942.00000006" y="807.000000015"/>
      <point x="942.00000006" y="1008.29999994" type="curve" smooth="yes"/>
      <point x="942.00000006" y="1291.39999989"/>
      <point x="664.700000204" y="1370.49999998"/>
      <point x="514.900000043" y="1370.49999998" type="curve" smooth="yes"/>
      <point x="365.400000021" y="1370.49999998"/>
      <point x="219.000000045" y="1317.29999996"/>
      <point x="139.300000049" y="1264.69999994" type="curve"/>
      <point x="178.300000109" y="1173.19999978" type="line"/>
      <point x="272.900000013" y="1229.19999973"/>
      <point x="395.100000016" y="1268.99999981"/>
      <point x="513.600000024" y="1268.99999981" type="curve" smooth="yes"/>
      <point x="632.600000009" y="1268.99999981"/>
      <point x="818.899999835" y="1220.39999975"/>
      <point x="818.899999835" y="991.899999954" type="curve" smooth="yes"/>
      <point x="818.899999835" y="818.7000001"/>
      <point x="746.199999854" y="750.500000022"/>
      <point x="618.499999933" y="623.600000083" type="curve" smooth="yes"/>
      <point x="114.200000077" y="120.600000143" type="line"/>
    </contour>
  </outline>
</glyph>
<glyph name="three" format="1">
  <advance width="1126.8000001"/>
  <unicode hex="0033"/>
  <outline>
    <contour>
      <point x="516.000000045" y="-18.0" type="curve" smooth="yes"/>
      <point x="803.499999993" y="-18.0"/>
      <point x="976.100000061" y="127.699999981"/>
      <point x="976.100000061" y="366.100000001" type="curve" smooth="yes"/>
      <point x="976.100000061" y="575.099999912"/>
      <point x="846.500000142" y="694.499999948"/>
      <point x="668.100000195" y="726.799999967" type="curve"/>
      <point x="835.400000125" y="762.699999996"/>
      <point x="941.00000006" y="848.900000013"/>
      <point x="941.00000006" y="1042.59999992" type="curve" smooth="yes"/>
      <point x="941.00000006" y="1258.49999992"/>
      <point x="743.000000089" y="1370.49999998"/>
      <point x="515.800000057" y="1370.49999998" type="curve" smooth="yes"/>
      <point x="383.200000003" y="1370.49999998"/>
      <point x="248.900000028" y="1333.59999998"/>
      <point x="137.900000043" y="1265.19999999" type="curve"/>
      <point x="180.400000095" y="1174.49999983" type="line"/>
      <point x="274.200000063" y="1234.19999981"/>
      <point x="395.100000031" y="1269.09999981"/>
      <point x="509.100000031" y="1269.09999981" type="curve" smooth="yes"/>
      <point x="675.799999982" y="1269.09999981"/>
      <point x="822.799999848" y="1196.39999978"/>
      <point x="822.799999848" y="1029.89999991" type="curve" smooth="yes"/>
      <point x="822.799999848" y="805.400000036"/>
      <point x="607.399999991" y="783.800000027"/>
      <point x="414.100000001" y="776.500000037" type="curve"/>
      <point x="377.499999963" y="776.500000037" type="line"/>
      <point x="377.499999963" y="671.899999879" type="line"/>
      <point x="412.300000004" y="671.899999879" type="line"/>
      <point x="652.999999955" y="666.899999879"/>
      <point x="856.699999832" y="620.099999897"/>
      <point x="856.699999832" y="363.700000025" type="curve" smooth="yes"/>
      <point x="856.699999832" y="170.700000159"/>
      <point x="723.499999918" y="83.5000001714"/>
      <point x="517.000000045" y="83.5000001714" type="curve" smooth="yes"/>
      <point x="385.500000067" y="83.5000001714"/>
      <point x="249.800000086" y="145.900000133"/>
      <point x="201.200000063" y="179.000000164" type="curve"/>
      <point x="156.600000009" y="88.6000000089" type="line"/>
      <point x="181.000000104" y="69.899999924"/>
      <point x="343.300000079" y="-18.0"/>
    </contour>
  </outline>
</glyph>
<glyph name="four" format="1">
  <advance width="1132.60000019"/>
  <unicode hex="0034"/>
  <outline>
    <contour>
      <point x="753.499999948" y="0.0" type="line"/>
      <point x="872.500000171" y="0.0" type="line"/>
      <point x="872.500000171" y="358.999999896" type="line"/>
      <point x="1032.10000015" y="358.999999896" type="line"/>
      <point x="1042.50000016" y="456.600000069" type="line"/>
      <point x="872.500000171" y="456.600000069" type="line"/>
      <point x="872.500000171" y="1352.19999997" type="line"/>
      <point x="756.899999849" y="1352.19999997" type="line"/>
      <point x="118.200000033" y="479.29999999" type="line"/>
      <point x="118.200000033" y="358.999999896" type="line"/>
      <point x="753.499999948" y="358.999999896" type="line"/>
    </contour>
    <contour>
      <point x="244.000000253" y="458.00000006" type="line"/>
      <point x="752.599999949" y="1182.79999979" type="line"/>
      <point x="752.599999949" y="458.00000006" type="line"/>
    </contour>
  </outline>
</glyph>
<glyph name="five" format="1">
  <advance width="1130.20000015"/>
  <unicode hex="0035"/>
  <outline>
    <contour>
      <point x="523.300000109" y="-18.8999999985" type="curve" smooth="yes"/>
      <point x="783.100000195" y="-18.8999999985"/>
      <point x="1003.30000012" y="133.500000052"/>
      <point x="1003.30000012" y="432.499999993" type="curve" smooth="yes"/>
      <point x="1003.30000012" y="653.800000042"/>
      <point x="861.70000007" y="841.500000022"/>
      <point x="582.300000109" y="841.500000022" type="curve" smooth="yes"/>
      <point x="490.700000174" y="841.500000022"/>
      <point x="411.000000194" y="820.200000003"/>
      <point x="323.200000256" y="763.00000006" type="curve"/>
      <point x="323.400000259" y="769.300000153"/>
      <point x="358.700000234" y="1246.59999973"/>
      <point x="358.900000237" y="1251.3999998" type="curve"/>
      <point x="932.70000013" y="1251.3999998" type="line"/>
      <point x="943.40000014" y="1352.19999997" type="line"/>
      <point x="255.000000015" y="1352.19999997" type="line"/>
      <point x="209.00000003" y="649.399999902" type="line"/>
      <point x="319.200000152" y="638.399999872" type="line"/>
      <point x="376.500000156" y="700.599999875"/>
      <point x="477.200000107" y="740.399999857"/>
      <point x="576.600000054" y="740.399999857" type="curve" smooth="yes"/>
      <point x="796.399999887" y="740.399999857"/>
      <point x="874.2999999" y="594.199999958"/>
      <point x="874.2999999" y="428.200000003" type="curve" smooth="yes"/>
      <point x="874.2999999" y="202.000000149"/>
      <point x="711.800000042" y="83.7000001743"/>
      <point x="510.800000086" y="83.7000001743" type="curve" smooth="yes"/>
      <point x="402.100000016" y="83.7000001743"/>
      <point x="286.799999982" y="121.700000264"/>
      <point x="192.600000113" y="180.400000185" type="curve"/>
      <point x="149.500000037" y="88.4000000358" type="line"/>
      <point x="255.199999899" y="23.5000001118"/>
      <point x="391.899999984" y="-18.8999999985"/>
    </contour>
  </outline>
</glyph>
<glyph name="six" format="1">
  <advance width="1202.00000009"/>
  <unicode hex="0036"/>
  <outline>
    <contour>
      <point x="586.600000069" y="-18.0" type="curve" smooth="yes"/>
      <point x="853.800000086" y="-18.0"/>
      <point x="1013.60000017" y="171.099999972"/>
      <point x="1013.60000017" y="399.00000003" type="curve" smooth="yes"/>
      <point x="1013.60000017" y="640.900000043"/>
      <point x="819.700000174" y="798.400000066"/>
      <point x="612.300000094" y="798.400000066" type="curve" smooth="yes"/>
      <point x="352.600000381" y="798.400000066"/>
      <point x="229.50000044" y="580.000000343"/>
      <point x="220.100000419" y="558.700000368" type="curve"/>
      <point x="239.300000466" y="544.200000301" type="line"/>
      <point x="239.300000466" y="544.200000301"/>
      <point x="382.800000489" y="729.80000034"/>
      <point x="486.300000317" y="881.900000088" type="curve"/>
      <point x="810.100000285" y="1352.19999997" type="line"/>
      <point x="668.70000001" y="1352.19999997" type="line"/>
      <point x="374.2999999" y="923.199999884" type="line" smooth="yes"/>
      <point x="243.899999954" y="732.799999982"/>
      <point x="161.699999951" y="608.799999982"/>
      <point x="161.699999951" y="402.200000033" type="curve" smooth="yes"/>
      <point x="161.699999951" y="190.199999943"/>
      <point x="303.900000058" y="-18.0"/>
    </contour>
    <contour>
      <point x="583.800000057" y="82.8000001609" type="curve" smooth="yes"/>
      <point x="380.900000148" y="82.8000001609"/>
      <point x="280.500000186" y="229.70000007"/>
      <point x="280.500000186" y="392.100000031" type="curve" smooth="yes"/>
      <point x="280.500000186" y="637.499999858"/>
      <point x="480.29999996" y="696.799999923"/>
      <point x="591.300000049" y="696.799999923" type="curve" smooth="yes"/>
      <point x="782.0" y="696.799999923"/>
      <point x="893.599999934" y="570.499999978"/>
      <point x="893.599999934" y="398.600000024" type="curve" smooth="yes"/>
      <point x="893.599999934" y="233.500000067"/>
      <point x="785.299999975" y="82.8000001609"/>
    </contour>
  </outline>
</glyph>
<glyph name="seven" format="1">
  <advance width="1113.69999991"/>
  <unicode hex="0037"/>
  <outline>
    <contour>
      <point x="341.799999833" y="0.89999999851" type="line"/>
      <point x="462.7000001" y="0.89999999851" type="line"/>
      <point x="961.599999979" y="1260.19999985" type="line"/>
      <point x="961.599999979" y="1352.19999997" type="line"/>
      <point x="180.399999887" y="1352.19999997" type="line"/>
      <point x="202.59999983" y="1252.5999998" type="line"/>
      <point x="836.399999708" y="1252.5999998" type="line"/>
    </contour>
  </outline>
</glyph>
<glyph name="eight" format="1">
  <advance width="1134.10000021"/>
  <unicode hex="0038"/>
  <outline>
    <contour>
      <point x="567.300000109" y="-18.0" type="curve" smooth="yes"/>
      <point x="808.000000119" y="-18.0"/>
      <point x="998.500000156" y="96.9000000283"/>
      <point x="998.500000156" y="332.200000048" type="curve" smooth="yes"/>
      <point x="998.500000156" y="509.700000025"/>
      <point x="883.200000212" y="654.399999976"/>
      <point x="697.400000319" y="706.799999997" type="curve"/>
      <point x="860.100000225" y="758.800000012"/>
      <point x="967.300000168" y="865.599999994"/>
      <point x="967.300000168" y="1037.09999996" type="curve" smooth="yes"/>
      <point x="967.300000168" y="1245.7"/>
      <point x="808.100000106" y="1370.49999998"/>
      <point x="568.100000106" y="1370.49999998" type="curve" smooth="yes"/>
      <point x="326.500000112" y="1370.49999998"/>
      <point x="165.100000046" y="1245.7"/>
      <point x="165.100000046" y="1037.09999996" type="curve" smooth="yes"/>
      <point x="165.100000046" y="867.099999987"/>
      <point x="282.099999987" y="748.700000025"/>
      <point x="437.199999914" y="704.100000001" type="curve"/>
      <point x="242.500000022" y="641.899999999"/>
      <point x="135.600000054" y="527.0"/>
      <point x="135.600000054" y="332.300000049" type="curve" smooth="yes"/>
      <point x="135.600000054" y="96.2000000328"/>
      <point x="329.100000091" y="-18.0"/>
    </contour>
    <contour>
      <point x="567.300000109" y="80.2000001222" type="curve" smooth="yes"/>
      <point x="357.800000221" y="80.2000001222"/>
      <point x="247.700000264" y="171.500000097"/>
      <point x="247.700000264" y="342.400000021" type="curve" smooth="yes"/>
      <point x="247.700000264" y="515.899999954"/>
      <point x="386.900000192" y="612.599999934"/>
      <point x="567.300000109" y="649.399999931" type="curve"/>
      <point x="749.400000021" y="612.599999934"/>
      <point x="883.099999957" y="507.699999966"/>
      <point x="883.099999957" y="342.500000022" type="curve" smooth="yes"/>
      <point x="883.099999957" y="163.40000011"/>
      <point x="783.199999988" y="80.2000001222"/>
    </contour>
    <contour>
      <point x="567.300000109" y="748.900000043" type="curve"/>
      <point x="382.100000195" y="788.900000028"/>
      <point x="287.500000216" y="890.399999991"/>
      <point x="287.500000216" y="1042.39999995" type="curve" smooth="yes"/>
      <point x="287.500000216" y="1184.89999988"/>
      <point x="400.200000182" y="1271.59999985"/>
      <point x="567.300000109" y="1271.59999985" type="curve" smooth="yes"/>
      <point x="736.200000033" y="1271.59999985"/>
      <point x="844.100000001" y="1184.89999988"/>
      <point x="844.100000001" y="1042.39999995" type="curve" smooth="yes"/>
      <point x="844.100000001" y="890.399999991"/>
      <point x="754.200000018" y="788.900000028"/>
    </contour>
  </outline>
</glyph>
<glyph name="nine" format="1">
  <advance width="1130.10000015"/>
  <unicode hex="0039"/>
  <outline>
    <contour>
      <point x="307.399999917" y="0.0" type="line"/>
      <point x="455.700000189" y="0.0" type="line"/>
      <point x="455.700000189" y="0.0"/>
      <point x="775.800000235" y="427.600000069"/>
      <point x="777.900000267" y="430.40000011" type="curve" smooth="yes"/>
      <point x="913.700000189" y="615.500000007"/>
      <point x="1009.10000017" y="744.0"/>
      <point x="1009.10000017" y="950.199999943" type="curve" smooth="yes"/>
      <point x="1009.10000017" y="1162.40000004"/>
      <point x="866.900000058" y="1370.49999998"/>
      <point x="584.200000048" y="1370.49999998" type="curve" smooth="yes"/>
      <point x="316.900000028" y="1370.49999998"/>
      <point x="157.199999943" y="1181.3"/>
      <point x="157.199999943" y="953.099999942" type="curve" smooth="yes"/>
      <point x="157.199999943" y="710.899999924"/>
      <point x="350.99999994" y="553.599999905"/>
      <point x="558.400000021" y="553.599999905" type="curve" smooth="yes"/>
      <point x="816.299999706" y="553.599999905"/>
      <point x="941.699999683" y="771.599999622"/>
      <point x="950.799999699" y="793.399999604" type="curve"/>
      <point x="931.399999648" y="807.099999659" type="line"/>
      <point x="931.399999648" y="807.099999659"/>
      <point x="775.299999692" y="620.999999687"/>
      <point x="665.499999873" y="473.399999931" type="curve"/>
    </contour>
    <contour>
      <point x="579.600000069" y="654.900000043" type="curve" smooth="yes"/>
      <point x="388.900000118" y="654.900000043"/>
      <point x="277.10000018" y="781.499999993"/>
      <point x="277.10000018" y="953.699999951" type="curve" smooth="yes"/>
      <point x="277.10000018" y="1118.99999991"/>
      <point x="385.700000145" y="1269.79999982"/>
      <point x="587.200000063" y="1269.79999982" type="curve" smooth="yes"/>
      <point x="790.099999972" y="1269.79999982"/>
      <point x="890.399999931" y="1122.89999991"/>
      <point x="890.399999931" y="960.399999946" type="curve" smooth="yes"/>
      <point x="890.399999931" y="714.600000113"/>
      <point x="690.500000156" y="654.900000043"/>
    </contour>
  </outline>
</glyph>
<glyph name="colon" format="1">
  <advance width="478.700000264"/>
  <unicode hex="003A"/>
  <outline>
    <contour>
      <point x="160.400000051" y="-30.5999999493" type="line"/>
      <point x="307.500000231" y="-30.5999999493" type="line"/>
      <point x="307.500000231" y="154.400000185" type="line"/>
      <point x="160.400000051" y="154.400000185" type="line"/>
    </contour>
    <contour>
      <point x="160.400000051" y="834.799999878" type="line"/>
      <point x="307.500000231" y="834.799999878" type="line"/>
      <point x="307.500000231" y="1022.29999999" type="line"/>
      <point x="160.400000051" y="1022.29999999" type="line"/>
    </contour>
  </outline>
</glyph>
<glyph name="semicolon" format="1">
  <advance width="467.700000279"/>
  <unicode hex="003B"/>
  <outline>
    <contour>
      <point x="128.900000103" y="-279.800000012" type="line"/>
      <point x="199.600000247" y="-279.800000012" type="line"/>
      <point x="312.900000252" y="145.40000017" type="line"/>
      <point x="180.7000001" y="145.40000017" type="line"/>
    </contour>
    <contour>
      <point x="171.900000058" y="835.399999887" type="line"/>
      <point x="318.900000237" y="835.399999887" type="line"/>
      <point x="318.900000237" y="1023.8" type="line"/>
      <point x="171.900000058" y="1023.8" type="line"/>
    </contour>
  </outline>
</glyph>
<glyph name="less" format="1">
  <advance width="1126.59999996"/>
  <unicode hex="003C"/>
  <outline>
    <contour>
      <point x="977.099999987" y="115.000000089" type="line"/>
      <point x="977.099999987" y="115.000000089"/>
      <point x="977.899999984" y="224.600000262"/>
      <point x="977.799999982" y="224.700000264" type="curve" smooth="yes"/>
      <point x="215.500000246" y="572.100000136" type="line"/>
      <point x="979.799999982" y="940.300000019" type="line"/>
      <point x="979.799999982" y="1052.60000017" type="line"/>
      <point x="105.899999984" y="603.800000176" type="line"/>
      <point x="105.899999984" y="533.100000091" type="line"/>
    </contour>
  </outline>
</glyph>
<glyph name="greater" format="1">
  <advance width="1138.29999994"/>
  <unicode hex="003E"/>
  <outline>
    <contour>
      <point x="136.899999999" y="121.500000082" type="line"/>
      <point x="1011.7" y="531.300000094" type="line"/>
      <point x="1011.7" y="602.800000176" type="line"/>
      <point x="139.599999994" y="1059.90000016" type="line"/>
      <point x="139.599999994" y="948.500000007" type="line"/>
      <point x="898.399999738" y="572.100000136" type="line"/>
      <point x="136.899999999" y="232.100000255" type="line"/>
    </contour>
  </outline>
</glyph>
<glyph name="question" format="1">
  <advance width="865.500000171"/>
  <unicode hex="003F"/>
  <outline>
    <contour>
      <point x="392.600000203" y="382.500000067" type="line"/>
      <point x="530.100000195" y="706.299999975"/>
      <point x="715.200000226" y="850.699999966"/>
      <point x="715.200000226" y="1112.9999999" type="curve" smooth="yes"/>
      <point x="715.200000226" y="1289.29999996"/>
      <point x="609.000000089" y="1398.99999994"/>
      <point x="401.100000165" y="1398.99999994" type="curve" smooth="yes"/>
      <point x="326.200000048" y="1398.99999994"/>
      <point x="197.400000095" y="1381.89999991"/>
      <point x="120.000000075" y="1314.69999992" type="curve"/>
      <point x="143.400000155" y="1211.89999982" type="line"/>
      <point x="182.800000176" y="1236.69999983"/>
      <point x="270.200000152" y="1284.09999982"/>
      <point x="375.300000168" y="1284.09999982" type="curve" smooth="yes"/>
      <point x="504.800000131" y="1284.09999982"/>
      <point x="598.300000079" y="1240.19999979"/>
      <point x="600.200000077" y="1108.99999985" type="curve"/>
      <point x="600.200000077" y="919.499999903"/>
      <point x="313.600000203" y="568.300000198"/>
      <point x="332.800000116" y="379.500000082" type="curve"/>
    </contour>
    <contour>
      <point x="383.300000124" y="-13.2999999896" type="curve" smooth="yes"/>
      <point x="465.100000121" y="-13.2999999896"/>
      <point x="493.600000173" y="43.0000000298"/>
      <point x="493.600000173" y="94.0000000745" type="curve" smooth="yes"/>
      <point x="493.600000173" y="145.100000121"/>
      <point x="465.100000121" y="200.500000142"/>
      <point x="383.300000124" y="200.500000142" type="curve" smooth="yes"/>
      <point x="304.000000119" y="200.500000142"/>
      <point x="276.800000057" y="145.100000121"/>
      <point x="276.800000057" y="94.0000000745" type="curve" smooth="yes"/>
      <point x="276.800000057" y="43.8000000268"/>
      <point x="304.100000121" y="-13.2999999896"/>
    </contour>
  </outline>
</glyph>
<glyph name="at" format="1">
  <advance width="1925.5999997"/>
  <unicode hex="0040"/>
  <outline>
    <contour>
      <point x="940.499999858" y="-206.299999855" type="curve" smooth="yes"/>
      <point x="1128.59999983" y="-206.299999855"/>
      <point x="1299.99999985" y="-161.899999864"/>
      <point x="1426.69999983" y="-76.7999998778" type="curve"/>
      <point x="1390.09999982" y="6.40000018477" type="line"/>
      <point x="1259.39999984" y="-68.7999998033"/>
      <point x="1103.79999983" y="-110.099999793"/>
      <point x="941.499999858" y="-110.099999793" type="curve" smooth="yes"/>
      <point x="554.799999878" y="-110.099999793"/>
      <point x="287.400000021" y="130.600000277"/>
      <point x="287.400000021" y="562.100000046" type="curve" smooth="yes"/>
      <point x="287.400000021" y="991.999999851"/>
      <point x="592.499999858" y="1298.79999988"/>
      <point x="1004.19999984" y="1298.79999988" type="curve" smooth="yes"/>
      <point x="1377.2999999" y="1298.79999988"/>
      <point x="1644.5999997" y="1057.19999984"/>
      <point x="1644.5999997" y="705.700000025" type="curve" smooth="yes"/>
      <point x="1644.5999997" y="468.599999994"/>
      <point x="1553.59999967" y="288.800000131"/>
      <point x="1364.99999984" y="288.800000131" type="curve" smooth="yes"/>
      <point x="1274.69999989" y="288.800000131"/>
      <point x="1244.79999986" y="361.40000008"/>
      <point x="1244.79999986" y="456.200000033" type="curve" smooth="yes"/>
      <point x="1244.79999986" y="577.000000015"/>
      <point x="1281.49999986" y="758.999999985"/>
      <point x="1309.19999985" y="956.099999957" type="curve"/>
      <point x="1224.99999987" y="986.699999981"/>
      <point x="1115.59999982" y="1013.49999998"/>
      <point x="1020.59999983" y="1013.49999998" type="curve" smooth="yes"/>
      <point x="748.999999851" y="1013.49999998"/>
      <point x="597.699999861" y="791.799999952"/>
      <point x="597.699999861" y="530.600000039" type="curve" smooth="yes"/>
      <point x="597.699999861" y="318.900000118"/>
      <point x="701.999999836" y="190.000000089"/>
      <point x="878.799999863" y="190.000000089" type="curve" smooth="yes"/>
      <point x="1013.29999992" y="190.000000089"/>
      <point x="1141.49999984" y="302.900000162"/>
      <point x="1187.09999981" y="472.900000028" type="curve"/>
      <point x="1136.89999983" y="472.900000028" type="line"/>
      <point x="1147.19999984" y="247.400000185"/>
      <point x="1279.38699975" y="202.500000067"/>
      <point x="1368.49999983" y="202.500000067" type="curve" smooth="yes"/>
      <point x="1571.19999975" y="202.500000067"/>
      <point x="1752.19999976" y="372.100000046"/>
      <point x="1752.19999976" y="698.600000024" type="curve" smooth="yes"/>
      <point x="1752.19999976" y="1130.29999996"/>
      <point x="1434.49999978" y="1397.59999993"/>
      <point x="1006.79999985" y="1397.59999993" type="curve" smooth="yes"/>
      <point x="512.799999923" y="1397.59999993"/>
      <point x="176.099999927" y="1042.99999999"/>
      <point x="176.099999927" y="561.800000057" type="curve" smooth="yes"/>
      <point x="176.099999927" y="79.6000001281"/>
      <point x="477.199999928" y="-206.299999855"/>
    </contour>
    <contour>
      <point x="892.199999869" y="283.500000127" type="curve" smooth="yes"/>
      <point x="780.999999896" y="283.500000127"/>
      <point x="711.899999939" y="354.200000152"/>
      <point x="711.899999939" y="531.900000028" type="curve" smooth="yes"/>
      <point x="711.899999939" y="731.999999985"/>
      <point x="827.299999915" y="924.199999943"/>
      <point x="1016.69999988" y="924.199999943" type="curve" smooth="yes"/>
      <point x="1065.89999988" y="924.199999943"/>
      <point x="1200.99999978" y="900.099999957"/>
      <point x="1238.69999977" y="887.199999958" type="curve"/>
      <point x="1180.8999998" y="964.499999948" type="line"/>
      <point x="1175.49999981" y="911.400000036"/>
      <point x="1139.2999998" y="696.399999946"/>
      <point x="1132.09999981" y="644.200000033" type="curve" smooth="yes"/>
      <point x="1106.4999998" y="450.300000064"/>
      <point x="1041.69999985" y="283.500000127"/>
    </contour>
  </outline>
</glyph>
<glyph name="A" format="1">
  <advance width="1236.00000028"/>
  <unicode hex="0041"/>
  <outline>
    <contour>
      <point x="46.200000003" y="0.0" type="line"/>
      <point x="178.700000279" y="0.0" type="line"/>
      <point x="364.700000219" y="492.399999902" type="line"/>
      <point x="307.700000159" y="451.399999857" type="line"/>
      <point x="939.000000104" y="451.399999857" type="line"/>
      <point x="880.800000042" y="490.199999899" type="line"/>
      <point x="1063.9" y="0.0" type="line"/>
      <point x="1189.80000028" y="0.0" type="line"/>
      <point x="681.300000332" y="1353.8" type="line"/>
      <point x="554.899999954" y="1353.8" type="line"/>
    </contour>
    <contour>
      <point x="367.500000231" y="504.499999948" type="line"/>
      <point x="640.900000148" y="1276.99999984" type="line"/>
      <point x="596.000000149" y="1278.79999983" type="line"/>
      <point x="877.00000003" y="504.599999949" type="line"/>
      <point x="911.700000055" y="545.100000016" type="line"/>
      <point x="336.500000201" y="545.100000016" type="line"/>
    </contour>
  </outline>
</glyph>
<glyph name="B" format="1">
  <advance width="1296.59999999"/>
  <unicode hex="0042"/>
  <outline>
    <contour>
      <point x="208.199999914" y="0.0" type="line"/>
      <point x="708.599999994" y="0.0" type="line" smooth="yes"/>
      <point x="1041.09999994" y="0.0"/>
      <point x="1183.20000003" y="151.499999978"/>
      <point x="1183.20000003" y="378.200000033" type="curve" smooth="yes"/>
      <point x="1183.20000003" y="584.400000036"/>
      <point x="1049.10000002" y="695.400000021"/>
      <point x="815.900000133" y="727.900000043" type="curve"/>
      <point x="815.900000133" y="690.200000003" type="line"/>
      <point x="1068.39999999" y="746.300000019"/>
      <point x="1127.10000005" y="859.300000004"/>
      <point x="1127.10000005" y="1023.69999998" type="curve" smooth="yes"/>
      <point x="1127.10000005" y="1248.00000003"/>
      <point x="973.199999988" y="1353.8"/>
      <point x="625.200000018" y="1353.8" type="curve" smooth="yes"/>
      <point x="208.199999914" y="1353.8" type="line"/>
    </contour>
    <contour>
      <point x="294.900000148" y="100.800000191" type="line"/>
      <point x="339.600000173" y="54.9000001624" type="line"/>
      <point x="339.600000173" y="701.699999981" type="line"/>
      <point x="294.000000149" y="662.799999923" type="line"/>
      <point x="626.300000034" y="662.799999923" type="line" smooth="yes"/>
      <point x="913.899999864" y="662.799999923"/>
      <point x="1051.79999977" y="594.99999994"/>
      <point x="1051.79999977" y="378.300000064" type="curve" smooth="yes"/>
      <point x="1051.79999977" y="179.600000158"/>
      <point x="943.399999812" y="100.800000191"/>
      <point x="688.99999994" y="100.800000191" type="curve" smooth="yes"/>
    </contour>
    <contour>
      <point x="293.100000151" y="760.900000073" type="line"/>
      <point x="339.600000173" y="724.70000004" type="line"/>
      <point x="339.600000173" y="1297.49999984" type="line"/>
      <point x="295.800000146" y="1253.59999982" type="line"/>
      <point x="632.599999949" y="1253.59999982" type="line" smooth="yes"/>
      <point x="883.399999842" y="1253.59999982"/>
      <point x="1003.69999979" y="1206.19999984"/>
      <point x="1003.69999979" y="1009.79999994" type="curve" smooth="yes"/>
      <point x="1003.69999979" y="805.900000073"/>
      <point x="875.699999876" y="760.900000073"/>
      <point x="688.699999936" y="760.900000073" type="curve" smooth="yes"/>
    </contour>
  </outline>
</glyph>
<glyph name="C" format="1">
  <advance width="1227.90000001"/>
  <unicode hex="0043"/>
  <outline>
    <contour>
      <point x="778.29999999" y="-18.0" type="curve" smooth="yes"/>
      <point x="951.2999999" y="-18.0"/>
      <point x="1104.4999999" y="35.1999999583"/>
      <point x="1132.20000005" y="63.0" type="curve"/>
      <point x="1098.10000002" y="160.100000195" type="line"/>
      <point x="1007.40000004" y="120.4000002"/>
      <point x="921.199999958" y="86.2000002116"/>
      <point x="800.899999999" y="86.2000002116" type="curve" smooth="yes"/>
      <point x="443.80000025" y="86.2000002116"/>
      <point x="268.200000212" y="338.699999981"/>
      <point x="268.200000212" y="675.300000004" type="curve" smooth="yes"/>
      <point x="268.200000212" y="1010.70000001"/>
      <point x="444.400000244" y="1267.99999979"/>
      <point x="782.200000018" y="1267.99999979" type="curve" smooth="yes"/>
      <point x="898.29999999" y="1267.99999979"/>
      <point x="1014.69999998" y="1234.6999998"/>
      <point x="1096.09999999" y="1182.29999981" type="curve"/>
      <point x="1145.10000003" y="1266.49999999" type="line"/>
      <point x="1063.99999999" y="1327.40000001"/>
      <point x="933.99999997" y="1371.8"/>
      <point x="768.70000001" y="1371.8" type="curve" smooth="yes"/>
      <point x="363.100000121" y="1371.8"/>
      <point x="136.799999952" y="1073.90000015"/>
      <point x="136.799999952" y="681.0" type="curve" smooth="yes"/>
      <point x="136.799999952" y="258.999999911"/>
      <point x="393.100000016" y="-18.0"/>
    </contour>
  </outline>
</glyph>
<glyph name="D" format="1">
  <advance width="1450.50000001"/>
  <unicode hex="0044"/>
  <outline>
    <contour>
      <point x="339.600000173" y="51.000000149" type="line"/>
      <point x="339.600000173" y="1302.69999985" type="line"/>
      <point x="289.600000143" y="1253.59999982" type="line"/>
      <point x="577.70000001" y="1253.59999982" type="line" smooth="yes"/>
      <point x="959.499999888" y="1253.59999982"/>
      <point x="1182.3999998" y="1096.19999984"/>
      <point x="1182.3999998" y="675.300000004" type="curve" smooth="yes"/>
      <point x="1182.3999998" y="292.200000152"/>
      <point x="991.799999848" y="100.800000191"/>
      <point x="602.800000012" y="100.800000191" type="curve" smooth="yes"/>
      <point x="289.700000145" y="100.800000191" type="line"/>
    </contour>
    <contour>
      <point x="208.199999914" y="0.0" type="line"/>
      <point x="618.499999963" y="0.0" type="line" smooth="yes"/>
      <point x="1049.79999998" y="0.0"/>
      <point x="1313.70000006" y="230.600000024"/>
      <point x="1313.70000006" y="679.400000006" type="curve" smooth="yes"/>
      <point x="1313.70000006" y="1154.09999997"/>
      <point x="1021.1" y="1353.8"/>
      <point x="590.099999972" y="1353.8" type="curve" smooth="yes"/>
      <point x="208.199999914" y="1353.8" type="line"/>
    </contour>
  </outline>
</glyph>
<glyph name="E" format="1">
  <advance width="1143.40000005"/>
  <unicode hex="0045"/>
  <outline>
    <contour>
      <point x="208.199999914" y="0.0" type="line"/>
      <point x="1013.50000004" y="0.0" type="line"/>
      <point x="1023.30000005" y="100.800000191" type="line"/>
      <point x="295.200000122" y="100.800000191" type="line"/>
      <point x="339.600000173" y="55.7000001445" type="line"/>
      <point x="339.600000173" y="685.100000001" type="line"/>
      <point x="295.100000121" y="647.29999993" type="line"/>
      <point x="951.000000089" y="647.29999993" type="line"/>
      <point x="951.000000089" y="747.500000112" type="line"/>
      <point x="295.200000122" y="747.500000112" type="line"/>
      <point x="339.600000173" y="705.900000058" type="line"/>
      <point x="339.600000173" y="1293.59999987" type="line"/>
      <point x="296.900000118" y="1253.59999982" type="line"/>
      <point x="1017.60000002" y="1253.59999982" type="line"/>
      <point x="1022.30000003" y="1353.8" type="line"/>
      <point x="208.199999914" y="1353.8" type="line"/>
    </contour>
  </outline>
</glyph>
<glyph name="F" format="1">
  <advance width="1025.20000014"/>
  <unicode hex="0046"/>
  <outline>
    <contour>
      <point x="208.199999914" y="0.0" type="line"/>
      <point x="343.200000167" y="0.0" type="line"/>
      <point x="343.200000167" y="669.799999997" type="line"/>
      <point x="290.400000095" y="632.2999999" type="line"/>
      <point x="909.000000149" y="632.2999999" type="line"/>
      <point x="909.000000149" y="727.900000088" type="line"/>
      <point x="284.600000098" y="727.900000088" type="line"/>
      <point x="343.200000167" y="687.100000031" type="line"/>
      <point x="343.200000167" y="1305.49999986" type="line"/>
      <point x="284.100000091" y="1252.5999998" type="line"/>
      <point x="952.40000017" y="1252.5999998" type="line"/>
      <point x="961.700000174" y="1353.8" type="line"/>
      <point x="208.199999914" y="1353.8" type="line"/>
    </contour>
  </outline>
</glyph>
<glyph name="G" format="1">
  <advance width="1396.19999996"/>
  <unicode hex="0047"/>
  <outline>
    <contour>
      <point x="779.599999964" y="-18.0" type="curve" smooth="yes"/>
      <point x="964.399999961" y="-18.0"/>
      <point x="1108.89999997" y="11.6000000089"/>
      <point x="1244.29999999" y="62.2000000328" type="curve"/>
      <point x="1244.29999999" y="681.100000076" type="line"/>
      <point x="814.799999818" y="681.100000076" type="line"/>
      <point x="806.699999832" y="571.199999914" type="line"/>
      <point x="1166.99999982" y="571.199999914" type="line"/>
      <point x="1116.99999979" y="621.199999943" type="line"/>
      <point x="1116.99999979" y="78.9000001326" type="line"/>
      <point x="1158.99999985" y="140.300000243" type="line"/>
      <point x="1106.09999984" y="119.900000222"/>
      <point x="968.699999981" y="86.1000002101"/>
      <point x="813.999999925" y="86.1000002101" type="curve" smooth="yes"/>
      <point x="422.200000152" y="86.1000002101"/>
      <point x="268.10000021" y="321.300000124"/>
      <point x="268.10000021" y="674.000000015" type="curve" smooth="yes"/>
      <point x="268.10000021" y="1005.79999995"/>
      <point x="459.100000165" y="1268.19999979"/>
      <point x="791.400000021" y="1268.19999979" type="curve" smooth="yes"/>
      <point x="1017.49999981" y="1268.19999979"/>
      <point x="1116.29999984" y="1197.79999986"/>
      <point x="1171.79999995" y="1164.79999982" type="curve"/>
      <point x="1204.70000001" y="1265.1" type="line"/>
      <point x="1102.39999995" y="1343.19999999"/>
      <point x="947.800000012" y="1371.8"/>
      <point x="792.499999993" y="1371.8" type="curve" smooth="yes"/>
      <point x="368.300000079" y="1371.8"/>
      <point x="136.699999951" y="1066.00000009"/>
      <point x="136.699999951" y="672.800000012" type="curve" smooth="yes"/>
      <point x="136.699999951" y="282.999999955"/>
      <point x="350.800000012" y="-18.0"/>
    </contour>
  </outline>
</glyph>
<glyph name="H" format="1">
  <advance width="1427.10000005"/>
  <unicode hex="0048"/>
  <outline>
    <contour>
      <point x="204.59999992" y="0.0" type="line"/>
      <point x="336.000000179" y="0.0" type="line"/>
      <point x="336.000000179" y="685.799999967" type="line"/>
      <point x="282.200000137" y="648.2999999" type="line"/>
      <point x="1149.5999999" y="648.2999999" type="line"/>
      <point x="1091.09999987" y="685.799999967" type="line"/>
      <point x="1091.09999987" y="0.0" type="line"/>
      <point x="1222.50000013" y="0.0" type="line"/>
      <point x="1222.50000013" y="1353.8" type="line"/>
      <point x="1091.09999987" y="1353.8" type="line"/>
      <point x="1091.09999987" y="705.200000033" type="line"/>
      <point x="1147.1999999" y="742.7000001" type="line"/>
      <point x="282.100000136" y="742.7000001" type="line"/>
      <point x="336.000000179" y="705.200000033" type="line"/>
      <point x="336.000000179" y="1353.8" type="line"/>
      <point x="204.59999992" y="1353.8" type="line"/>
    </contour>
  </outline>
</glyph>
<glyph name="I" format="1">
  <advance width="715.4000002"/>
  <unicode hex="0049"/>
  <outline>
    <contour>
      <point x="105.600000024" y="1353.8" type="line"/>
      <point x="105.600000024" y="1271.99999985" type="line"/>
      <point x="331.400000036" y="1271.99999985" type="line"/>
      <point x="292.199999973" y="1312.09999988" type="line"/>
      <point x="292.199999973" y="36.8000001162" type="line"/>
      <point x="335.800000027" y="81.800000146" type="line"/>
      <point x="105.600000024" y="81.800000146" type="line"/>
      <point x="105.600000024" y="0.0" type="line"/>
      <point x="609.800000176" y="0.0" type="line"/>
      <point x="609.800000176" y="81.800000146" type="line"/>
      <point x="379.900000162" y="81.800000146" type="line"/>
      <point x="423.600000232" y="38.5000001118" type="line"/>
      <point x="423.600000232" y="1310.59999989" type="line"/>
      <point x="383.500000156" y="1271.99999985" type="line"/>
      <point x="609.800000176" y="1271.99999985" type="line"/>
      <point x="609.800000176" y="1353.8" type="line"/>
    </contour>
  </outline>
</glyph>
<glyph name="J" format="1">
  <advance width="684.10000027"/>
  <unicode hex="004A"/>
  <outline>
    <contour>
      <point x="85.2000002265" y="-140.100000136" type="line"/>
      <point x="389.10000018" y="-140.100000136"/>
      <point x="475.900000356" y="-1.40000002086"/>
      <point x="475.900000356" y="271.300000049" type="curve" smooth="yes"/>
      <point x="475.900000356" y="1353.8" type="line"/>
      <point x="344.500000097" y="1353.8" type="line"/>
      <point x="344.500000097" y="243.500000082" type="line" smooth="yes"/>
      <point x="344.500000097" y="40.6000002474"/>
      <point x="279.500000112" y="-32.5999999344"/>
      <point x="81.3000001684" y="-32.5999999344" type="curve" smooth="yes"/>
      <point x="4.90000002831" y="-32.5999999344" type="line"/>
      <point x="4.90000002831" y="-140.100000136" type="line"/>
    </contour>
  </outline>
</glyph>
<glyph name="K" format="1">
  <advance width="1222.90000018"/>
  <unicode hex="004B"/>
  <outline>
    <contour>
      <point x="208.199999914" y="0.0" type="line"/>
      <point x="339.600000173" y="0.0" type="line"/>
      <point x="339.600000173" y="619.399999976" type="line"/>
      <point x="295.700000159" y="525.199999914" type="line"/>
      <point x="503.500000201" y="720.399999917" type="line"/>
      <point x="440.800000131" y="723.399999931" type="line"/>
      <point x="1008.39999998" y="0.0" type="line"/>
      <point x="1164.80000027" y="0.0" type="line"/>
      <point x="521.300000347" y="800.500000037" type="line"/>
      <point x="527.600000337" y="730.999999911" type="line"/>
      <point x="1136.40000026" y="1353.8" type="line"/>
      <point x="981.699999966" y="1353.8" type="line"/>
      <point x="298.100000136" y="656.000000045" type="line"/>
      <point x="339.600000173" y="647.000000045" type="line"/>
      <point x="339.600000173" y="1353.8" type="line"/>
      <point x="208.199999914" y="1353.8" type="line"/>
    </contour>
  </outline>
</glyph>
<glyph name="L" format="1">
  <advance width="1046.80000007"/>
  <unicode hex="004C"/>
  <outline>
    <contour>
      <point x="208.199999914" y="0.0" type="line"/>
      <point x="980.100000091" y="0.0" type="line"/>
      <point x="981.500000112" y="100.800000191" type="line"/>
      <point x="282.500000112" y="100.800000191" type="line"/>
      <point x="339.600000173" y="41.9000001326" type="line"/>
      <point x="339.600000173" y="1353.8" type="line"/>
      <point x="208.199999914" y="1353.8" type="line"/>
    </contour>
  </outline>
</glyph>
<glyph name="M" format="1">
  <advance width="1700.00000015"/>
  <unicode hex="004D"/>
  <outline>
    <contour>
      <point x="208.199999914" y="0.0" type="line"/>
      <point x="331.900000162" y="0.0" type="line"/>
      <point x="332.900000177" y="948.399999231" type="line"/>
      <point x="324.000000164" y="1290.79999951" type="line"/>
      <point x="298.300000124" y="1290.79999951" type="line"/>
      <point x="789.699999996" y="135.7000001" type="line"/>
      <point x="913.900000133" y="135.7000001" type="line"/>
      <point x="1411.90000001" y="1290.79999951" type="line"/>
      <point x="1378.89999998" y="1290.79999951" type="line"/>
      <point x="1368.99999997" y="952.29999923" type="line"/>
      <point x="1369.99999999" y="0.0" type="line"/>
      <point x="1491.80000024" y="0.0" type="line"/>
      <point x="1489.80000021" y="1353.8" type="line"/>
      <point x="1316.10000003" y="1353.8" type="line"/>
      <point x="823.600000039" y="203.800000355" type="line"/>
      <point x="882.7000001" y="203.800000355" type="line"/>
      <point x="390.700000115" y="1353.8" type="line"/>
      <point x="210.199999943" y="1353.8" type="line"/>
    </contour>
  </outline>
</glyph>
<glyph name="N" format="1">
  <advance width="1480.20000003"/>
  <unicode hex="004E"/>
  <outline>
    <contour>
      <point x="208.199999914" y="0.0" type="line"/>
      <point x="324.900000192" y="0.0" type="line"/>
      <point x="324.900000192" y="800.499999352" type="line"/>
      <point x="311.700000174" y="1260.39999968" type="line"/>
      <point x="276.300000139" y="1242.39999971" type="line"/>
      <point x="1142.99999981" y="0.0" type="line"/>
      <point x="1272.00000012" y="0.0" type="line"/>
      <point x="1272.00000012" y="1353.8" type="line"/>
      <point x="1155.29999984" y="1353.8" type="line"/>
      <point x="1155.29999984" y="528.400000468" type="line"/>
      <point x="1164.49999986" y="99.1000002846" type="line"/>
      <point x="1202.79999988" y="103.600000277" type="line"/>
      <point x="332.500000216" y="1353.8" type="line"/>
      <point x="208.199999914" y="1353.8" type="line"/>
    </contour>
  </outline>
</glyph>
<glyph name="O" format="1">
  <advance width="1553.50000001"/>
  <unicode hex="004F"/>
  <outline>
    <contour>
      <point x="778.200000003" y="85.8000002056" type="curve" smooth="yes"/>
      <point x="421.500000216" y="85.8000002056"/>
      <point x="268.200000212" y="327.000000119"/>
      <point x="268.200000212" y="666.70000001" type="curve" smooth="yes"/>
      <point x="268.200000212" y="1023.09999988"/>
      <point x="433.300000198" y="1267.79999979"/>
      <point x="779.100000001" y="1267.79999979" type="curve" smooth="yes"/>
      <point x="1125.7999998" y="1267.79999979"/>
      <point x="1285.2999998" y="1021.29999989"/>
      <point x="1285.2999998" y="666.70000001" type="curve" smooth="yes"/>
      <point x="1285.2999998" y="327.000000119"/>
      <point x="1134.89999979" y="85.8000002056"/>
    </contour>
    <contour>
      <point x="779.100000001" y="-18.0" type="curve" smooth="yes"/>
      <point x="1199.99999996" y="-18.0"/>
      <point x="1416.70000006" y="265.499999963"/>
      <point x="1416.70000006" y="665.100000016" type="curve" smooth="yes"/>
      <point x="1416.70000006" y="1085.80000004"/>
      <point x="1186.29999997" y="1371.8"/>
      <point x="780.0" y="1371.8" type="curve" smooth="yes"/>
      <point x="362.000000045" y="1371.8"/>
      <point x="136.799999952" y="1089.40000004"/>
      <point x="136.799999952" y="666.900000013" type="curve" smooth="yes"/>
      <point x="136.799999952" y="257.399999976"/>
      <point x="351.00000006" y="-18.0"/>
    </contour>
  </outline>
</glyph>
<glyph name="P" format="1">
  <advance width="1173.30000014"/>
  <unicode hex="0050"/>
  <outline>
    <contour>
      <point x="208.199999914" y="0.0" type="line"/>
      <point x="339.600000173" y="0.0" type="line"/>
      <point x="339.600000173" y="703.099999942" type="line"/>
      <point x="285.300000153" y="660.099999882" type="line"/>
      <point x="653.000000045" y="660.099999882" type="line" smooth="yes"/>
      <point x="951.100000195" y="660.099999882"/>
      <point x="1077.7000002" y="787.799999937"/>
      <point x="1077.7000002" y="1025.29999994" type="curve" smooth="yes"/>
      <point x="1077.7000002" y="1262.70000003"/>
      <point x="899.800000131" y="1353.8"/>
      <point x="657.500000037" y="1353.8" type="curve" smooth="yes"/>
      <point x="208.199999914" y="1353.8" type="line"/>
    </contour>
    <contour>
      <point x="652.200000003" y="761.200000077" type="curve" smooth="yes"/>
      <point x="284.700000159" y="761.200000077" type="line"/>
      <point x="339.600000173" y="722.600000024" type="line"/>
      <point x="339.600000173" y="1305.69999983" type="line"/>
      <point x="284.700000159" y="1253.59999982" type="line"/>
      <point x="651.300000049" y="1253.59999982" type="line" smooth="yes"/>
      <point x="823.100000031" y="1253.59999982"/>
      <point x="946.299999945" y="1199.99999984"/>
      <point x="946.299999945" y="1025.39999993" type="curve" smooth="yes"/>
      <point x="946.299999945" y="825.100000076"/>
      <point x="848.900000028" y="761.200000077"/>
    </contour>
  </outline>
</glyph>
<glyph name="Q" format="1">
  <advance width="1553.50000001"/>
  <unicode hex="0051"/>
  <outline>
    <contour>
      <point x="1182.49999996" y="-389.800000116" type="curve"/>
      <point x="1256.10000012" y="-320.199999988" type="line"/>
      <point x="1177.50000007" y="-238.899999939"/>
      <point x="1052.70000011" y="-79.699999921"/>
      <point x="1004.10000012" y="22.3000000343" type="curve"/>
      <point x="899.199999899" y="5.59999996424" type="line"/>
      <point x="983.399999887" y="-158.899999999"/>
      <point x="1128.29999987" y="-333.40000008"/>
    </contour>
    <component base="O"/>
  </outline>
</glyph>
<glyph name="R" format="1">
  <advance width="1339.29999997"/>
  <unicode hex="0052"/>
  <outline>
    <contour>
      <point x="208.199999914" y="0.0" type="line"/>
      <point x="339.600000173" y="0.0" type="line"/>
      <point x="339.600000173" y="705.099999852" type="line"/>
      <point x="285.500000156" y="664.299999841" type="line"/>
      <point x="853.899999924" y="664.299999841" type="line"/>
      <point x="775.699999861" y="716.499999844" type="line"/>
      <point x="890.59999986" y="457.89999979" type="line"/>
      <point x="1084.09999978" y="0.0" type="line"/>
      <point x="1218.80000006" y="0.0" type="line"/>
      <point x="993.100000136" y="507.099999808" type="line"/>
      <point x="894.100000076" y="746.399999917" type="line"/>
      <point x="887.600000054" y="676.099999852" type="line"/>
      <point x="1069.9" y="709.299999885"/>
      <point x="1162.50000007" y="811.199999854"/>
      <point x="1162.50000007" y="1016.09999991" type="curve" smooth="yes"/>
      <point x="1162.50000007" y="1236.20000006"/>
      <point x="1046.19999991" y="1353.8"/>
      <point x="766.29999987" y="1353.8" type="curve" smooth="yes"/>
      <point x="208.199999914" y="1353.8" type="line"/>
    </contour>
    <contour>
      <point x="339.600000173" y="721.499999948" type="line"/>
      <point x="339.600000173" y="1303.79999983" type="line"/>
      <point x="284.100000165" y="1253.59999982" type="line"/>
      <point x="765.799999893" y="1253.59999982" type="line" smooth="yes"/>
      <point x="974.799999818" y="1253.59999982"/>
      <point x="1035.5999998" y="1167.29999986"/>
      <point x="1035.5999998" y="1014.79999991" type="curve" smooth="yes"/>
      <point x="1035.5999998" y="832.599999979"/>
      <point x="984.499999814" y="764.199999988"/>
      <point x="731.499999933" y="764.199999988" type="curve" smooth="yes"/>
      <point x="285.300000153" y="764.199999988" type="line"/>
    </contour>
  </outline>
</glyph>
<glyph name="S" format="1">
  <advance width="1129.60000007"/>
  <unicode hex="0053"/>
  <outline>
    <contour>
      <point x="566.70000001" y="-18.0" type="curve" smooth="yes"/>
      <point x="812.500000082" y="-18.0"/>
      <point x="1004.8000001" y="75.8000000715"/>
      <point x="1018.30000008" y="346.800000057" type="curve" smooth="yes"/>
      <point x="1030.00000006" y="584.500000022"/>
      <point x="873.700000145" y="653.100000091"/>
      <point x="688.200000063" y="726.7000001" type="curve" smooth="yes"/>
      <point x="475.100000061" y="811.300000079" type="line" smooth="yes"/>
      <point x="325.900000207" y="870.900000013"/>
      <point x="275.400000229" y="917.000000015"/>
      <point x="280.800000221" y="1043.19999991" type="curve" smooth="yes"/>
      <point x="288.000000209" y="1219.4999998"/>
      <point x="443.000000075" y="1267.79999979"/>
      <point x="594.900000043" y="1267.79999979" type="curve" smooth="yes"/>
      <point x="757.099999972" y="1267.79999979"/>
      <point x="874.199999988" y="1191.39999983"/>
      <point x="907.700000085" y="1170.2999998" type="curve"/>
      <point x="962.70000013" y="1255.80000001" type="line"/>
      <point x="896.600000039" y="1308.60000004"/>
      <point x="757.400000021" y="1371.8"/>
      <point x="604.600000009" y="1371.8" type="curve" smooth="yes"/>
      <point x="391.499999918" y="1371.8"/>
      <point x="171.099999957" y="1303.69999989"/>
      <point x="158.499999978" y="1038.19999991" type="curve" smooth="yes"/>
      <point x="150.399999991" y="858.099999897"/>
      <point x="264.299999975" y="774.999999836"/>
      <point x="437.999999955" y="707.59999986" type="curve" smooth="yes"/>
      <point x="660.799999967" y="621.799999878" type="line" smooth="yes"/>
      <point x="852.299999811" y="547.499999948"/>
      <point x="907.299999811" y="493.699999951"/>
      <point x="900.999999821" y="343.600000069" type="curve" smooth="yes"/>
      <point x="892.899999835" y="157.600000173"/>
      <point x="776.199999914" y="85.8000002056"/>
      <point x="572.200000018" y="85.8000002056" type="curve" smooth="yes"/>
      <point x="391.600000098" y="85.8000002056"/>
      <point x="282.600000009" y="147.700000174"/>
      <point x="193.00000003" y="214.800000146" type="curve"/>
      <point x="144.199999973" y="121.199999943" type="line"/>
      <point x="198.100000076" y="77.6999999061"/>
      <point x="317.800000131" y="-18.0"/>
    </contour>
  </outline>
</glyph>
<glyph name="T" format="1">
  <advance width="1073.10000012"/>
  <unicode hex="0054"/>
  <outline>
    <contour>
      <point x="468.599999934" y="0.0" type="line"/>
      <point x="600.000000194" y="0.0" type="line"/>
      <point x="600.000000194" y="1304.89999985" type="line"/>
      <point x="556.700000145" y="1256.99999978" type="line"/>
      <point x="1019.70000013" y="1256.99999978" type="line"/>
      <point x="1019.70000013" y="1353.8" type="line"/>
      <point x="53.3999999911" y="1353.8" type="line"/>
      <point x="53.3999999911" y="1256.99999978" type="line"/>
      <point x="511.899999984" y="1256.99999978" type="line"/>
      <point x="468.599999934" y="1303.19999985" type="line"/>
    </contour>
  </outline>
</glyph>
<glyph name="U" format="1">
  <advance width="1383.00000007"/>
  <unicode hex="0055"/>
  <outline>
    <contour>
      <point x="690.600000039" y="-18.0" type="curve" smooth="yes"/>
      <point x="1055.60000001" y="-18.0"/>
      <point x="1221.0000001" y="206.199999943"/>
      <point x="1221.0000001" y="497.499999978" type="curve" smooth="yes"/>
      <point x="1221.0000001" y="1353.8" type="line"/>
      <point x="1089.59999985" y="1353.8" type="line"/>
      <point x="1089.59999985" y="498.70000001" type="line" smooth="yes"/>
      <point x="1089.59999985" y="230.800000131"/>
      <point x="956.2999999" y="86.1000002101"/>
      <point x="690.600000039" y="86.1000002101" type="curve" smooth="yes"/>
      <point x="412.000000209" y="86.1000002101"/>
      <point x="293.400000229" y="231.600000128"/>
      <point x="293.400000229" y="499.500000007" type="curve" smooth="yes"/>
      <point x="293.400000229" y="1353.8" type="line"/>
      <point x="161.99999997" y="1353.8" type="line"/>
      <point x="161.99999997" y="500.299999975" type="line" smooth="yes"/>
      <point x="161.99999997" y="208.699999936"/>
      <point x="327.300000064" y="-18.0"/>
    </contour>
  </outline>
</glyph>
<glyph name="V" format="1">
  <advance width="1272.00000015"/>
  <unicode hex="0056"/>
  <outline>
    <contour>
      <point x="588.899999879" y="0.0" type="line"/>
      <point x="683.800000265" y="0.0" type="line"/>
      <point x="1204.40000015" y="1353.8" type="line"/>
      <point x="1072.09999987" y="1353.8" type="line"/>
      <point x="746.100000031" y="468.200000197" type="line"/>
      <point x="608.800000072" y="100.100000151" type="line"/>
      <point x="664.100000091" y="100.100000151" type="line"/>
      <point x="527.400000125" y="463.600000203" type="line"/>
      <point x="201.000000283" y="1353.8" type="line"/>
      <point x="67.599999994" y="1353.8" type="line"/>
    </contour>
  </outline>
</glyph>
<glyph name="W" format="1">
  <advance width="1950.99999993"/>
  <unicode hex="0057"/>
  <outline>
    <contour>
      <point x="486.199999854" y="0.0" type="line"/>
      <point x="613.100000091" y="0.0" type="line"/>
      <point x="1001.39999996" y="1248.79999965" type="line"/>
      <point x="954.599999964" y="1248.79999965" type="line"/>
      <point x="1338.6999998" y="0.0" type="line"/>
      <point x="1468.50000004" y="0.0" type="line"/>
      <point x="1890.19999997" y="1352.9" type="line"/>
      <point x="1763.99999972" y="1352.9" type="line"/>
      <point x="1385.09999991" y="99.2000003457" type="line"/>
      <point x="1424.5999999" y="99.2000003457" type="line"/>
      <point x="1041.60000007" y="1318.10000005" type="line"/>
      <point x="910.399999857" y="1318.10000005" type="line"/>
      <point x="528.399999991" y="101.000000343" type="line"/>
      <point x="567.29999999" y="101.000000343" type="line"/>
      <point x="183.500000216" y="1352.9" type="line"/>
      <point x="60.7999999523" y="1352.9" type="line"/>
    </contour>
  </outline>
</glyph>
<glyph name="X" format="1">
  <advance width="1271.00000007"/>
  <unicode hex="0058"/>
  <outline>
    <contour>
      <point x="138.999999836" y="0.0" type="line"/>
      <point x="263.100000121" y="0.0" type="line"/>
      <point x="651.500000037" y="606.399999812" type="line"/>
      <point x="702.700000174" y="651.900000028" type="line"/>
      <point x="1144.20000018" y="1353.8" type="line"/>
      <point x="1014.29999992" y="1353.8" type="line"/>
      <point x="641.70000004" y="743.100000255" type="line"/>
      <point x="578.399999902" y="692.500000052" type="line"/>
    </contour>
    <contour>
      <point x="1025.1999999" y="0.0" type="line"/>
      <point x="1146.40000021" y="0.0" type="line"/>
      <point x="251.000000209" y="1353.8" type="line"/>
      <point x="127.799999908" y="1353.8" type="line"/>
    </contour>
  </outline>
</glyph>
<glyph name="Y" format="1">
  <advance width="1157.10000017"/>
  <unicode hex="0059"/>
  <outline>
    <contour>
      <point x="529.29999993" y="0.0" type="line"/>
      <point x="660.10000018" y="0.0" type="line"/>
      <point x="660.10000018" y="623.599999994" type="line"/>
      <point x="619.600000158" y="492.199999869" type="line"/>
      <point x="1096.90000019" y="1353.8" type="line"/>
      <point x="971.699999906" y="1353.8" type="line"/>
      <point x="570.400000021" y="611.000000104" type="line"/>
      <point x="619.40000008" y="611.000000104" type="line"/>
      <point x="185.000000268" y="1353.8" type="line"/>
      <point x="60.1999999732" y="1353.8" type="line"/>
      <point x="574.899999954" y="485.299999855" type="line"/>
      <point x="529.29999993" y="623.899999984" type="line"/>
    </contour>
  </outline>
</glyph>
<glyph name="Z" format="1">
  <advance width="1137.7000001"/>
  <unicode hex="005A"/>
  <outline>
    <contour>
      <point x="137.000000015" y="0.0" type="line"/>
      <point x="1015.60000011" y="0.0" type="line"/>
      <point x="1025.5000001" y="100.800000191" type="line"/>
      <point x="224.700000338" y="100.800000191" type="line"/>
      <point x="245.500000365" y="52.9000001326" type="line"/>
      <point x="1019.20000009" y="1260.49999984" type="line"/>
      <point x="1011.10000011" y="1353.8" type="line"/>
      <point x="175.499999963" y="1353.8" type="line"/>
      <point x="175.499999963" y="1253.59999982" type="line"/>
      <point x="929.899999835" y="1253.59999982" type="line"/>
      <point x="901.299999811" y="1290.0999999" type="line"/>
      <point x="137.000000015" y="100.900000118" type="line"/>
    </contour>
  </outline>
</glyph>
<glyph name="bracketleft" format="1">
  <advance width="614.700000234"/>
  <unicode hex="005B"/>
  <outline>
    <contour>
      <point x="116.100000136" y="-269.099999733" type="line"/>
      <point x="116.100000136" y="1362.00000012" type="line"/>
      <point x="518.400000185" y="1362.00000012" type="line"/>
      <point x="518.400000185" y="1270.19999997" type="line"/>
      <point x="224.300000362" y="1270.19999997" type="line"/>
      <point x="224.300000362" y="-178.999999583" type="line"/>
      <point x="518.400000185" y="-178.999999583" type="line"/>
      <point x="518.400000185" y="-269.099999733" type="line"/>
    </contour>
  </outline>
</glyph>
<glyph name="backslash" format="1">
  <advance width="891.59999992"/>
  <unicode hex="005C"/>
  <outline>
    <contour>
      <point x="654.199999809" y="-50.3999999166" type="line"/>
      <point x="124.099999957" y="1352.19999997" type="line"/>
      <point x="217.400000185" y="1352.19999997" type="line"/>
      <point x="747.900000028" y="-50.3999999166" type="line"/>
    </contour>
  </outline>
</glyph>
<glyph name="bracketright" format="1">
  <advance width="616.500000231"/>
  <unicode hex="005D"/>
  <outline>
    <contour>
      <point x="99.0000000447" y="-269.099999733" type="line"/>
      <point x="99.0000000447" y="-179.099999584" type="line"/>
      <point x="393.099999867" y="-179.099999584" type="line"/>
      <point x="393.099999867" y="1270.09999997" type="line"/>
      <point x="99.0000000447" y="1270.09999997" type="line"/>
      <point x="99.0000000447" y="1362.00000012" type="line"/>
      <point x="500.400000095" y="1362.00000012" type="line"/>
      <point x="500.400000095" y="-269.099999733" type="line"/>
    </contour>
  </outline>
</glyph>
<glyph name="asciicircum" format="1">
  <advance width="1225.89999976"/>
  <unicode hex="005E"/>
  <outline>
    <contour>
      <point x="162.099999808" y="558.499999888" type="line"/>
      <point x="558.599999845" y="1396.49999992" type="line"/>
      <point x="633.199999928" y="1396.49999992" type="line"/>
      <point x="1051.19999997" y="558.499999888" type="line"/>
      <point x="967.299999766" y="558.499999888" type="line"/>
      <point x="595.59999989" y="1283.79999965" type="line"/>
      <point x="249.600000009" y="558.499999888" type="line"/>
    </contour>
  </outline>
</glyph>
<glyph name="underscore" format="1">
  <advance width="1007.50000001"/>
  <unicode hex="005F"/>
  <outline>
    <contour>
      <point x="87.6999999359" y="-269.499999844" type="line"/>
      <point x="909.000000089" y="-269.499999844" type="line"/>
      <point x="909.000000089" y="-173.699999712" type="line"/>
      <point x="87.6999999359" y="-173.699999712" type="line"/>
    </contour>
  </outline>
</glyph>
<glyph name="grave" format="1">
  <advance width="664.799999639"/>
  <unicode hex="0060"/>
  <outline>
    <contour>
      <point x="416.999999791" y="1166.49999986" type="line"/>
      <point x="482.999999955" y="1166.49999986" type="line"/>
      <point x="320.399999931" y="1514.89999988" type="line"/>
      <point x="132.999999747" y="1514.89999988" type="line"/>
    </contour>
  </outline>
</glyph>
<glyph name="a" format="1">
  <advance width="1073.79999997"/>
  <unicode hex="0061"/>
  <outline>
    <contour>
      <point x="423.999999985" y="-14.400000006" type="curve" smooth="yes"/>
      <point x="547.200000018" y="-14.400000006"/>
      <point x="703.299999975" y="20.0000000596"/>
      <point x="820.299999885" y="193.099999927" type="curve"/>
      <point x="785.499999858" y="196.699999981" type="line"/>
      <point x="810.799999893" y="0.89999999851" type="line"/>
      <point x="901.800000057" y="0.89999999851" type="line"/>
      <point x="901.800000057" y="656.400000006" type="line" smooth="yes"/>
      <point x="901.800000057" y="919.600000024"/>
      <point x="744.200000033" y="1008.50000005"/>
      <point x="520.100000016" y="1008.50000005" type="curve" smooth="yes"/>
      <point x="406.400000006" y="1008.50000005"/>
      <point x="262.600000009" y="972.500000067"/>
      <point x="176.899999924" y="926.400000051" type="curve"/>
      <point x="215.399999946" y="836.399999917" type="line"/>
      <point x="305.99999997" y="884.199999899"/>
      <point x="434.399999946" y="912.199999899"/>
      <point x="534.399999931" y="912.199999899" type="curve" smooth="yes"/>
      <point x="699.399999842" y="912.199999899"/>
      <point x="776.399999842" y="826.099999972"/>
      <point x="776.399999842" y="677.300000019" type="curve"/>
      <point x="776.399999842" y="549.900000088" type="line"/>
      <point x="807.399999857" y="583.400000095" type="line"/>
      <point x="586.499999858" y="581.600000069" type="line" smooth="yes"/>
      <point x="255.199999988" y="579.500000037"/>
      <point x="115.799999967" y="469.800000072"/>
      <point x="115.799999967" y="259.300000049" type="curve" smooth="yes"/>
      <point x="115.799999967" y="81.1000000015"/>
      <point x="244.399999991" y="-14.400000006"/>
    </contour>
    <contour>
      <point x="420.600000083" y="81.3000001386" type="curve" smooth="yes"/>
      <point x="331.200000092" y="81.3000001386"/>
      <point x="240.200000152" y="134.500000127"/>
      <point x="240.200000152" y="260.300000049" type="curve" smooth="yes"/>
      <point x="240.200000152" y="411.499999993"/>
      <point x="306.10000018" y="494.59999992"/>
      <point x="613.999999955" y="496.199999943" type="curve" smooth="yes"/>
      <point x="805.999999836" y="497.29999996" type="line"/>
      <point x="776.299999841" y="529.699999966" type="line"/>
      <point x="776.299999841" y="221.500000007" type="line"/>
      <point x="807.299999855" y="326.599999964" type="line"/>
      <point x="713.799999982" y="147.300000198"/>
      <point x="577.200000003" y="81.3000001386"/>
    </contour>
  </outline>
</glyph>
<glyph name="b" format="1">
  <advance width="1181.89999995"/>
  <unicode hex="0062"/>
  <outline>
    <contour>
      <point x="632.70000004" y="-18.0" type="curve" smooth="yes"/>
      <point x="916.29999999" y="-18.0"/>
      <point x="1065.50000001" y="182.200000033"/>
      <point x="1065.50000001" y="489.300000049" type="curve" smooth="yes"/>
      <point x="1065.50000001" y="801.900000028"/>
      <point x="928.099999987" y="1007.70000006"/>
      <point x="640.300000034" y="1007.70000006" type="curve" smooth="yes"/>
      <point x="472.900000073" y="1007.70000006"/>
      <point x="335.300000124" y="902.400000095"/>
      <point x="275.100000121" y="760.100000195" type="curve"/>
      <point x="305.100000121" y="758.300000168" type="line"/>
      <point x="305.70000013" y="994.40000014" type="line"/>
      <point x="305.70000013" y="1389.59999996" type="line"/>
      <point x="174.799999923" y="1378.99999996" type="line"/>
      <point x="174.799999923" y="0.10000000149" type="line"/>
      <point x="276.100000121" y="0.10000000149" type="line"/>
      <point x="294.200000137" y="280.799999818" type="line"/>
      <point x="249.500000142" y="277.199999794" type="line"/>
      <point x="288.700000174" y="159.59999983"/>
      <point x="410.600000188" y="-18.0"/>
    </contour>
    <contour>
      <point x="630.899999939" y="79.1000001654" type="curve" smooth="yes"/>
      <point x="428.200000063" y="79.1000001654"/>
      <point x="302.500000127" y="228.40000008"/>
      <point x="302.500000127" y="508.100000031" type="curve"/>
      <point x="301.800000131" y="740.800000027"/>
      <point x="401.100000121" y="910.699999891"/>
      <point x="638.599999934" y="910.699999891" type="curve" smooth="yes"/>
      <point x="862.599999771" y="910.699999891"/>
      <point x="937.299999796" y="726.70000004"/>
      <point x="937.299999796" y="490.800000042" type="curve" smooth="yes"/>
      <point x="937.299999796" y="244.100000061"/>
      <point x="851.299999781" y="79.1000001654"/>
    </contour>
  </outline>
</glyph>
<glyph name="c" format="1">
  <advance width="937.800000012"/>
  <unicode hex="0063"/>
  <outline>
    <contour>
      <point x="578.899999999" y="-18.0" type="curve" smooth="yes"/>
      <point x="697.300000109" y="-18.0"/>
      <point x="799.500000067" y="17.6000000387"/>
      <point x="836.00000006" y="47.8000000268" type="curve"/>
      <point x="807.500000052" y="130.900000192" type="line"/>
      <point x="762.600000009" y="105.300000168"/>
      <point x="677.800000027" y="79.0000001639"/>
      <point x="595.900000013" y="79.5000001714" type="curve" smooth="yes"/>
      <point x="353.700000174" y="80.2000001818"/>
      <point x="242.800000161" y="267.70000004"/>
      <point x="242.800000161" y="486.000000045" type="curve" smooth="yes"/>
      <point x="242.800000161" y="732.300000004"/>
      <point x="368.900000162" y="910.199999884"/>
      <point x="609.200000003" y="910.199999884" type="curve" smooth="yes"/>
      <point x="633.600000143" y="910.199999884"/>
      <point x="708.300000139" y="908.799999818"/>
      <point x="796.800000042" y="860.199999869" type="curve"/>
      <point x="837.000000075" y="943.700000025" type="line"/>
      <point x="778.400000036" y="979.00000006"/>
      <point x="688.700000025" y="1007.70000006"/>
      <point x="590.899999984" y="1007.70000006" type="curve" smooth="yes"/>
      <point x="308.499999993" y="1007.70000006"/>
      <point x="116.399999946" y="791.200000107"/>
      <point x="116.399999946" y="486.300000049" type="curve" smooth="yes"/>
      <point x="116.399999946" y="200.599999949"/>
      <point x="296.499999978" y="-18.0"/>
    </contour>
  </outline>
</glyph>
<glyph name="d" format="1">
  <advance width="1174.69999997"/>
  <unicode hex="0064"/>
  <outline>
    <contour>
      <point x="546.399999931" y="-17.8999999985" type="curve" smooth="yes"/>
      <point x="764.2999999" y="-17.8999999985"/>
      <point x="865.499999858" y="129.399999931"/>
      <point x="913.799999848" y="278.999999806" type="curve"/>
      <point x="879.099999823" y="282.5999998" type="line"/>
      <point x="895.999999851" y="0.0" type="line"/>
      <point x="999.900000043" y="0.0" type="line"/>
      <point x="999.900000043" y="1389.59999996" type="line"/>
      <point x="871.699999832" y="1378.99999996" type="line"/>
      <point x="871.699999832" y="1065.49999998" type="line"/>
      <point x="882.59999983" y="726.800000235" type="line"/>
      <point x="912.499999844" y="733.400000259" type="line"/>
      <point x="851.899999849" y="872.500000186"/>
      <point x="773.099999808" y="1007.70000006"/>
      <point x="543.699999936" y="1007.70000006" type="curve" smooth="yes"/>
      <point x="276.299999945" y="1007.70000006"/>
      <point x="116.399999946" y="799.900000043"/>
      <point x="116.399999946" y="500.800000027" type="curve" smooth="yes"/>
      <point x="116.399999946" y="186.500000022"/>
      <point x="261.99999997" y="-17.8999999985"/>
    </contour>
    <contour>
      <point x="548.400000021" y="79.1000001654" type="curve" smooth="yes"/>
      <point x="326.000000164" y="79.1000001654"/>
      <point x="244.600000158" y="262.400000021"/>
      <point x="244.600000158" y="498.500000022" type="curve" smooth="yes"/>
      <point x="244.600000158" y="745.900000013"/>
      <point x="338.10000018" y="910.499999888"/>
      <point x="555.800000027" y="910.499999888" type="curve" smooth="yes"/>
      <point x="756.199999914" y="910.499999888"/>
      <point x="875.499999844" y="753.600000009"/>
      <point x="875.499999844" y="483.500000022" type="curve"/>
      <point x="875.299999841" y="250.800000027"/>
      <point x="784.299999855" y="79.1000001654"/>
    </contour>
  </outline>
</glyph>
<glyph name="e" format="1">
  <advance width="1078.60000007"/>
  <unicode hex="0065"/>
  <outline>
    <contour>
      <point x="585.200000063" y="-18.0" type="curve" smooth="yes"/>
      <point x="730.40000008" y="-18.0"/>
      <point x="843.100000106" y="16.1999999881"/>
      <point x="937.300000109" y="69.1000000015" type="curve"/>
      <point x="903.200000107" y="153.700000159" type="line"/>
      <point x="794.600000218" y="100.500000216"/>
      <point x="704.700000174" y="80.400000155"/>
      <point x="601.100000076" y="80.400000155" type="curve" smooth="yes"/>
      <point x="401.100000121" y="80.400000155"/>
      <point x="239.40000017" y="201.900000118"/>
      <point x="239.500000171" y="509.099999972" type="curve"/>
      <point x="200.400000155" y="479.499999948" type="line"/>
      <point x="954.600000113" y="479.499999948" type="line"/>
      <point x="954.600000113" y="479.499999948"/>
      <point x="959.800000116" y="523.200000033"/>
      <point x="959.800000116" y="550.800000012" type="curve" smooth="yes"/>
      <point x="959.800000116" y="828.300000019"/>
      <point x="820.800000072" y="1007.70000006"/>
      <point x="576.900000013" y="1007.70000006" type="curve" smooth="yes"/>
      <point x="329.299999945" y="1007.60000005"/>
      <point x="116.399999946" y="813.800000027"/>
      <point x="116.399999946" y="487.70000004" type="curve" smooth="yes"/>
      <point x="116.399999946" y="172.200000018"/>
      <point x="311.599999994" y="-18.0"/>
    </contour>
    <contour>
      <point x="242.800000176" y="531.300000064" type="line"/>
      <point x="252.700000159" y="755.500000022"/>
      <point x="385.900000162" y="911.599999905"/>
      <point x="581.600000009" y="911.599999905" type="curve" smooth="yes"/>
      <point x="767.899999894" y="911.599999905"/>
      <point x="849.899999894" y="776.499999978"/>
      <point x="850.2999999" y="523.500000082" type="curve"/>
      <point x="897.399999887" y="563.500000082" type="line"/>
      <point x="200.600000158" y="563.500000082" type="line"/>
    </contour>
  </outline>
</glyph>
<glyph name="f" format="1">
  <advance width="705.800000072"/>
  <unicode hex="0066"/>
  <outline>
    <contour>
      <point x="262.199999928" y="0.0" type="line"/>
      <point x="390.40000014" y="0.0" type="line"/>
      <point x="390.40000014" y="942.099999927" type="line"/>
      <point x="350.40000014" y="910.999999881" type="line"/>
      <point x="626.500000142" y="910.999999881" type="line"/>
      <point x="626.500000142" y="989.000000045" type="line"/>
      <point x="351.200000122" y="989.000000045" type="line"/>
      <point x="390.40000014" y="963.200000003" type="line"/>
      <point x="390.40000014" y="1065.2" type="line" smooth="yes"/>
      <point x="390.40000014" y="1270.49999987"/>
      <point x="452.000000119" y="1294.79999986"/>
      <point x="550.200000092" y="1294.79999986" type="curve" smooth="yes"/>
      <point x="593.800000086" y="1294.79999986"/>
      <point x="654.500000067" y="1285.19999987"/>
      <point x="657.500000112" y="1284.69999986" type="curve"/>
      <point x="666.100000136" y="1372.50000002" type="line"/>
      <point x="659.400000036" y="1373.80000004"/>
      <point x="598.300000034" y="1387.00000003"/>
      <point x="525.800000057" y="1387.00000003" type="curve" smooth="yes"/>
      <point x="357.800000012" y="1387.00000003"/>
      <point x="262.199999928" y="1300.80000006"/>
      <point x="262.199999928" y="1059.49999998" type="curve" smooth="yes"/>
      <point x="262.199999928" y="963.0" type="line"/>
      <point x="302.699999936" y="992.100000046" type="line"/>
      <point x="77.1000000015" y="972.800000042" type="line"/>
      <point x="72.1000000015" y="910.999999881" type="line"/>
      <point x="293.199999943" y="910.999999881" type="line"/>
      <point x="262.199999928" y="944.29999993" type="line"/>
    </contour>
  </outline>
</glyph>
<glyph name="g" format="1">
  <advance width="1194.89999992"/>
  <unicode hex="0067"/>
  <outline>
    <contour>
      <point x="568.499999978" y="97.8000001609" type="curve" smooth="yes"/>
      <point x="325.500000097" y="97.8000001609"/>
      <point x="242.70000013" y="326.70000001"/>
      <point x="242.70000013" y="493.600000054" type="curve" smooth="yes"/>
      <point x="242.70000013" y="680.900000058"/>
      <point x="326.000000119" y="910.499999888"/>
      <point x="572.099999987" y="910.499999888" type="curve"/>
      <point x="816.399999842" y="910.499999888"/>
      <point x="902.5999998" y="746.499999978"/>
      <point x="902.5999998" y="546.799999982" type="curve" smooth="yes"/>
      <point x="902.5999998" y="446.800000101" type="line"/>
      <point x="902.399999797" y="272.600000083"/>
      <point x="807.799999863" y="97.8000001609"/>
    </contour>
    <contour>
      <point x="490.29999993" y="-421.900000103" type="curve" smooth="yes"/>
      <point x="892.399999872" y="-421.900000103"/>
      <point x="1029.7" y="-192.900000118"/>
      <point x="1029.7" y="91.3000000343" type="curve" smooth="yes"/>
      <point x="1029.7" y="989.000000045" type="line"/>
      <point x="910.699999817" y="989.000000045" type="line"/>
      <point x="897.199999809" y="771.100000121" type="line"/>
      <point x="928.599999815" y="772.000000134" type="line"/>
      <point x="880.5999998" y="908.600000143"/>
      <point x="762.299999811" y="1007.70000006"/>
      <point x="573.599999905" y="1007.70000006" type="curve" smooth="yes"/>
      <point x="236.900000073" y="1007.70000006"/>
      <point x="114.499999918" y="743.300000183"/>
      <point x="114.499999918" y="484.800000057" type="curve" smooth="yes"/>
      <point x="114.499999918" y="266.999999911"/>
      <point x="243.500000007" y="0.0"/>
      <point x="560.199999914" y="0.0" type="curve" smooth="yes"/>
      <point x="774.699999787" y="0.0"/>
      <point x="902.099999793" y="131.699999847"/>
      <point x="937.699999817" y="265.999999955" type="curve"/>
      <point x="902.299999796" y="265.199999973" type="line"/>
      <point x="902.299999796" y="81.0999998823" type="line" smooth="yes"/>
      <point x="902.299999796" y="-185.899999954"/>
      <point x="790.999999776" y="-322.499999933"/>
      <point x="479.299999945" y="-322.499999933" type="curve" smooth="yes"/>
      <point x="462.599999964" y="-322.499999933"/>
      <point x="442.899832234" y="-322.512948956"/>
      <point x="279.999999881" y="-315.699999936" type="curve"/>
      <point x="279.999999881" y="-415.100000106" type="line"/>
      <point x="464.499815903" y="-421.916050928"/>
      <point x="477.899999939" y="-421.900000103"/>
    </contour>
  </outline>
</glyph>
<glyph name="h" format="1">
  <advance width="1134.40000001"/>
  <unicode hex="0068"/>
  <outline>
    <contour>
      <point x="174.799999923" y="0.0" type="line"/>
      <point x="302.70000013" y="0.0" type="line"/>
      <point x="302.70000013" y="559.399999887" type="line" smooth="yes"/>
      <point x="302.70000013" y="722.399999961"/>
      <point x="367.100000091" y="910.59999989"/>
      <point x="619.999999985" y="910.59999989" type="curve" smooth="yes"/>
      <point x="782.699999906" y="910.59999989"/>
      <point x="841.399999872" y="808.299999945"/>
      <point x="841.399999872" y="607.200000018" type="curve" smooth="yes"/>
      <point x="841.399999872" y="0.0" type="line"/>
      <point x="969.600000083" y="0.0" type="line"/>
      <point x="969.600000083" y="608.600000054" type="line" smooth="yes"/>
      <point x="969.600000083" y="857.7000001"/>
      <point x="859.400000036" y="1007.70000006"/>
      <point x="640.000000045" y="1007.70000006" type="curve" smooth="yes"/>
      <point x="460.900000103" y="1007.70000006"/>
      <point x="322.900000118" y="923.70000007"/>
      <point x="262.000000104" y="763.500000156" type="curve"/>
      <point x="296.600000128" y="752.500000142" type="line"/>
      <point x="303.000000134" y="1036.30000011" type="line"/>
      <point x="303.000000134" y="1389.59999996" type="line"/>
      <point x="174.799999923" y="1378.99999996" type="line"/>
    </contour>
  </outline>
</glyph>
<glyph name="j" format="1">
  <advance width="507.100000091"/>
  <unicode hex="006A"/>
  <outline>
    <contour>
      <point x="41.899999924" y="-407.799999952" type="line"/>
      <point x="82.9999999553" y="-407.799999952" type="line" smooth="yes"/>
      <point x="290.300000139" y="-407.799999952"/>
      <point x="341.500000156" y="-347.099999823"/>
      <point x="341.500000156" y="-121.099999733" type="curve" smooth="yes"/>
      <point x="341.500000156" y="989.100000046" type="line"/>
      <point x="211.799999952" y="989.100000046" type="line"/>
      <point x="211.799999952" y="-75.9999998808" type="line" smooth="yes"/>
      <point x="211.799999952" y="-257.89999982"/>
      <point x="209.599999934" y="-291.399999827"/>
      <point x="66.7999999374" y="-291.399999827" type="curve" smooth="yes"/>
      <point x="27.2999999002" y="-291.399999827" type="line"/>
    </contour>
    <contour>
      <point x="211.799999952" y="1203.79999992" type="line"/>
      <point x="341.500000156" y="1203.79999992" type="line"/>
      <point x="341.500000156" y="1353.8" type="line"/>
      <point x="211.799999952" y="1353.8" type="line"/>
    </contour>
  </outline>
</glyph>
<glyph name="k" format="1">
  <advance width="1028.70000011"/>
  <unicode hex="006B"/>
  <outline>
    <contour>
      <point x="174.799999923" y="0.0" type="line"/>
      <point x="303.000000134" y="0.0" type="line"/>
      <point x="303.000000134" y="395.800000042" type="line"/>
      <point x="268.200000092" y="324.599999949" type="line"/>
      <point x="455.300000094" y="493.699999966" type="line"/>
      <point x="398.500000067" y="493.699999966" type="line"/>
      <point x="844.599999905" y="0.0" type="line"/>
      <point x="993.500000156" y="0.0" type="line"/>
      <point x="478.000000253" y="561.900000088" type="line"/>
      <point x="478.000000253" y="503.699999996" type="line"/>
      <point x="985.70000013" y="989.000000045" type="line"/>
      <point x="833.699999847" y="989.000000045" type="line"/>
      <point x="264.700000115" y="444.40000014" type="line"/>
      <point x="296.900000133" y="444.40000014" type="line"/>
      <point x="303.000000134" y="669.800000191" type="line"/>
      <point x="303.000000134" y="1389.59999996" type="line"/>
      <point x="174.799999923" y="1378.99999996" type="line"/>
    </contour>
  </outline>
</glyph>
<glyph name="l" format="1">
  <advance width="570.200000182"/>
  <unicode hex="006C"/>
  <outline>
    <contour>
      <point x="440.200000122" y="-10.3000000045" type="curve" smooth="yes"/>
      <point x="505.300000139" y="-10.3000000045"/>
      <point x="557.000000164" y="-2.19999998808"/>
      <point x="575.700000145" y="0.800000011921" type="curve"/>
      <point x="575.700000145" y="89.0000001639" type="line"/>
      <point x="565.500000127" y="87.9000001624"/>
      <point x="512.800000116" y="81.7000001594"/>
      <point x="462.200000152" y="81.7000001594" type="curve" smooth="yes"/>
      <point x="342.10000021" y="81.7000001594"/>
      <point x="303.200000137" y="127.900000118"/>
      <point x="303.200000137" y="250.600000232" type="curve" smooth="yes"/>
      <point x="303.200000137" y="1389.59999996" type="line"/>
      <point x="174.999999925" y="1378.99999996" type="line"/>
      <point x="174.999999925" y="257.900000237" type="line" smooth="yes"/>
      <point x="174.999999925" y="37.6000001431"/>
      <point x="302.699999891" y="-10.3000000045"/>
    </contour>
  </outline>
</glyph>
<glyph name="m" format="1">
  <advance width="1672.70000004"/>
  <unicode hex="006D"/>
  <outline>
    <contour>
      <point x="174.799999923" y="0.0" type="line"/>
      <point x="303.000000134" y="0.0" type="line"/>
      <point x="303.000000134" y="637.099999763" type="line" smooth="yes"/>
      <point x="334.500000082" y="791.199999839"/>
      <point x="435.799999952" y="910.59999989"/>
      <point x="589.200000003" y="910.59999989" type="curve" smooth="yes"/>
      <point x="739.499999948" y="910.59999989"/>
      <point x="783.799999908" y="803.499999918"/>
      <point x="783.799999908" y="549.500000067" type="curve" smooth="yes"/>
      <point x="783.799999908" y="0.0" type="line"/>
      <point x="912.000000119" y="0.0" type="line"/>
      <point x="912.000000119" y="487.10000018" type="line"/>
      <point x="912.568953529" y="573.752434405"/>
      <point x="911.733728238" y="625.046533837"/>
      <point x="917.446022065" y="649.285187862" type="curve" smooth="yes"/>
      <point x="956.152990936" y="826.707880941"/>
      <point x="1077.11896646" y="910.59999989"/>
      <point x="1197.19999997" y="910.59999989" type="curve" smooth="yes"/>
      <point x="1394.09999984" y="910.59999989"/>
      <point x="1379.69999991" y="700.800000101"/>
      <point x="1379.69999991" y="562.800000027" type="curve" smooth="yes"/>
      <point x="1379.69999991" y="0.0" type="line"/>
      <point x="1507.90000012" y="0.0" type="line"/>
      <point x="1507.90000012" y="639.70000001" type="line" smooth="yes"/>
      <point x="1507.90000012" y="880.800000027"/>
      <point x="1411.10000011" y="1007.70000006"/>
      <point x="1212.20000005" y="1007.70000006" type="curve" smooth="yes"/>
      <point x="1028.20000014" y="1007.70000006"/>
      <point x="916.300000124" y="896.40000014"/>
      <point x="855.100000091" y="745.300000168" type="curve"/>
      <point x="887.800000131" y="745.300000168" type="line"/>
      <point x="854.600000083" y="876.500000171"/>
      <point x="794.000000045" y="1007.70000006"/>
      <point x="600.300000109" y="1007.70000006" type="curve" smooth="yes"/>
      <point x="442.000000075" y="1007.70000006"/>
      <point x="329.40000008" y="910.400000066"/>
      <point x="260.600000098" y="770.900000133" type="curve"/>
      <point x="301.000000119" y="760.40000014" type="line"/>
      <point x="278.400000095" y="989.000000045" type="line"/>
      <point x="174.799999923" y="989.000000045" type="line"/>
    </contour>
  </outline>
</glyph>
<glyph name="n" format="1">
  <advance width="1132.70000007"/>
  <unicode hex="006E"/>
  <outline>
    <contour>
      <point x="174.799999923" y="0.0" type="line"/>
      <point x="303.000000134" y="0.0" type="line"/>
      <point x="303.000000134" y="570.699999876" type="line" smooth="yes"/>
      <point x="303.000000134" y="741.399999946"/>
      <point x="369.800000131" y="910.59999989"/>
      <point x="623.300000034" y="910.59999989" type="curve" smooth="yes"/>
      <point x="792.499999963" y="910.59999989"/>
      <point x="840.499999933" y="801.499999933"/>
      <point x="839.699999936" y="628.199999973" type="curve"/>
      <point x="839.699999936" y="0.0" type="line"/>
      <point x="967.900000148" y="0.0" type="line"/>
      <point x="967.900000148" y="598.600000069" type="line" smooth="yes"/>
      <point x="967.900000148" y="874.800000027"/>
      <point x="866.600000128" y="1007.70000006"/>
      <point x="639.700000115" y="1007.70000006" type="curve" smooth="yes"/>
      <point x="446.500000142" y="1007.70000006"/>
      <point x="332.400000125" y="918.900000073"/>
      <point x="275.000000075" y="791.500000082" type="curve"/>
      <point x="310.800000101" y="791.500000082" type="line"/>
      <point x="290.100000076" y="989.000000045" type="line"/>
      <point x="174.799999923" y="989.000000045" type="line"/>
    </contour>
  </outline>
</glyph>
<glyph name="o" format="1">
  <advance width="1151.80000003"/>
  <unicode hex="006F"/>
  <outline>
    <contour>
      <point x="575.900000013" y="79.0000001639" type="curve" smooth="yes"/>
      <point x="352.900000133" y="79.0000001639"/>
      <point x="242.800000161" y="262.200000048"/>
      <point x="242.800000161" y="490.400000036" type="curve" smooth="yes"/>
      <point x="242.800000161" y="726.400000006"/>
      <point x="353.100000136" y="910.59999989"/>
      <point x="575.900000013" y="910.59999989" type="curve" smooth="yes"/>
      <point x="804.299999885" y="910.59999989"/>
      <point x="908.999999866" y="725.500000007"/>
      <point x="908.999999866" y="489.500000037" type="curve" smooth="yes"/>
      <point x="908.999999866" y="262.000000045"/>
      <point x="806.899999879" y="79.0000001639"/>
    </contour>
    <contour>
      <point x="575.900000013" y="-18.0" type="curve" smooth="yes"/>
      <point x="847.900000073" y="-18.0"/>
      <point x="1035.40000008" y="201.199999973"/>
      <point x="1035.40000008" y="492.200000033" type="curve" smooth="yes"/>
      <point x="1035.40000008" y="794.500000067"/>
      <point x="869.300000019" y="1007.70000006"/>
      <point x="575.900000013" y="1007.70000006" type="curve" smooth="yes"/>
      <point x="288.599999979" y="1007.70000006"/>
      <point x="116.399999946" y="790.800000086"/>
      <point x="116.399999946" y="492.200000033" type="curve" smooth="yes"/>
      <point x="116.399999946" y="198.999999985"/>
      <point x="289.899999999" y="-18.0"/>
    </contour>
  </outline>
</glyph>
<glyph name="p" format="1">
  <advance width="1174.99999997"/>
  <unicode hex="0070"/>
  <outline>
    <contour>
      <point x="175.099999927" y="-444.899999939" type="line"/>
      <point x="303.300000139" y="-436.399999931" type="line"/>
      <point x="303.300000139" y="-74.3999999017" type="line"/>
      <point x="291.900000148" y="309.89999979" type="line"/>
      <point x="257.300000124" y="280.499999799" type="line"/>
      <point x="306.000000104" y="134.699999936"/>
      <point x="426.900000088" y="-18.0"/>
      <point x="638.800000027" y="-18.0" type="curve" smooth="yes"/>
      <point x="906.000000015" y="-18.0"/>
      <point x="1058.60000002" y="189.900000028"/>
      <point x="1058.60000002" y="488.70000004" type="curve" smooth="yes"/>
      <point x="1058.60000002" y="800.600000009"/>
      <point x="916.800000012" y="1007.70000006"/>
      <point x="633.70000007" y="1007.70000006" type="curve" smooth="yes"/>
      <point x="452.600000158" y="1007.70000006"/>
      <point x="326.200000137" y="895.700000145"/>
      <point x="270.900000088" y="739.500000171" type="curve"/>
      <point x="297.000000149" y="735.000000179" type="line"/>
      <point x="279.100000121" y="989.000000045" type="line"/>
      <point x="175.099999927" y="989.000000045" type="line"/>
    </contour>
    <contour>
      <point x="621.399999976" y="79.1000001654" type="curve" smooth="yes"/>
      <point x="419.800000072" y="79.1000001654"/>
      <point x="300.40000014" y="245.500000052"/>
      <point x="300.40000014" y="507.500000037" type="curve"/>
      <point x="300.600000143" y="737.900000028"/>
      <point x="396.800000116" y="910.59999989"/>
      <point x="631.799999952" y="910.59999989" type="curve" smooth="yes"/>
      <point x="853.299999796" y="910.59999989"/>
      <point x="930.399999812" y="726.200000033"/>
      <point x="930.399999812" y="490.70000004" type="curve" smooth="yes"/>
      <point x="930.399999812" y="245.100000076"/>
      <point x="839.199999824" y="79.1000001654"/>
    </contour>
  </outline>
</glyph>
<glyph name="q" format="1">
  <advance width="1212.4999999"/>
  <unicode hex="0071"/>
  <outline>
    <contour>
      <point x="911.299999766" y="-444.899999939" type="line"/>
      <point x="1037.69999998" y="-437.999999925" type="line"/>
      <point x="1037.69999998" y="989.000000045" type="line"/>
      <point x="919.799999803" y="989.000000045" type="line"/>
      <point x="898.399999797" y="754.600000143" type="line"/>
      <point x="924.999999836" y="759.000000164" type="line"/>
      <point x="866.799999848" y="904.100000061"/>
      <point x="751.999999896" y="1007.70000006"/>
      <point x="560.099999912" y="1007.70000006" type="curve" smooth="yes"/>
      <point x="277.29999993" y="1007.70000006"/>
      <point x="116.399999946" y="791.800000042"/>
      <point x="116.399999946" y="484.200000048" type="curve" smooth="yes"/>
      <point x="116.399999946" y="193.000000015"/>
      <point x="295.199999928" y="-18.0"/>
      <point x="555.999999925" y="-18.0" type="curve" smooth="yes"/>
      <point x="798.299999766" y="-18.0"/>
      <point x="905.699999757" y="130.29999987"/>
      <point x="949.999999806" y="276.899999835" type="curve"/>
      <point x="918.199999765" y="294.199999839" type="line"/>
      <point x="911.299999766" y="-90.1999998242" type="line"/>
    </contour>
    <contour>
      <point x="574.099999972" y="78.9000001624" type="curve" smooth="yes"/>
      <point x="349.300000124" y="78.9000001624"/>
      <point x="242.800000161" y="250.600000054"/>
      <point x="242.800000161" y="494.800000027" type="curve" smooth="yes"/>
      <point x="242.800000161" y="728.700000025"/>
      <point x="342.40000014" y="910.499999888"/>
      <point x="575.599999964" y="910.499999888" type="curve" smooth="yes"/>
      <point x="816.899999805" y="910.499999888"/>
      <point x="905.099999793" y="746.0"/>
      <point x="905.099999793" y="526.499999948" type="curve"/>
      <point x="907.499999784" y="254.000000015"/>
      <point x="832.799999774" y="78.9000001624"/>
    </contour>
  </outline>
</glyph>
<glyph name="r" format="1">
  <advance width="758.900000043"/>
  <unicode hex="0072"/>
  <outline>
    <contour>
      <point x="174.999999925" y="0.0" type="line"/>
      <point x="303.200000137" y="0.0" type="line"/>
      <point x="303.200000137" y="566.299999975" type="line" smooth="yes"/>
      <point x="303.200000137" y="743.899999939"/>
      <point x="435.900000088" y="899.699999847"/>
      <point x="610.600000083" y="899.699999847" type="curve" smooth="yes"/>
      <point x="630.300000094" y="899.699999847"/>
      <point x="654.400000095" y="897.699999847"/>
      <point x="675.700000115" y="892.599999845" type="curve"/>
      <point x="683.300000109" y="995.200000033" type="line"/>
      <point x="662.600000098" y="998.500000037"/>
      <point x="635.300000109" y="1000.30000003"/>
      <point x="606.000000119" y="1000.30000003" type="curve" smooth="yes"/>
      <point x="478.100000136" y="1000.30000003"/>
      <point x="341.100000136" y="918.900000058"/>
      <point x="263.200000107" y="718.600000143" type="curve"/>
      <point x="292.400000155" y="713.900000133" type="line"/>
      <point x="274.000000119" y="989.000000045" type="line"/>
      <point x="174.999999925" y="989.000000045" type="line"/>
    </contour>
  </outline>
</glyph>
<glyph name="s" format="1">
  <advance width="900.600000069"/>
  <unicode hex="0073"/>
  <outline>
    <contour>
      <point x="453.100000046" y="-17.8999999985" type="curve" smooth="yes"/>
      <point x="665.000000089" y="-17.8999999985"/>
      <point x="793.900000103" y="73.7349300418"/>
      <point x="793.900000103" y="250.200000092" type="curve" smooth="yes"/>
      <point x="793.900000103" y="396.700000115"/>
      <point x="738.700000025" y="476.600000098"/>
      <point x="511.300000124" y="549.000000104" type="curve" smooth="yes"/>
      <point x="412.200000197" y="580.300000094" type="line" smooth="yes"/>
      <point x="279.890100207" y="624.025900116"/>
      <point x="245.500000186" y="662.200000077"/>
      <point x="245.500000186" y="758.100000016" type="curve" smooth="yes"/>
      <point x="245.500000186" y="845.899999969"/>
      <point x="327.40000014" y="911.599999905"/>
      <point x="481.800000027" y="911.599999905" type="curve" smooth="yes"/>
      <point x="585.200000003" y="911.599999905"/>
      <point x="650.600000069" y="888.199999884"/>
      <point x="711.100000091" y="861.099999867" type="curve"/>
      <point x="743.900000133" y="954.799999997" type="line"/>
      <point x="660.7000001" y="991.500000022"/>
      <point x="588.500000037" y="1007.70000006"/>
      <point x="470.100000031" y="1007.70000006" type="curve" smooth="yes"/>
      <point x="251.500000022" y="1007.70000006"/>
      <point x="132.799999997" y="892.300000079"/>
      <point x="132.799999997" y="743.500000007" type="curve"/>
      <point x="132.899999999" y="632.795499923"/>
      <point x="181.100000046" y="546.699999966"/>
      <point x="367.100000016" y="487.499999933" type="curve"/>
      <point x="464.099999942" y="456.99999994" type="line" smooth="yes"/>
      <point x="647.162099837" y="399.009699937"/>
      <point x="682.399999887" y="348.099999987"/>
      <point x="682.399999887" y="248.000000045" type="curve"/>
      <point x="682.199999884" y="137.40000011"/>
      <point x="615.699999936" y="78.200000152"/>
      <point x="459.400000036" y="77.9000001475" type="curve" smooth="yes"/>
      <point x="323.400000095" y="77.6000001431"/>
      <point x="235.600000009" y="110.900000192"/>
      <point x="182.199999973" y="132.10000024" type="curve"/>
      <point x="150.699999951" y="42.3000000939" type="line"/>
      <point x="187.799999923" y="23.6000000983"/>
      <point x="312.999999955" y="-17.8999999985"/>
    </contour>
  </outline>
</glyph>
<glyph name="t" format="1">
  <advance width="753.000000134"/>
  <unicode hex="0074"/>
  <outline>
    <contour>
      <point x="494.500000127" y="-10.3000000045" type="curve" smooth="yes"/>
      <point x="592.200000137" y="-10.3000000045"/>
      <point x="655.000000194" y="6.20000001788"/>
      <point x="655.800000206" y="6.50000002235" type="curve"/>
      <point x="655.800000206" y="89.3000001684" type="line"/>
      <point x="655.300000198" y="89.0000001639"/>
      <point x="582.200000167" y="78.400000155"/>
      <point x="516.900000177" y="78.400000155" type="curve" smooth="yes"/>
      <point x="418.800000176" y="78.400000155"/>
      <point x="354.10000018" y="117.600000173"/>
      <point x="354.10000018" y="277.10000018" type="curve" smooth="yes"/>
      <point x="354.10000018" y="941.499999933" type="line"/>
      <point x="323.100000165" y="912.2999999" type="line"/>
      <point x="654.300000139" y="912.2999999" type="line"/>
      <point x="654.300000139" y="989.000000045" type="line"/>
      <point x="323.000000164" y="989.000000045" type="line"/>
      <point x="354.10000018" y="957.500000007" type="line"/>
      <point x="354.10000018" y="1242.80000004" type="line"/>
      <point x="268.400000021" y="1238.30000005" type="line"/>
      <point x="227.099999972" y="968.0" type="line"/>
      <point x="258.800000042" y="992.000000045" type="line"/>
      <point x="86.9999999553" y="979.70000004" type="line"/>
      <point x="85.5999999344" y="912.399999902" type="line"/>
      <point x="256.899999984" y="912.399999902" type="line"/>
      <point x="225.899999969" y="942.499999933" type="line"/>
      <point x="225.899999969" y="274.100000195" type="line"/>
      <point x="225.99999997" y="73.8000000864"/>
      <point x="332.799999952" y="-10.3000000045"/>
    </contour>
  </outline>
</glyph>
<glyph name="v" format="1">
  <advance width="1006.10000011"/>
  <unicode hex="0076"/>
  <outline>
    <contour>
      <point x="438.299999975" y="0.0" type="line"/>
      <point x="571.800000161" y="0.0" type="line"/>
      <point x="947.700000159" y="989.000000045" type="line"/>
      <point x="819.199999928" y="989.000000045" type="line"/>
      <point x="611.699999981" y="415.200000092" type="line"/>
      <point x="485.800000072" y="71.100000225" type="line"/>
      <point x="524.300000079" y="71.100000225" type="line"/>
      <point x="397.900000148" y="412.600000098" type="line"/>
      <point x="187.200000182" y="989.000000045" type="line"/>
      <point x="58.3999999464" y="989.000000045" type="line"/>
    </contour>
  </outline>
</glyph>
<glyph name="w" format="1">
  <advance width="1459.40000015"/>
  <unicode hex="0077"/>
  <outline>
    <contour>
      <point x="336.799999967" y="0.0" type="line"/>
      <point x="460.200000167" y="0.0" type="line"/>
      <point x="745.900000088" y="936.799999818" type="line"/>
      <point x="718.900000058" y="936.799999818" type="line"/>
      <point x="1030.19999991" y="0.0" type="line"/>
      <point x="1138.50000014" y="0.0" type="line"/>
      <point x="1397.40000021" y="989.000000045" type="line"/>
      <point x="1282.8" y="989.000000045" type="line"/>
      <point x="1067.10000002" y="74.8000002652" type="line"/>
      <point x="1100.60000002" y="74.8000002652" type="line"/>
      <point x="802.600000173" y="989.000000045" type="line"/>
      <point x="660.199999988" y="989.000000045" type="line"/>
      <point x="382.800000086" y="74.8000002652" type="line"/>
      <point x="414.100000091" y="74.8000002652" type="line"/>
      <point x="180.500000156" y="989.000000045" type="line"/>
      <point x="61.9999999404" y="989.000000045" type="line"/>
    </contour>
  </outline>
</glyph>
<glyph name="x" format="1">
  <advance width="999.000000149"/>
  <unicode hex="0078"/>
  <outline>
    <contour>
      <point x="42.9999999851" y="0.0" type="line"/>
      <point x="185.000000224" y="0.0" type="line"/>
      <point x="515.40000008" y="431.399999902" type="line"/>
      <point x="559.000000179" y="467.100000001" type="line"/>
      <point x="939.300000168" y="989.000000045" type="line"/>
      <point x="797.29999993" y="989.000000045" type="line"/>
      <point x="483.300000064" y="552.600000188" type="line"/>
      <point x="442.799999952" y="526.200000063" type="line"/>
    </contour>
    <contour>
      <point x="799.099999942" y="0.0" type="line"/>
      <point x="939.800000191" y="0.0" type="line"/>
      <point x="212.800000206" y="989.000000045" type="line"/>
      <point x="70.5999999642" y="989.000000045" type="line"/>
    </contour>
  </outline>
</glyph>
<glyph name="y" format="1">
  <advance width="1010.10000008"/>
  <unicode hex="0079"/>
  <outline>
    <contour>
      <point x="434.600000143" y="-374.200000003" type="line"/>
      <point x="962.500000112" y="989.000000045" type="line"/>
      <point x="839.599999875" y="989.000000045" type="line"/>
      <point x="513.800000027" y="123.4000002" type="line"/>
      <point x="548.500000052" y="123.4000002" type="line"/>
      <point x="202.800000176" y="989.000000045" type="line"/>
      <point x="72.7999999523" y="989.000000045" type="line"/>
      <point x="494.099999942" y="-31.6000000238" type="line"/>
      <point x="494.099999942" y="77.6000000387" type="line"/>
      <point x="327.399999931" y="-358.499999978" type="line"/>
    </contour>
  </outline>
</glyph>
<glyph name="z" format="1">
  <advance width="868.500000156"/>
  <unicode hex="007A"/>
  <outline>
    <contour>
      <point x="112.999999985" y="0.0" type="line"/>
      <point x="764.200000182" y="0.0" type="line"/>
      <point x="764.200000182" y="89.4000001699" type="line"/>
      <point x="184.200000271" y="89.4000001699" type="line"/>
      <point x="206.700000264" y="36.4000001401" type="line"/>
      <point x="758.100000165" y="901.199999899" type="line"/>
      <point x="758.100000165" y="989.000000045" type="line"/>
      <point x="133.199999988" y="989.000000045" type="line"/>
      <point x="133.199999988" y="900.399999887" type="line"/>
      <point x="685.999999925" y="900.399999887" type="line"/>
      <point x="664.499999918" y="948.999999911" type="line"/>
      <point x="112.999999985" y="85.1000001207" type="line"/>
    </contour>
  </outline>
</glyph>
<glyph name="braceleft" format="1">
  <advance width="745.899999909"/>
  <unicode hex="007B"/>
  <outline>
    <contour>
      <point x="588.600000069" y="-261.199999973" type="line" smooth="yes"/>
      <point x="378.399999991" y="-261.199999973"/>
      <point x="308.399999887" y="-135.600000083"/>
      <point x="308.399999887" y="67.7999999374" type="curve" smooth="yes"/>
      <point x="308.399999887" y="223.000000089" type="line" smooth="yes"/>
      <point x="308.399999887" y="390.500000037"/>
      <point x="293.999999851" y="521.899999894"/>
      <point x="110.199999899" y="524.59999989" type="curve" smooth="yes"/>
      <point x="110.199999899" y="616.100000091" type="line"/>
      <point x="289.29999987" y="616.200000092"/>
      <point x="308.399999887" y="752.399999931"/>
      <point x="308.399999887" y="916.499999888" type="curve" smooth="yes"/>
      <point x="308.399999887" y="1120.09999999" type="line" smooth="yes"/>
      <point x="308.399999887" y="1295.30000005"/>
      <point x="403.099999957" y="1407.29999996"/>
      <point x="588.600000069" y="1408.19999996" type="curve" smooth="yes"/>
      <point x="588.600000069" y="1317.99999978" type="line"/>
      <point x="453.600000083" y="1315.99999978"/>
      <point x="404.000000134" y="1254.39999983"/>
      <point x="404.000000134" y="1081.09999993" type="curve" smooth="yes"/>
      <point x="404.000000134" y="839.199999928" type="line"/>
      <point x="403.800000131" y="726.399999917"/>
      <point x="371.7000001" y="674.199999899"/>
      <point x="236.100000136" y="565.799999997" type="curve"/>
      <point x="363.7000001" y="530.300000004"/>
      <point x="404.900000133" y="407.900000088"/>
      <point x="404.000000134" y="305.800000057" type="curve" smooth="yes"/>
      <point x="404.000000134" y="64.6000000536" type="line" smooth="yes"/>
      <point x="404.000000134" y="-102.399999857"/>
      <point x="450.800000086" y="-171.89999979"/>
      <point x="588.600000069" y="-173.89999979" type="curve"/>
    </contour>
  </outline>
</glyph>
<glyph name="bar" format="1">
  <advance width="248.60000059"/>
  <unicode hex="007C"/>
  <outline>
    <contour>
      <point x="74.4000002295" y="-368.499999814" type="line"/>
      <point x="74.4000002295" y="1456.9" type="line"/>
      <point x="166.50000041" y="1456.9" type="line"/>
      <point x="166.50000041" y="-368.499999814" type="line"/>
    </contour>
  </outline>
</glyph>
<glyph name="braceright" format="1">
  <advance width="745.899999909"/>
  <unicode hex="007D"/>
  <outline>
    <contour>
      <point x="113.299999945" y="-261.199999973" type="curve"/>
      <point x="113.299999945" y="-171.199999794" type="line"/>
      <point x="248.29999993" y="-169.199999794"/>
      <point x="297.799999878" y="-107.899999849"/>
      <point x="297.799999878" y="65.5000000522" type="curve" smooth="yes"/>
      <point x="297.799999878" y="307.600000054" type="line" smooth="yes"/>
      <point x="297.799999878" y="420.600000069"/>
      <point x="330.59999992" y="472.800000086"/>
      <point x="465.799999878" y="580.199999973" type="curve"/>
      <point x="337.699999906" y="616.699999981"/>
      <point x="297.099999882" y="738.899999894"/>
      <point x="297.799999878" y="840.999999925" type="curve"/>
      <point x="297.799999878" y="1081.99999993" type="line" smooth="yes"/>
      <point x="297.799999878" y="1249.09999984"/>
      <point x="251.099999927" y="1318.69999977"/>
      <point x="113.299999945" y="1320.69999977" type="curve"/>
      <point x="113.299999945" y="1408.19999996" type="line"/>
      <point x="323.400000021" y="1408.19999996"/>
      <point x="393.400000125" y="1282.80000007"/>
      <point x="393.400000125" y="1078.80000004" type="curve" smooth="yes"/>
      <point x="393.400000125" y="922.699999876" type="line" smooth="yes"/>
      <point x="393.400000125" y="755.199999928"/>
      <point x="407.300000153" y="624.300000079"/>
      <point x="591.700000115" y="621.500000082" type="curve"/>
      <point x="591.700000115" y="529.999999881" type="line"/>
      <point x="413.300000153" y="529.999999881"/>
      <point x="393.400000125" y="393.500000037"/>
      <point x="393.400000125" y="229.300000079" type="curve" smooth="yes"/>
      <point x="393.400000125" y="26.4999999925" type="line" smooth="yes"/>
      <point x="393.400000125" y="-148.500000067"/>
      <point x="299.400000066" y="-260.299999975"/>
    </contour>
  </outline>
</glyph>
<glyph name="asciitilde" format="1">
  <advance width="1128.20000002"/>
  <unicode hex="007E"/>
  <outline>
    <contour>
      <point x="118.600000128" y="469.899999939" type="curve"/>
      <point x="93.1000000313" y="544.000000045" type="line"/>
      <point x="133.800000042" y="647.200000033"/>
      <point x="216.300000034" y="724.800000042"/>
      <point x="330.900000073" y="724.800000042" type="curve" smooth="yes"/>
      <point x="404.40000008" y="724.800000042"/>
      <point x="450.300000139" y="706.00000003"/>
      <point x="548.800000101" y="662.200000048" type="curve" smooth="yes"/>
      <point x="640.40000008" y="623.600000054"/>
      <point x="720.000000045" y="582.800000086"/>
      <point x="778.100000031" y="582.800000086" type="curve" smooth="yes"/>
      <point x="857.70000001" y="582.800000086"/>
      <point x="935.799999982" y="659.200000018"/>
      <point x="961.200000063" y="736.800000027" type="curve"/>
      <point x="996.900000133" y="670.399999917" type="line"/>
      <point x="951.600000128" y="549.799999967"/>
      <point x="889.800000042" y="483.499999933"/>
      <point x="779.400000006" y="483.499999933" type="curve" smooth="yes"/>
      <point x="721.199999958" y="483.499999933"/>
      <point x="652.699999966" y="508.699999936"/>
      <point x="578.499999948" y="542.199999943" type="curve"/>
      <point x="471.200000018" y="589.399999917"/>
      <point x="395.00000006" y="623.999999896"/>
      <point x="329.200000063" y="623.999999896" type="curve" smooth="yes"/>
      <point x="244.900000073" y="623.999999896"/>
      <point x="164.500000112" y="554.899999909"/>
    </contour>
  </outline>
</glyph>
<glyph name="cent" format="1">
  <advance width="937.0"/>
  <unicode hex="00A2"/>
  <outline>
    <contour>
      <point x="546.000000045" y="-146.0" type="line"/>
      <point x="621.00000006" y="-146.0" type="line"/>
      <point x="621.00000006" y="1156.0" type="line"/>
      <point x="546.000000045" y="1156.0" type="line"/>
    </contour>
    <component base="c"/>
  </outline>
</glyph>
<glyph name="sterling" format="1">
  <advance width="1110.39999983"/>
  <unicode hex="00A3"/>
  <outline>
    <contour>
      <point x="129.499999903" y="-9.79999995232" type="line"/>
      <point x="118.699999906" y="85.6000002027" type="line"/>
      <point x="293.599999875" y="99.4000002146" type="line" smooth="yes"/>
      <point x="293.599999875" y="627.499999963" type="line"/>
      <point x="120.499999888" y="627.499999963" type="line"/>
      <point x="120.499999888" y="721.100000106" type="line"/>
      <point x="293.599999875" y="721.100000106" type="line"/>
      <point x="293.599999875" y="821.300000079" type="line"/>
      <point x="293.599999875" y="1097.20000009"/>
      <point x="329.0" y="1371.79999998"/>
      <point x="671.59999992" y="1371.79999998" type="curve" smooth="yes"/>
      <point x="805.29999993" y="1371.79999998"/>
      <point x="906.999999955" y="1321.79999998"/>
      <point x="983.599999979" y="1256.49999996" type="curve"/>
      <point x="931.799999893" y="1175.19999982" type="line"/>
      <point x="850.2999999" y="1239.8999998"/>
      <point x="765.899999924" y="1274.6999998"/>
      <point x="668.099999942" y="1274.6999998" type="curve" smooth="yes"/>
      <point x="461.100000076" y="1274.6999998"/>
      <point x="402.100000091" y="1118.19999993"/>
      <point x="402.100000091" y="889.000000075" type="curve" smooth="yes"/>
      <point x="402.100000091" y="721.100000106" type="line"/>
      <point x="791.900000013" y="721.100000106" type="line"/>
      <point x="791.900000013" y="626.699999966" type="line"/>
      <point x="402.100000091" y="626.699999966" type="line"/>
      <point x="402.100000091" y="101.300000213" type="line"/>
      <point x="995.29999999" y="101.300000213" type="line"/>
      <point x="981.200000003" y="-9.79999995232" type="line"/>
    </contour>
  </outline>
</glyph>
<glyph name="currency" format="1">
  <advance width="1274.39999957"/>
  <unicode hex="00A4"/>
  <outline>
    <contour>
      <point x="1052.69999976" y="211.799999997" type="line"/>
      <point x="1097.99999984" y="263.000000075" type="line"/>
      <point x="930.499999844" y="427.100000061" type="line"/>
      <point x="982.299999826" y="492.00000006"/>
      <point x="1012.39999981" y="571.800000042"/>
      <point x="1012.39999981" y="661.500000022" type="curve" smooth="yes"/>
      <point x="1012.39999981" y="744.000000015"/>
      <point x="982.89999982" y="824.200000003"/>
      <point x="929.499999844" y="895.999999985" type="curve"/>
      <point x="1098.99999984" y="1058.49999998" type="line"/>
      <point x="1052.69999976" y="1110.50000005" type="line"/>
      <point x="881.199999765" y="949.00000006" type="line"/>
      <point x="813.599999771" y="1007.00000004"/>
      <point x="727.199999794" y="1039.30000003"/>
      <point x="632.399999812" y="1039.30000003" type="curve" smooth="yes"/>
      <point x="537.799999833" y="1039.30000003"/>
      <point x="450.799999848" y="1009.50000004"/>
      <point x="381.699999861" y="950.100000061" type="curve"/>
      <point x="211.599999875" y="1110.50000005" type="line"/>
      <point x="161.199999794" y="1061.29999997" type="line"/>
      <point x="334.399999782" y="895.999999985" type="line"/>
      <point x="281.699999802" y="829.199999988"/>
      <point x="250.599999815" y="747.500000007"/>
      <point x="250.599999815" y="661.500000022" type="curve" smooth="yes"/>
      <point x="250.599999815" y="574.500000037"/>
      <point x="280.999999806" y="495.300000049"/>
      <point x="334.399999782" y="427.100000061" type="curve"/>
      <point x="162.199999794" y="264.600000069" type="line"/>
      <point x="211.599999875" y="212.799999997" type="line"/>
      <point x="382.399999857" y="373.999999985" type="line"/>
      <point x="450.799999848" y="315.200000003"/>
      <point x="536.59999983" y="284.70000001"/>
      <point x="632.399999812" y="284.70000001" type="curve" smooth="yes"/>
      <point x="727.999999791" y="284.70000001"/>
      <point x="812.899999775" y="315.500000007"/>
      <point x="881.199999765" y="373.199999988" type="curve"/>
    </contour>
    <contour>
      <point x="632.399999812" y="361.100000121" type="curve" smooth="yes"/>
      <point x="461.899999879" y="361.100000121"/>
      <point x="324.399999931" y="495.100000076"/>
      <point x="324.399999931" y="661.500000022" type="curve" smooth="yes"/>
      <point x="324.399999931" y="827.799999967"/>
      <point x="461.899999879" y="962.899999924"/>
      <point x="632.399999812" y="962.899999924" type="curve" smooth="yes"/>
      <point x="802.999999747" y="962.899999924"/>
      <point x="939.699999698" y="826.99999997"/>
      <point x="939.699999698" y="661.500000022" type="curve" smooth="yes"/>
      <point x="939.699999698" y="496.000000075"/>
      <point x="803.999999747" y="361.100000121"/>
    </contour>
  </outline>
</glyph>
<glyph name="yen" format="1">
  <advance width="1261.99999964"/>
  <unicode hex="00A5"/>
  <outline>
    <contour>
      <point x="521.89999982" y="0.0" type="line"/>
      <point x="649.800000027" y="0.0" type="line"/>
      <point x="649.800000027" y="288.499999948" type="line"/>
      <point x="945.300000049" y="288.499999948" type="line"/>
      <point x="945.300000049" y="367.100000091" type="line"/>
      <point x="649.800000027" y="367.100000091" type="line"/>
      <point x="649.800000027" y="562.99999994" type="line"/>
      <point x="943.500000052" y="562.99999994" type="line"/>
      <point x="943.500000052" y="644.300000064" type="line"/>
      <point x="691.562700077" y="644.300000064" type="line"/>
      <point x="1087.50000005" y="1352.19999997" type="line"/>
      <point x="964.899999805" y="1352.19999997" type="line"/>
      <point x="585.15089992" y="657.485200209" type="line"/>
      <point x="172.900000088" y="1352.19999997" type="line"/>
      <point x="50.6999998316" y="1352.19999997" type="line"/>
      <point x="475.509099771" y="644.300000064" type="line"/>
      <point x="215.999999821" y="644.300000064" type="line"/>
      <point x="215.999999821" y="562.99999994" type="line"/>
      <point x="521.89999982" y="562.99999994" type="line"/>
      <point x="521.89999982" y="367.100000091" type="line"/>
      <point x="214.199999824" y="367.100000091" type="line"/>
      <point x="214.199999824" y="288.499999948" type="line"/>
      <point x="521.89999982" y="288.499999948" type="line"/>
    </contour>
  </outline>
</glyph>
<glyph name="brokenbar" format="1">
  <advance width="214.900000833"/>
  <unicode hex="00A6"/>
  <outline>
    <contour>
      <point x="58.1000003442" y="-375.699999936" type="line"/>
      <point x="58.1000003442" y="258.100000121" type="line"/>
      <point x="151.100000523" y="258.100000121" type="line"/>
      <point x="151.100000523" y="-375.699999936" type="line"/>
    </contour>
    <contour>
      <point x="58.1000003442" y="820.899999864" type="line"/>
      <point x="58.1000003442" y="1451.89999992" type="line"/>
      <point x="151.100000523" y="1451.89999992" type="line"/>
      <point x="151.100000523" y="820.899999864" type="line"/>
    </contour>
  </outline>
</glyph>
<glyph name="dieresis" format="1">
  <advance width="712.299999945"/>
  <unicode hex="00A8"/>
  <outline>
    <contour>
      <point x="132.299999885" y="1151.39999995" type="line"/>
      <point x="242.600000024" y="1151.39999995" type="line"/>
      <point x="242.600000024" y="1319.00000007" type="line"/>
      <point x="132.299999885" y="1319.00000007" type="line"/>
    </contour>
    <contour>
      <point x="474.99999994" y="1151.39999995" type="line"/>
      <point x="586.100000076" y="1151.39999995" type="line"/>
      <point x="586.100000076" y="1319.00000007" type="line"/>
      <point x="474.99999994" y="1319.00000007" type="line"/>
    </contour>
  </outline>
</glyph>
<glyph name="copyright" format="1">
  <advance width="1751.69999964"/>
  <unicode hex="00A9"/>
  <outline>
    <contour>
      <point x="902.099999763" y="216.200000033" type="curve" smooth="yes"/>
      <point x="993.999999791" y="216.200000033"/>
      <point x="1086.2999998" y="242.300000034"/>
      <point x="1172.69999977" y="297.400000021" type="curve"/>
      <point x="1144.39999974" y="371.300000079" type="line"/>
      <point x="1057.09999978" y="318.000000104"/>
      <point x="981.099999763" y="300.7000001"/>
      <point x="902.499999784" y="300.7000001" type="curve" smooth="yes"/>
      <point x="702.59999983" y="300.7000001"/>
      <point x="538.699999921" y="453.700000055"/>
      <point x="538.699999921" y="709.599999949" type="curve" smooth="yes"/>
      <point x="538.699999921" y="938.799999893"/>
      <point x="702.499999829" y="1101.99999984"/>
      <point x="894.099999793" y="1101.99999984" type="curve" smooth="yes"/>
      <point x="964.599999785" y="1101.99999984"/>
      <point x="1059.19999976" y="1077.59999985"/>
      <point x="1131.29999975" y="1019.79999988" type="curve"/>
      <point x="1168.99999978" y="1098.09999993" type="line"/>
      <point x="1080.5999998" y="1159.79999991"/>
      <point x="985.799999803" y="1187.4999999"/>
      <point x="892.099999778" y="1187.4999999" type="curve" smooth="yes"/>
      <point x="644.199999779" y="1187.4999999"/>
      <point x="430.199999854" y="982.099999912"/>
      <point x="430.199999854" y="703.29999996" type="curve" smooth="yes"/>
      <point x="430.199999854" y="418.400000006"/>
      <point x="650.399999782" y="216.200000033"/>
    </contour>
    <contour>
      <point x="874.499999829" y="41.4000001103" type="curve" smooth="yes"/>
      <point x="555.999999806" y="41.4000001103"/>
      <point x="230.099999942" y="256.300000183"/>
      <point x="230.099999942" y="705.099999972" type="curve" smooth="yes"/>
      <point x="230.099999942" y="1153.69999976"/>
      <point x="555.999999806" y="1368.79999983"/>
      <point x="874.399999827" y="1368.79999983" type="curve" smooth="yes"/>
      <point x="1193.29999986" y="1368.79999983"/>
      <point x="1522.79999971" y="1152.79999976"/>
      <point x="1522.79999971" y="704.99999997" type="curve" smooth="yes"/>
      <point x="1522.79999971" y="257.200000182"/>
      <point x="1193.39999986" y="41.4000001103"/>
    </contour>
    <contour>
      <point x="874.499999829" y="-33.2999999449" type="curve" smooth="yes"/>
      <point x="1237.29999986" y="-33.2999999449"/>
      <point x="1617.79999976" y="205.800000131"/>
      <point x="1617.79999976" y="705.099999972" type="curve" smooth="yes"/>
      <point x="1617.79999976" y="1204.29999981"/>
      <point x="1237.09999985" y="1444.49999989"/>
      <point x="874.399999827" y="1444.49999989" type="curve" smooth="yes"/>
      <point x="511.999999806" y="1444.49999989"/>
      <point x="134.999999896" y="1204.39999981"/>
      <point x="134.999999896" y="705.099999972" type="curve" smooth="yes"/>
      <point x="134.999999896" y="205.800000131"/>
      <point x="512.099999808" y="-33.2999999449"/>
    </contour>
  </outline>
</glyph>
<glyph name="ordfeminine" format="1">
  <advance width="801.699999772"/>
  <unicode hex="00AA"/>
  <outline>
    <contour>
      <point x="361.699999847" y="784.099999838" type="curve" smooth="yes"/>
      <point x="243.399999857" y="784.099999838"/>
      <point x="164.399999827" y="869.199999809"/>
      <point x="164.399999827" y="991.199999824" type="curve" smooth="yes"/>
      <point x="164.399999827" y="1156.39999987"/>
      <point x="290.799999982" y="1189.59999985"/>
      <point x="537.499999844" y="1202.19999985" type="curve"/>
      <point x="537.499999844" y="1215.89999986" type="line"/>
      <point x="533.799999848" y="1330.89999982"/>
      <point x="509.299999841" y="1384.09999978"/>
      <point x="409.59999989" y="1384.09999978" type="curve" smooth="yes"/>
      <point x="338.199999914" y="1384.09999978"/>
      <point x="279.59999989" y="1383.59999976"/>
      <point x="225.799999833" y="1289.99999985" type="curve"/>
      <point x="165.399999857" y="1339.29999996" type="line"/>
      <point x="224.199999899" y="1449.89999985"/>
      <point x="303.599999934" y="1477.59999985"/>
      <point x="408.399999917" y="1477.59999985" type="curve" smooth="yes"/>
      <point x="516.399999961" y="1477.59999985"/>
      <point x="610.799999997" y="1406.89999986"/>
      <point x="610.799999997" y="1236.99999987" type="curve" smooth="yes"/>
      <point x="607.200000003" y="933.5999998" type="line" smooth="yes"/>
      <point x="607.200000003" y="917.099999823"/>
      <point x="606.500000007" y="931.099999614"/>
      <point x="614.599999994" y="806.89999982" type="curve"/>
      <point x="525.999999911" y="806.89999982" type="line"/>
      <point x="528.299999885" y="882.5999998" type="line"/>
      <point x="496.199999869" y="823.199999824"/>
      <point x="448.599999815" y="784.099999838"/>
    </contour>
    <contour>
      <point x="152.499999903" y="623.699999772" type="line"/>
      <point x="152.499999903" y="704.599999845" type="line"/>
      <point x="635.499999963" y="704.599999845" type="line"/>
      <point x="635.499999963" y="623.699999772" type="line"/>
    </contour>
    <contour>
      <point x="378.699999847" y="872.399999902" type="curve" smooth="yes"/>
      <point x="517.399999708" y="872.399999902"/>
      <point x="555.599999741" y="1005.29999974"/>
      <point x="537.499999844" y="1138.49999962" type="curve"/>
      <point x="537.499999844" y="1131.89999977" type="line"/>
      <point x="440.599999771" y="1123.69999976"/>
      <point x="242.399999961" y="1139.7999997"/>
      <point x="242.399999961" y="989.199999824" type="curve" smooth="yes"/>
      <point x="242.399999961" y="904.199999884"/>
      <point x="296.59999992" y="872.399999902"/>
    </contour>
  </outline>
</glyph>
<glyph name="guillemotleft" format="1">
  <advance width="937.200000018"/>
  <unicode hex="00AB"/>
  <outline>
    <contour>
      <point x="372.799999952" y="144.29999996" type="line"/>
      <point x="458.500000142" y="165.800000012" type="line"/>
      <point x="215.300000139" y="507.300000019" type="line"/>
      <point x="465.100000136" y="843.500000037" type="line"/>
      <point x="375.799999952" y="865.800000086" type="line"/>
      <point x="114.099999927" y="501.100000076" type="line"/>
      <point x="148.999999851" y="458.100000076" type="line"/>
    </contour>
    <contour>
      <point x="705.100000016" y="144.29999996" type="line"/>
      <point x="771.800000235" y="165.800000012" type="line"/>
      <point x="547.500000201" y="507.300000019" type="line"/>
      <point x="774.000000238" y="843.500000037" type="line"/>
      <point x="707.100000016" y="865.800000086" type="line"/>
      <point x="440.199999973" y="516.0" type="line"/>
    </contour>
  </outline>
</glyph>
<glyph name="logicalnot" format="1">
  <advance width="1127.2"/>
  <unicode hex="00AC"/>
  <outline>
    <contour>
      <point x="910.299999885" y="240.699999981" type="line"/>
      <point x="995.00000006" y="240.699999981" type="line"/>
      <point x="995.00000006" y="741.300000049" type="line"/>
      <point x="102.100000016" y="741.300000049" type="line"/>
      <point x="102.100000016" y="639.399999902" type="line"/>
      <point x="910.299999885" y="639.399999902" type="line"/>
    </contour>
  </outline>
</glyph>
<glyph name="uni00AD" format="1">
  <advance width="980.499999456"/>
  <unicode hex="00AD"/>
  <outline>
    <contour>
      <point x="119.499999903" y="149.200000331" type="line"/>
      <point x="859.099999584" y="149.200000331" type="line"/>
      <point x="859.099999584" y="252.200000495" type="line"/>
      <point x="119.499999903" y="252.200000495" type="line"/>
    </contour>
  </outline>
</glyph>
<glyph name="registered" format="1">
  <advance width="1750.99999963"/>
  <unicode hex="00AE"/>
  <outline>
    <contour>
      <point x="588.699999832" y="285.199999943" type="line"/>
      <point x="685.59999992" y="285.199999943" type="line"/>
      <point x="685.59999992" y="714.499999844" type="line"/>
      <point x="919.099999733" y="714.499999844" type="line"/>
      <point x="922.099999778" y="711.499999799"/>
      <point x="1127.29999972" y="285.199999943"/>
      <point x="1127.29999972" y="285.199999943" type="curve"/>
      <point x="1233.29999983" y="285.199999943" type="line"/>
      <point x="1233.29999983" y="285.199999943"/>
      <point x="1021.89999989" y="720.19999975"/>
      <point x="1016.49999981" y="727.399999857" type="curve"/>
      <point x="1140.59999983" y="735.2999999"/>
      <point x="1203.8999998" y="823.799999878"/>
      <point x="1203.8999998" y="955.29999987" type="curve" smooth="yes"/>
      <point x="1203.8999998" y="1108.69999991"/>
      <point x="1138.8999997" y="1182.89999989"/>
      <point x="901.799999788" y="1182.89999989" type="curve" smooth="yes"/>
      <point x="588.699999832" y="1182.89999989" type="line"/>
    </contour>
    <contour>
      <point x="686.399999917" y="798.799999923" type="line"/>
      <point x="686.399999917" y="1098.69999982" type="line"/>
      <point x="891.699999742" y="1098.69999982" type="line" smooth="yes"/>
      <point x="1053.8999997" y="1098.69999982"/>
      <point x="1112.29999971" y="1076.69999985"/>
      <point x="1112.29999971" y="950.599999875" type="curve" smooth="yes"/>
      <point x="1112.29999971" y="848.099999867"/>
      <point x="1076.79999965" y="798.799999923"/>
      <point x="935.699999683" y="798.799999923" type="curve" smooth="yes"/>
    </contour>
    <contour>
      <point x="874.399999827" y="41.4000001103" type="curve" smooth="yes"/>
      <point x="555.999999806" y="41.4000001103"/>
      <point x="230.099999942" y="256.300000183"/>
      <point x="230.099999942" y="705.099999972" type="curve" smooth="yes"/>
      <point x="230.099999942" y="1153.69999976"/>
      <point x="555.899999805" y="1368.79999983"/>
      <point x="874.299999826" y="1368.79999983" type="curve" smooth="yes"/>
      <point x="1193.09999985" y="1368.79999983"/>
      <point x="1522.39999971" y="1152.79999976"/>
      <point x="1522.39999971" y="704.99999997" type="curve" smooth="yes"/>
      <point x="1522.39999971" y="257.200000182"/>
      <point x="1193.09999985" y="41.4000001103"/>
    </contour>
    <contour>
      <point x="874.399999827" y="-33.2999999449" type="curve" smooth="yes"/>
      <point x="1236.99999985" y="-33.2999999449"/>
      <point x="1617.49999975" y="205.800000131"/>
      <point x="1617.49999975" y="705.099999972" type="curve" smooth="yes"/>
      <point x="1617.49999975" y="1204.29999981"/>
      <point x="1236.89999985" y="1444.49999989"/>
      <point x="874.299999826" y="1444.49999989" type="curve" smooth="yes"/>
      <point x="511.899999805" y="1444.49999989"/>
      <point x="134.999999896" y="1204.39999981"/>
      <point x="134.999999896" y="705.099999972" type="curve" smooth="yes"/>
      <point x="134.999999896" y="205.800000131"/>
      <point x="511.999999806" y="-33.2999999449"/>
    </contour>
  </outline>
</glyph>
<glyph name="macron" format="1">
  <advance width="1061.09999957"/>
  <unicode hex="00AF"/>
  <outline>
    <contour>
      <point x="256.399999723" y="1200.30000006" type="line"/>
      <point x="778.499999933" y="1200.30000006" type="line"/>
      <point x="778.499999933" y="1299.90000016" type="line"/>
      <point x="256.399999723" y="1299.90000016" type="line"/>
    </contour>
  </outline>
</glyph>
<glyph name="degree" format="1">
  <advance width="776.799999952"/>
  <unicode hex="00B0"/>
  <outline>
    <contour>
      <point x="380.400000006" y="924.199999973" type="curve" smooth="yes"/>
      <point x="272.600000069" y="924.199999973"/>
      <point x="188.500000097" y="1015.89999991"/>
      <point x="188.500000097" y="1119.49999989" type="curve" smooth="yes"/>
      <point x="188.500000097" y="1222.89999986"/>
      <point x="274.400000066" y="1313.3999998"/>
      <point x="380.500000007" y="1313.3999998" type="curve" smooth="yes"/>
      <point x="489.099999942" y="1313.3999998"/>
      <point x="573.899999909" y="1222.89999986"/>
      <point x="573.899999909" y="1119.49999989" type="curve" smooth="yes"/>
      <point x="573.899999909" y="1017.69999991"/>
      <point x="489.099999942" y="924.199999973"/>
    </contour>
    <contour>
      <point x="379.500000007" y="826.199999914" type="curve" smooth="yes"/>
      <point x="524.100000076" y="826.199999914"/>
      <point x="660.400000021" y="958.999999925"/>
      <point x="660.400000021" y="1116.3999999" type="curve" smooth="yes"/>
      <point x="660.400000021" y="1278.69999988"/>
      <point x="520.900000073" y="1406.69999988"/>
      <point x="379.500000007" y="1406.69999988" type="curve" smooth="yes"/>
      <point x="241.399999931" y="1406.69999988"/>
      <point x="101.099999987" y="1278.69999988"/>
      <point x="101.099999987" y="1116.3999999" type="curve" smooth="yes"/>
      <point x="101.099999987" y="951.699999936"/>
      <point x="242.899999924" y="826.199999914"/>
    </contour>
  </outline>
</glyph>
<glyph name="plusminus" format="1">
  <advance width="1093.20000006"/>
  <unicode hex="00B1"/>
  <outline>
    <contour>
      <point x="109.600000054" y="0.0" type="line"/>
      <point x="109.600000054" y="88.800000146" type="line"/>
      <point x="985.300000034" y="88.800000146" type="line"/>
      <point x="985.300000034" y="0.0" type="line"/>
    </contour>
    <contour>
      <point x="488.699999981" y="181.600000098" type="line"/>
      <point x="585.500000142" y="181.600000098" type="line"/>
      <point x="585.500000142" y="554.300000034" type="line"/>
      <point x="930.400000125" y="554.300000034" type="line"/>
      <point x="930.400000125" y="638.200000226" type="line"/>
      <point x="585.40000014" y="638.200000226" type="line"/>
      <point x="585.40000014" y="1002.90000016" type="line"/>
      <point x="488.699999981" y="1002.90000016" type="line"/>
      <point x="488.699999981" y="638.200000226" type="line"/>
      <point x="135.70000001" y="638.200000226" type="line"/>
      <point x="135.70000001" y="554.300000034" type="line"/>
      <point x="488.699999981" y="554.300000034" type="line"/>
    </contour>
  </outline>
</glyph>
<glyph name="acute" format="1">
  <advance width="603.999999896"/>
  <unicode hex="00B4"/>
  <outline>
    <contour>
      <point x="89.2000001222" y="1166.49999986" type="line"/>
      <point x="162.500000261" y="1166.49999986" type="line"/>
      <point x="440.400000289" y="1514.89999988" type="line"/>
      <point x="264.500000097" y="1514.89999988" type="line"/>
    </contour>
  </outline>
</glyph>
<glyph name="paragraph" format="1">
  <advance width="1036.90000003"/>
  <unicode hex="00B6"/>
  <outline>
    <contour>
      <point x="486.699999802" y="-149.299999975" type="line"/>
      <point x="558.599999994" y="-149.299999975" type="line"/>
      <point x="558.599999994" y="1356.29999972" type="line"/>
      <point x="800.499999799" y="1356.29999972" type="line"/>
      <point x="800.499999799" y="-149.299999975" type="line"/>
      <point x="869.499999963" y="-149.299999975" type="line"/>
      <point x="869.499999963" y="1356.29999972" type="line"/>
      <point x="934.399999976" y="1356.29999972" type="line"/>
      <point x="934.399999976" y="1450.89999985" type="line"/>
      <point x="484.300000094" y="1450.89999985" type="line" smooth="yes"/>
      <point x="172.700000174" y="1450.89999985"/>
      <point x="116.199999914" y="1256.20000003"/>
      <point x="116.199999914" y="1135.89999983" type="curve" smooth="yes"/>
      <point x="116.199999914" y="978.899999805"/>
      <point x="272.399999857" y="800.499999873"/>
      <point x="486.699999802" y="803.099999838" type="curve"/>
    </contour>
  </outline>
</glyph>
<glyph name="cedilla" format="1">
  <advance width="558.099999927"/>
  <unicode hex="00B8"/>
  <outline>
    <contour>
      <point x="137.799999848" y="-410.399999812" type="line"/>
      <point x="237.900000028" y="-410.399999812" type="line"/>
      <point x="269.400000066" y="-7.49999988824" type="line"/>
      <point x="231.299999885" y="-7.49999988824" type="line"/>
    </contour>
  </outline>
</glyph>
<glyph name="guillemotright" format="1">
  <advance width="922.40000017"/>
  <unicode hex="00BB"/>
  <outline>
    <contour>
      <point x="198.300000153" y="144.29999996" type="line"/>
      <point x="466.100000195" y="495.000000045" type="line"/>
      <point x="199.300000153" y="865.800000086" type="line"/>
      <point x="130.799999937" y="843.500000037" type="line"/>
      <point x="357.099999972" y="507.300000019" type="line"/>
      <point x="130.599999934" y="165.800000012" type="line"/>
    </contour>
    <contour>
      <point x="541.400000215" y="144.29999996" type="line"/>
      <point x="790.500000291" y="495.000000045" type="line"/>
      <point x="544.400000215" y="865.800000086" type="line"/>
      <point x="460.800000027" y="843.500000037" type="line"/>
      <point x="701.900000028" y="507.300000019" type="line"/>
      <point x="455.900000028" y="165.800000012" type="line"/>
    </contour>
  </outline>
</glyph>
<glyph name="threequarters" format="1">
  <advance width="1555.79999988"/>
  <unicode hex="00BE"/>
  <outline>
    <contour>
      <point x="343.299999945" y="582.699999966" type="curve" smooth="yes"/>
      <point x="476.699999966" y="582.699999966"/>
      <point x="578.700000025" y="673.699999951"/>
      <point x="578.700000025" y="816.999999985" type="curve" smooth="yes"/>
      <point x="578.700000025" y="910.599999964"/>
      <point x="524.00000003" y="986.399999946"/>
      <point x="413.700000115" y="1014.79999995" type="curve"/>
      <point x="518.40000008" y="1034.19999999"/>
      <point x="560.700000025" y="1112.2"/>
      <point x="560.700000025" y="1182.39999992" type="curve" smooth="yes"/>
      <point x="560.700000025" y="1324.99999993"/>
      <point x="448.899999999" y="1397.29999992"/>
      <point x="334.499999978" y="1397.29999992" type="curve" smooth="yes"/>
      <point x="255.899999954" y="1397.29999992"/>
      <point x="144.599999979" y="1364.39999992"/>
      <point x="94.1999999583" y="1306.89999992" type="curve"/>
      <point x="140.499999993" y="1232.89999986" type="line"/>
      <point x="178.25859999" y="1273.17399984"/>
      <point x="268.620499961" y="1302.86199983"/>
      <point x="331.612399961" y="1302.86199983" type="curve" smooth="yes"/>
      <point x="397.548499961" y="1302.86199983"/>
      <point x="451.499999918" y="1265.37299984"/>
      <point x="451.499999918" y="1181.79999991" type="curve" smooth="yes"/>
      <point x="451.499999918" y="1097.69999997"/>
      <point x="367.400000006" y="1058.29999997"/>
      <point x="274.799999997" y="1058.29999997" type="curve" smooth="yes"/>
      <point x="211.899999969" y="1058.29999997" type="line"/>
      <point x="211.899999969" y="960.499999903" type="line"/>
      <point x="278.29999999" y="960.599999905" type="line"/>
      <point x="383.599999979" y="960.599999905"/>
      <point x="467.999999925" y="913.599999934"/>
      <point x="467.999999925" y="820.799999982" type="curve" smooth="yes"/>
      <point x="467.999999925" y="724.148200025"/>
      <point x="405.395899953" y="679.144000044"/>
      <point x="331.562399953" y="679.144000044" type="curve" smooth="yes"/>
      <point x="273.182799957" y="679.144000044"/>
      <point x="186.877799974" y="704.527700034"/>
      <point x="138.399999991" y="747.300000019" type="curve"/>
      <point x="94.9999999702" y="665.699999951" type="line"/>
      <point x="148.499999993" y="604.99999997"/>
      <point x="266.799999937" y="582.699999966"/>
    </contour>
    <contour>
      <point x="1246.49999989" y="2.80000002682" type="line"/>
      <point x="1350.59999998" y="2.80000002682" type="line"/>
      <point x="1350.69999998" y="182.599999994" type="line"/>
      <point x="1469.19999996" y="182.599999994" type="line"/>
      <point x="1460.89999997" y="268.500000082" type="line"/>
      <point x="1352.59999998" y="268.500000082" type="line"/>
      <point x="1352.59999998" y="786.700000055" type="line"/>
      <point x="1237.39999989" y="786.700000055" type="line"/>
      <point x="892.299999885" y="252.200000107" type="line"/>
      <point x="892.299999885" y="182.599999994" type="line"/>
      <point x="1246.49999989" y="182.599999994" type="line"/>
    </contour>
    <contour>
      <point x="349.299999811" y="1.90000002831" type="line"/>
      <point x="471.399999946" y="1.90000002831" type="line"/>
      <point x="1306.50000007" y="1401.89999991" type="line"/>
      <point x="1185.89999994" y="1401.89999991" type="line"/>
    </contour>
    <contour>
      <point x="1016.3" y="268.500000082" type="line"/>
      <point x="1246.29999989" y="629.899999909" type="line"/>
      <point x="1246.29999989" y="268.500000082" type="line"/>
    </contour>
  </outline>
</glyph>
<glyph name="Eth" format="1">
  <advance width="1576.69999961"/>
  <unicode hex="00D0"/>
  <outline>
    <contour>
      <point x="393.999999955" y="106.600000173" type="line"/>
      <point x="712.599999428" y="144.500000738" type="line"/>
      <point x="1036.59999889" y="144.500000738"/>
      <point x="1254.79999882" y="310.100000463"/>
      <point x="1254.79999882" y="659.299999885" type="curve"/>
      <point x="1254.79999882" y="1088.59999917"/>
      <point x="987.499999262" y="1225.59999925"/>
      <point x="642.799999833" y="1225.59999925" type="curve"/>
      <point x="393.999999955" y="1225.59999925" type="line"/>
      <point x="393.999999955" y="785.800000578" type="line"/>
      <point x="634.299999751" y="785.800000578" type="line" smooth="yes"/>
      <point x="670.100000285" y="785.800000578"/>
      <point x="688.60000056" y="699.200000539"/>
      <point x="688.60000056" y="663.600000009" type="curve" smooth="yes"/>
      <point x="688.60000056" y="633.899999566"/>
      <point x="443.500000693" y="617.799999326"/>
      <point x="413.80000025" y="617.799999326" type="curve" smooth="yes"/>
    </contour>
    <contour>
      <point x="288.199999705" y="-0.79999999702" type="line"/>
      <point x="332.100000359" y="599.499999009" type="line" smooth="yes"/>
      <point x="375.600001007" y="599.499999009"/>
      <point x="312.400001615" y="622.39999935"/>
      <point x="312.400001615" y="666.200000003" type="curve" smooth="yes"/>
      <point x="312.400001615" y="715.700000741"/>
      <point x="278.400001109" y="809.000000879"/>
      <point x="230.300000392" y="809.000000879" type="curve" smooth="yes"/>
      <point x="288.199999705" y="809.000000879" type="line"/>
      <point x="288.199999705" y="1314.2999991" type="line"/>
      <point x="568.699999057" y="1314.2999991" type="line"/>
      <point x="984.499998368" y="1314.2999991"/>
      <point x="1294.99999785" y="1155.69999906"/>
      <point x="1294.99999785" y="666.099999867" type="curve"/>
      <point x="1294.99999785" y="249.400000557"/>
      <point x="1054.09999844" y="57.7000008747"/>
      <point x="670.699999072" y="57.7000008747" type="curve"/>
    </contour>
  </outline>
</glyph>
<glyph name="multiply" format="1">
  <advance width="741.300000809"/>
  <unicode hex="00D7"/>
  <outline>
    <contour>
      <point x="119.20000042" y="182.199999914" type="line"/>
      <point x="356.400000468" y="476.199999869" type="line"/>
      <point x="593.400000513" y="182.199999914" type="line"/>
      <point x="670.800000608" y="243.200000048" type="line"/>
      <point x="670.800000608" y="243.200000048"/>
      <point x="374.900000773" y="588.199999809"/>
      <point x="412.500000603" y="555.99999997" type="curve"/>
      <point x="670.800000608" y="867.499999903" type="line"/>
      <point x="597.800000504" y="929.00000003" type="line"/>
      <point x="356.400000468" y="634.800000072" type="line"/>
      <point x="115.600000426" y="929.00000003" type="line"/>
      <point x="40.3000003323" y="866.699999906" type="line"/>
      <point x="300.100000329" y="555.99999997" type="line"/>
      <point x="40.3000003323" y="244.000000045" type="line"/>
    </contour>
  </outline>
</glyph>
<glyph name="Oslash" format="1">
  <advance width="1553.0"/>
  <unicode hex="00D8"/>
  <outline>
    <contour>
      <point x="474.000000075" y="-210.00000003" type="line"/>
      <point x="1155.00000007" y="1529.99999997" type="line"/>
      <point x="1069.0" y="1562.0" type="line"/>
      <point x="393.0" y="-183.0" type="line"/>
    </contour>
    <contour>
      <point x="827.0" y="1349.0" type="move"/>
    </contour>
    <component base="O"/>
  </outline>
</glyph>
<glyph name="germandbls" format="1">
  <advance width="1108.90000009"/>
  <unicode hex="00DF"/>
  <outline>
    <contour>
      <point x="302.600000128" y="0.0" type="line"/>
      <point x="175.099999927" y="0.0" type="line"/>
      <point x="175.099999927" y="950.199999973" type="line" smooth="yes"/>
      <point x="175.099999927" y="1219.99999997"/>
      <point x="279.500000007" y="1385.49999996"/>
      <point x="559.200000003" y="1385.49999996" type="curve" smooth="yes"/>
      <point x="767.900000013" y="1385.49999996"/>
      <point x="887.100000136" y="1263.60000001"/>
      <point x="887.100000136" y="1100.79999992" type="curve" smooth="yes"/>
      <point x="887.100000136" y="913.099999852"/>
      <point x="680.800000206" y="791.399999991"/>
      <point x="680.800000206" y="701.00000003" type="curve" smooth="yes"/>
      <point x="680.800000206" y="587.860900066"/>
      <point x="1043.10000015" y="532.154100078"/>
      <point x="1043.10000015" y="263.100000046" type="curve" smooth="yes"/>
      <point x="1043.10000015" y="94.6999999955"/>
      <point x="935.100000106" y="-18.3000000045"/>
      <point x="752.300000064" y="-18.3000000045" type="curve" smooth="yes"/>
      <point x="625.400000125" y="-18.3000000045"/>
      <point x="503.500000156" y="19.8999999687"/>
      <point x="441.000000075" y="54.8999999836" type="curve"/>
      <point x="478.300000109" y="153.40000011" type="line"/>
      <point x="534.40000008" y="123.500000127"/>
      <point x="630.900000058" y="85.6000001431"/>
      <point x="743.599999994" y="85.6000001431" type="curve" smooth="yes"/>
      <point x="875.399999902" y="85.6000001431"/>
      <point x="920.699999936" y="175.900000043"/>
      <point x="920.699999936" y="255.900000073" type="curve" smooth="yes"/>
      <point x="920.699999936" y="461.391400013"/>
      <point x="566.29999999" y="508.361900016"/>
      <point x="566.29999999" y="691.100000001" type="curve" smooth="yes"/>
      <point x="566.29999999" y="843.500000007"/>
      <point x="760.099999972" y="901.899999984"/>
      <point x="760.99999997" y="1100.89999991" type="curve" smooth="yes"/>
      <point x="761.485099969" y="1207.79999986"/>
      <point x="698.399999961" y="1288.39999981"/>
      <point x="560.600000024" y="1288.39999981" type="curve" smooth="yes"/>
      <point x="378.200000077" y="1288.39999981"/>
      <point x="302.600000128" y="1200.8999998"/>
      <point x="302.600000128" y="957.799999952" type="curve" smooth="yes"/>
    </contour>
  </outline>
</glyph>
<glyph name="ae" format="1">
  <advance width="1661.89999991"/>
  <unicode hex="00E6"/>
  <outline>
    <contour>
      <point x="417.599999979" y="-13.6000000089" type="curve" smooth="yes"/>
      <point x="578.399999991" y="-13.6000000089"/>
      <point x="765.99999994" y="62.9999999702"/>
      <point x="847.199999943" y="161.29999993" type="curve"/>
      <point x="920.099999942" y="46.3999999762"/>
      <point x="1039.0999999" y="-18.0"/>
      <point x="1198.2999999" y="-18.0" type="curve" smooth="yes"/>
      <point x="1344.19999993" y="-18.0"/>
      <point x="1439.79999994" y="17.0"/>
      <point x="1532.49999992" y="70.5000000224" type="curve"/>
      <point x="1494.69999986" y="153.400000155" type="line"/>
      <point x="1384.79999995" y="98.3000001833"/>
      <point x="1311.89999992" y="79.800000146"/>
      <point x="1213.3999999" y="79.800000146" type="curve"/>
      <point x="1020.49999996" y="80.000000149"/>
      <point x="882.900000073" y="191.000000089"/>
      <point x="873.800000072" y="475.499999918" type="curve"/>
      <point x="1396.80000001" y="475.499999918"/>
      <point x="1543.09999996" y="533.600000083"/>
      <point x="1543.09999996" y="737.399999976" type="curve" smooth="yes"/>
      <point x="1543.09999996" y="875.158716837"/>
      <point x="1430.27284222" y="1008.50000007"/>
      <point x="1195.19999993" y="1008.50000007" type="curve" smooth="yes"/>
      <point x="1041.99999996" y="1008.50000007"/>
      <point x="875.800000027" y="920.900000103"/>
      <point x="839.499999978" y="757.900000237" type="curve"/>
      <point x="827.199999928" y="939.500000097"/>
      <point x="690.599999994" y="1009.40000007"/>
      <point x="512.700000055" y="1009.40000007" type="curve" smooth="yes"/>
      <point x="395.394872628" y="1009.40000007"/>
      <point x="248.876411422" y="971.599966553"/>
      <point x="167.699999936" y="925.900000043" type="curve"/>
      <point x="207.799999982" y="836.59999992" type="line"/>
      <point x="293.99999994" y="883.099999882"/>
      <point x="425.29999996" y="913.199999914"/>
      <point x="527.299999975" y="913.199999914" type="curve"/>
      <point x="693.699999906" y="912.599999905"/>
      <point x="755.29999987" y="825.399999961"/>
      <point x="755.29999987" y="677.100000016" type="curve" smooth="yes"/>
      <point x="755.29999987" y="564.100000046" type="line"/>
      <point x="585.499999993" y="564.100000046" type="line" smooth="yes"/>
      <point x="260.500000052" y="564.100000046"/>
      <point x="115.799999967" y="478.300000079"/>
      <point x="115.799999967" y="279.00000003" type="curve" smooth="yes"/>
      <point x="115.799999967" y="72.2000000775"/>
      <point x="253.699999936" y="-13.6000000089"/>
    </contour>
    <contour>
      <point x="434.500000007" y="86.4000001103" type="curve" smooth="yes"/>
      <point x="319.70000007" y="86.4000001103"/>
      <point x="238.500000142" y="146.500000082"/>
      <point x="238.500000142" y="287.29999999" type="curve" smooth="yes"/>
      <point x="238.500000142" y="418.499999918"/>
      <point x="314.000000119" y="478.199999914"/>
      <point x="602.599999934" y="478.199999914" type="curve" smooth="yes"/>
      <point x="755.799999878" y="478.199999914" type="line"/>
      <point x="756.199999884" y="402.599999934"/>
      <point x="770.099999897" y="313.599999949"/>
      <point x="798.199999869" y="246.100000016" type="curve"/>
      <point x="714.899999879" y="153.800000072"/>
      <point x="556.599999949" y="86.4000001103"/>
    </contour>
    <contour>
      <point x="877.500000067" y="559.600000054" type="curve"/>
      <point x="898.600000069" y="772.600000083"/>
      <point x="1015.10000009" y="914.299999945"/>
      <point x="1201.79999995" y="914.299999945" type="curve" smooth="yes"/>
      <point x="1361.49999984" y="914.299999945"/>
      <point x="1440.7999998" y="826.70000001"/>
      <point x="1440.7999998" y="730.900000013" type="curve" smooth="yes"/>
      <point x="1440.7999998" y="591.600000098"/>
      <point x="1270.79999994" y="559.600000054"/>
    </contour>
  </outline>
</glyph>
<glyph name="eth" format="1">
  <advance width="1215.39999977"/>
  <unicode hex="00F0"/>
  <outline>
    <contour>
      <point x="598.399999931" y="-25.9999999851" type="curve" smooth="yes"/>
      <point x="915.799999893" y="-25.9999999851"/>
      <point x="1057.19999997" y="198.199999914"/>
      <point x="1057.19999997" y="459.99999994" type="curve"/>
      <point x="1057.09999997" y="583.999999955"/>
      <point x="1031.79999995" y="691.199999973"/>
      <point x="964.099999972" y="820.399999917" type="curve"/>
      <point x="900.199999958" y="936.699999921"/>
      <point x="792.599999979" y="1070.69999988"/>
      <point x="626.000000089" y="1245.89999977" type="curve"/>
      <point x="869.099999987" y="1336.89999975" type="line"/>
      <point x="839.399999931" y="1427.69999988" type="line"/>
      <point x="562.499999993" y="1322.49999989" type="line"/>
      <point x="414.400000066" y="1478.69999983" type="line"/>
      <point x="261.299999841" y="1478.69999983" type="line"/>
      <point x="492.199999765" y="1276.09999982" type="line"/>
      <point x="267.599999875" y="1190.49999986" type="line"/>
      <point x="294.399999931" y="1094.39999974" type="line"/>
      <point x="556.099999867" y="1202.29999971" type="line"/>
      <point x="766.299999572" y="1000.79999998"/>
      <point x="856.899999566" y="870.200000033"/>
      <point x="901.199999556" y="776.300000109" type="curve"/>
      <point x="838.399999604" y="827.70000004"/>
      <point x="740.099999689" y="896.199999943"/>
      <point x="573.499999903" y="896.199999943" type="curve" smooth="yes"/>
      <point x="311.799999893" y="896.199999943"/>
      <point x="140.099999882" y="715.29999996"/>
      <point x="140.099999882" y="446.499999978" type="curve" smooth="yes"/>
      <point x="140.099999882" y="205.699999936"/>
      <point x="289.499999963" y="-25.9999999851"/>
    </contour>
    <contour>
      <point x="603.599999934" y="67.4000001848" type="curve" smooth="yes"/>
      <point x="372.000000045" y="67.4000001848"/>
      <point x="266.00000006" y="258.000000045"/>
      <point x="266.00000006" y="444.799999982" type="curve" smooth="yes"/>
      <point x="266.00000006" y="625.899999939"/>
      <point x="388.500000007" y="792.399999827"/>
      <point x="597.599999934" y="792.399999827" type="curve" smooth="yes"/>
      <point x="821.099999838" y="792.399999827"/>
      <point x="939.499999799" y="601.799999967"/>
      <point x="939.499999799" y="430.0" type="curve" smooth="yes"/>
      <point x="939.499999799" y="232.100000076"/>
      <point x="820.499999844" y="67.4000001848"/>
    </contour>
  </outline>
</glyph>
<glyph name="divide" format="1">
  <advance width="1024.60000043"/>
  <unicode hex="00F7"/>
  <outline>
    <contour>
      <point x="426.300000153" y="20.6999999955" type="line"/>
      <point x="548.600000381" y="20.6999999955" type="line"/>
      <point x="548.600000381" y="201.600000128" type="line"/>
      <point x="426.300000153" y="201.600000128" type="line"/>
    </contour>
    <contour>
      <point x="70.3000001386" y="491.699999921" type="line"/>
      <point x="936.80000034" y="491.699999921" type="line"/>
      <point x="936.80000034" y="603.000000045" type="line"/>
      <point x="70.3000001386" y="603.000000045" type="line"/>
    </contour>
    <contour>
      <point x="426.300000153" y="882.499999858" type="line"/>
      <point x="592.600000322" y="882.499999858" type="line"/>
      <point x="592.600000322" y="1067.69999997" type="line"/>
      <point x="426.300000153" y="1067.69999997" type="line"/>
    </contour>
  </outline>
</glyph>
<glyph name="oslash" format="1">
  <advance width="1150.0"/>
  <unicode hex="00F8"/>
  <outline>
    <contour>
      <point x="275.100000001" y="-141.0" type="line"/>
      <point x="956.100000001" y="1108.0" type="line"/>
      <point x="891.899999984" y="1139.40000002" type="line"/>
      <point x="216.899999984" y="-108.599999979" type="line"/>
    </contour>
    <component base="o"/>
  </outline>
</glyph>
<glyph name="Dcroat" format="1">
  <advance width="1450.0"/>
  <unicode hex="0110"/>
  <outline>
    <contour>
      <point x="57.0" y="652.0" type="line"/>
      <point x="105.700000726" y="728.499999873" type="line"/>
      <point x="544.0" y="737.0" type="line"/>
      <point x="495.299999274" y="660.500000127" type="line"/>
    </contour>
    <component base="D"/>
  </outline>
</glyph>
<glyph name="dcroat" format="1">
  <advance width="1193"/>
  <unicode hex="0111"/>
  <outline>
    <contour>
      <point x="128" y="1118" type="line"/>
      <point x="128" y="1220" type="line"/>
      <point x="591" y="1220" type="line"/>
      <point x="591" y="1118" type="line"/>
    </contour>
    <component base="d"/>
  </outline>
</glyph>
<glyph name="Hbar" format="1">
  <advance width="1543.19999962"/>
  <unicode hex="0126"/>
  <outline>
    <contour>
      <point x="245.899999775" y="0.0" type="line"/>
      <point x="271.600000158" y="924.29999847" type="line"/>
      <point x="192.400000289" y="983.799999356" type="line"/>
      <point x="251.900001176" y="1044.09999926" type="line"/>
      <point x="331.100001045" y="984.59999837" type="line"/>
      <point x="356.900001429" y="1240.19999795" type="line"/>
      <point x="436.100001298" y="1346.99999954" type="line"/>
      <point x="443.60000141" y="1091.39999996" type="line"/>
      <point x="1213.10000014" y="1105.10000017" type="line"/>
      <point x="1205.60000002" y="1360.69999974" type="line"/>
      <point x="1284.79999989" y="1373.69999994" type="line"/>
      <point x="1258.99999951" y="1118.10000036" type="line"/>
      <point x="1337.29999938" y="1105.10000017" type="line"/>
      <point x="1277.79999849" y="1044.80000027" type="line"/>
      <point x="1199.49999862" y="1057.80000046" type="line"/>
      <point x="1173.79999824" y="133.500001989" type="line"/>
      <point x="1094.59999837" y="120.500001796" type="line"/>
      <point x="1087.09999826" y="712.700000815" type="line"/>
      <point x="317.599999532" y="699.000000611" type="line"/>
      <point x="325.099999644" y="106.800001591" type="line"/>
    </contour>
    <contour>
      <point x="350.800000027" y="763.70000004" type="line"/>
      <point x="1120.29999875" y="791.700000457" type="line"/>
      <point x="1179.79999964" y="1031.10000006" type="line"/>
      <point x="410.300000913" y="1003.09999964" type="line"/>
    </contour>
  </outline>
</glyph>
<glyph name="hbar" format="1">
  <advance width="1180.59999977"/>
  <unicode hex="0127"/>
  <outline>
    <contour>
      <point x="256.399999723" y="0.0" type="line"/>
      <point x="355.699999966" y="0.0" type="line"/>
      <point x="355.699999966" y="678.800000012" type="line"/>
      <point x="370.70000001" y="778.199999988"/>
      <point x="512.599999934" y="915.999999881"/>
      <point x="693.099999823" y="915.999999881" type="curve" smooth="yes"/>
      <point x="891.499999695" y="915.999999881"/>
      <point x="922.999999687" y="794.499999963"/>
      <point x="922.999999687" y="539.300000109" type="curve" smooth="yes"/>
      <point x="922.999999687" y="0.0" type="line"/>
      <point x="1022.29999993" y="0.0" type="line"/>
      <point x="1022.29999993" y="598.800000027" type="line" smooth="yes"/>
      <point x="1022.29999993" y="838.300000139"/>
      <point x="957.999999791" y="1017.80000003"/>
      <point x="739.999999836" y="1017.80000003" type="curve" smooth="yes"/>
      <point x="571.899999909" y="1017.80000003"/>
      <point x="444.499999948" y="952.500000067"/>
      <point x="355.699999966" y="837.000000134" type="curve"/>
      <point x="355.699999966" y="1179.99999988" type="line"/>
      <point x="601.29999999" y="1179.99999988" type="line"/>
      <point x="601.29999999" y="1266.99999997" type="line"/>
      <point x="355.699999966" y="1266.99999997" type="line"/>
      <point x="355.699999966" y="1367.20000003" type="line"/>
      <point x="256.399999723" y="1349.20000003" type="line"/>
      <point x="256.399999723" y="1266.99999997" type="line"/>
      <point x="174.499999709" y="1266.99999997" type="line"/>
      <point x="174.499999709" y="1179.99999988" type="line"/>
      <point x="256.399999723" y="1179.99999988" type="line"/>
    </contour>
  </outline>
</glyph>
<glyph name="dotlessi" format="1">
  <advance width="378.800000235"/>
  <unicode hex="0131"/>
  <outline>
    <contour>
      <point x="145.099999987" y="0.0" type="line"/>
      <point x="246.300000243" y="0.0" type="line"/>
      <point x="246.300000243" y="990.800000042" type="line"/>
      <point x="145.099999987" y="990.800000042" type="line"/>
    </contour>
  </outline>
</glyph>
<glyph name="Eng" format="1">
  <advance width="1318.89999988"/>
  <unicode hex="014A"/>
  <outline>
    <contour>
      <point x="786.59999992" y="-294.200000018" type="curve" smooth="yes"/>
      <point x="785.90000049" y="-294.200000018"/>
      <point x="754.300000764" y="-277.599999785"/>
      <point x="602.200001016" y="-234.099999376" type="curve" smooth="yes"/>
      <point x="583.300001048" y="-93.4999983981" type="line" smooth="yes"/>
      <point x="751.600000769" y="-72.1999979317"/>
      <point x="726.300000571" y="-54.4999976531"/>
      <point x="723.500000097" y="-54.4999976531" type="curve" smooth="yes"/>
      <point x="999.099999405" y="-54.4999976531"/>
      <point x="997.099999122" y="8.20000213385"/>
      <point x="987.799998984" y="269.800001532" type="curve"/>
      <point x="985.599998951" y="984.700000592" type="line"/>
      <point x="985.599998951" y="1219.6000002"/>
      <point x="894.299998678" y="1294.30000008"/>
      <point x="682.799999028" y="1294.30000008" type="curve"/>
      <point x="442.499999426" y="1294.30000008"/>
      <point x="302.099999659" y="1021.49999831"/>
      <point x="219.299999796" y="908.099998496" type="curve"/>
      <point x="248.100000225" y="0.0" type="line"/>
      <point x="191.400000319" y="96.300001435" type="line"/>
      <point x="199.300000437" y="109.900001638"/>
      <point x="211.000000671" y="1352.09999967"/>
      <point x="221.600000829" y="1352.09999967" type="curve" smooth="yes"/>
      <point x="236.300001048" y="1352.09999967"/>
      <point x="298.900001042" y="1344.29999956"/>
      <point x="298.900001042" y="1322.99999924" type="curve" smooth="yes"/>
      <point x="309.700001024" y="1048.89999849" type="line" smooth="yes"/>
      <point x="506.800000697" y="1237.49999791"/>
      <point x="645.400000423" y="1248.4999978"/>
      <point x="782.499999933" y="1248.4999978" type="curve" smooth="yes"/>
      <point x="976.399999604" y="1248.4999978"/>
      <point x="1073.89999934" y="1115.39999802"/>
      <point x="1069.89999928" y="844.799998477" type="curve"/>
      <point x="1071.89999931" y="109.399999321" type="line"/>
      <point x="1075.39999937" y="-136.700000279"/>
      <point x="1072.19999944" y="-294.200000018"/>
    </contour>
  </outline>
</glyph>
<glyph name="eng" format="1">
  <advance width="1127.39999986"/>
  <unicode hex="014B"/>
  <outline>
    <contour>
      <point x="592.899999984" y="-246.500000142" type="line"/>
      <point x="656.799999982" y="-246.500000142" type="line" smooth="yes"/>
      <point x="900.000000104" y="-246.500000142"/>
      <point x="931.200000152" y="-108.500000127"/>
      <point x="931.300000153" y="164.899999894" type="curve"/>
      <point x="931.300000153" y="598.600000069" type="line" smooth="yes"/>
      <point x="931.300000153" y="874.800000027"/>
      <point x="838.100000121" y="1008.60000005"/>
      <point x="611.200000107" y="1008.60000005" type="curve" smooth="yes"/>
      <point x="467.500000112" y="1008.60000005"/>
      <point x="362.100000121" y="954.70000004"/>
      <point x="294.7000001" y="831.800000116" type="curve"/>
      <point x="278.800000086" y="989.000000045" type="line"/>
      <point x="164.399999931" y="989.000000045" type="line"/>
      <point x="164.399999931" y="0.0" type="line"/>
      <point x="292.600000143" y="0.0" type="line"/>
      <point x="292.600000143" y="570.699999876" type="line" smooth="yes"/>
      <point x="292.600000143" y="604.499999963"/>
      <point x="295.600000143" y="636.200000033"/>
      <point x="296.900000162" y="672.500000067" type="curve"/>
      <point x="323.900000177" y="806.99999997"/>
      <point x="396.000000194" y="911.499999888"/>
      <point x="594.800000027" y="911.499999888" type="curve" smooth="yes"/>
      <point x="763.999999955" y="911.499999888"/>
      <point x="802.99999994" y="801.499999933"/>
      <point x="803.099999942" y="628.199999973" type="curve"/>
      <point x="803.099999942" y="115.199999899" type="line" smooth="yes"/>
      <point x="803.099999942" y="-95.5000000224"/>
      <point x="786.299999945" y="-121.200000033"/>
      <point x="617.0" y="-121.200000033" type="curve" smooth="yes"/>
      <point x="590.299999945" y="-121.200000033" type="line"/>
    </contour>
  </outline>
</glyph>
<glyph name="OE" format="1">
  <advance width="1833.80000015"/>
  <unicode hex="0152"/>
  <outline>
    <contour>
      <point x="794.499999888" y="-23.2999999896" type="curve" smooth="yes"/>
      <point x="388.400000751" y="-23.2999999896"/>
      <point x="229.5000012" y="245.799999624"/>
      <point x="237.100001313" y="653.799999028" type="curve"/>
      <point x="249.700001292" y="1011.09999844"/>
      <point x="471.100000925" y="1263.09999792"/>
      <point x="795.100000389" y="1263.09999792" type="curve"/>
      <point x="925.600000173" y="1263.09999792"/>
      <point x="1122.90000127" y="1218.99999799"/>
      <point x="1172.40000118" y="1162.29999808" type="curve"/>
      <point x="1174.20000121" y="1257.39999826" type="line"/>
      <point x="1577.5999995" y="1257.39999826" type="line"/>
      <point x="1565.89999952" y="1208.89999899" type="line"/>
      <point x="1253.60000096" y="1208.89999899" type="line"/>
      <point x="1253.60000096" y="754.800000072" type="line"/>
      <point x="1531.69999958" y="754.800000072" type="line"/>
      <point x="1531.69999958" y="700.100000717" type="line"/>
      <point x="1256.200001" y="700.100000717" type="line"/>
      <point x="1258.00000103" y="222.900001846" type="line"/>
      <point x="1569.99999911" y="222.900001846" type="line"/>
      <point x="1560.09999912" y="125.100001909" type="line"/>
      <point x="1551.599999" y="130.500001989"/>
      <point x="1068.09999963" y="133.600002035"/>
      <point x="1055.89999945" y="133.600002035" type="curve" smooth="yes"/>
      <point x="1018.59999889" y="133.600002035"/>
      <point x="990.499998473" y="179.30000148"/>
      <point x="990.199998468" y="139.600000888" type="curve"/>
      <point x="980.299998485" y="65.2000003457"/>
      <point x="845.59999916" y="-23.2999999896"/>
    </contour>
    <contour>
      <point x="797.899999879" y="82.6000001729" type="curve" smooth="yes"/>
      <point x="861.399999321" y="82.7000001743"/>
      <point x="987.599998891" y="164.800000414"/>
      <point x="1015.49999885" y="197.700000785" type="curve"/>
      <point x="1015.69999885" y="223.300001167"/>
      <point x="1029.79999906" y="1205.89999992"/>
      <point x="1055.89999945" y="1205.89999992" type="curve" smooth="yes"/>
      <point x="1003.39999977" y="1253.59999985"/>
      <point x="915.600000083" y="1288.29999971"/>
      <point x="817.600000352" y="1281.99999961" type="curve"/>
      <point x="528.70000083" y="1281.99999961"/>
      <point x="348.700001128" y="1001.79999882"/>
      <point x="338.800001144" y="679.599999353" type="curve"/>
      <point x="332.700001054" y="344.799999818"/>
      <point x="435.500000708" y="88.0000001639"/>
    </contour>
    <contour>
      <point x="916.900000073" y="1214.09999799" type="move"/>
    </contour>
  </outline>
</glyph>
<glyph name="uni0237" format="1">
  <advance width="401.800000265"/>
  <unicode hex="0237"/>
  <outline>
    <contour>
      <point x="-57.9999999106" y="-441.099999897" type="line"/>
      <point x="-6.09999989718" y="-441.099999897" type="line" smooth="yes"/>
      <point x="211.10000027" y="-441.099999897"/>
      <point x="256.900000297" y="-381.299999766"/>
      <point x="256.900000297" y="-156.199999675" type="curve" smooth="yes"/>
      <point x="256.900000297" y="1006.20000002" type="line"/>
      <point x="111.900000118" y="1006.20000002" type="line"/>
      <point x="111.900000118" y="-113.799999818" type="line" smooth="yes"/>
      <point x="111.900000118" y="-269.5999998"/>
      <point x="144.800000042" y="-327.399999768"/>
      <point x="-34.8999998942" y="-327.399999768" type="curve" smooth="yes"/>
      <point x="-88.7999999076" y="-327.399999768" type="line"/>
    </contour>
  </outline>
</glyph>
<glyph name="uni02BC" format="1">
  <advance width="529.299999677"/>
  <unicode hex="02BC"/>
  <outline>
    <contour>
      <point x="138.699999921" y="1065.09999969" type="line"/>
      <point x="221.600000024" y="1065.09999969" type="line"/>
      <point x="385.099999838" y="1468.59999982" type="line"/>
      <point x="275.799999684" y="1468.59999982" type="line"/>
    </contour>
  </outline>
</glyph>
<glyph name="circumflex" format="1">
  <advance width="755.599999875"/>
  <unicode hex="02C6"/>
  <outline>
    <contour>
      <point x="136.299999826" y="1183.59999977" type="line"/>
      <point x="220.099999987" y="1183.59999977" type="line"/>
      <point x="370.199999973" y="1458.59999964" type="line"/>
      <point x="510.200000003" y="1183.59999977" type="line"/>
      <point x="593.600000173" y="1183.59999977" type="line"/>
      <point x="457.500000007" y="1529.09999981" type="line"/>
      <point x="287.599999964" y="1529.09999981" type="line"/>
    </contour>
  </outline>
</glyph>
<glyph name="caron" format="1">
  <advance width="755.499999873"/>
  <unicode hex="02C7"/>
  <outline>
    <contour>
      <point x="272.799999997" y="1186.69999982" type="line"/>
      <point x="442.100000031" y="1186.69999982" type="line"/>
      <point x="594.700000189" y="1529.09999981" type="line"/>
      <point x="508.499999993" y="1529.09999981" type="line"/>
      <point x="357.599999994" y="1256.39999998" type="line"/>
      <point x="220.400000006" y="1529.09999981" type="line"/>
      <point x="135.499999814" y="1529.09999981" type="line"/>
    </contour>
  </outline>
</glyph>
<glyph name="breve" format="1">
  <advance width="722.799999833"/>
  <unicode hex="02D8"/>
  <outline>
    <contour>
      <point x="358.29999993" y="1221.6999998" type="curve" smooth="yes"/>
      <point x="448.300000034" y="1221.6999998"/>
      <point x="565.300000034" y="1280.69999983"/>
      <point x="565.300000034" y="1433.19999985" type="curve"/>
      <point x="496.199999869" y="1433.19999985" type="line"/>
      <point x="496.199999869" y="1333.49999992"/>
      <point x="419.699999951" y="1284.29999996"/>
      <point x="358.29999993" y="1284.29999996" type="curve" smooth="yes"/>
      <point x="296.899999909" y="1284.29999996"/>
      <point x="225.899999984" y="1333.49999992"/>
      <point x="225.899999984" y="1433.19999985" type="curve"/>
      <point x="155.099999823" y="1433.19999985" type="line"/>
      <point x="155.099999823" y="1279.89999983"/>
      <point x="269.299999826" y="1221.6999998"/>
    </contour>
  </outline>
</glyph>
<glyph name="dotaccent" format="1">
  <advance width="316.400000259"/>
  <unicode hex="02D9"/>
  <outline>
    <contour>
      <point x="97.2000000626" y="1206.39999987" type="line"/>
      <point x="224.10000018" y="1206.39999987" type="line"/>
      <point x="224.10000018" y="1370.79999995" type="line"/>
      <point x="97.2000000626" y="1370.79999995" type="line"/>
    </contour>
  </outline>
</glyph>
<glyph name="ring" format="1">
  <advance width="572.900000013"/>
  <unicode hex="02DA"/>
  <outline>
    <contour>
      <point x="287.100000016" y="1248.89999982" type="curve" smooth="yes"/>
      <point x="235.500000007" y="1248.89999982"/>
      <point x="194.900000028" y="1290.99999982"/>
      <point x="194.900000028" y="1342.09999982" type="curve" smooth="yes"/>
      <point x="194.900000028" y="1392.79999982"/>
      <point x="235.900000013" y="1435.29999983"/>
      <point x="287.100000016" y="1435.29999983" type="curve" smooth="yes"/>
      <point x="338.500000022" y="1435.29999983"/>
      <point x="379.400000006" y="1392.89999982"/>
      <point x="379.400000006" y="1342.09999982" type="curve" smooth="yes"/>
      <point x="379.400000006" y="1291.09999982"/>
      <point x="338.500000022" y="1248.89999982"/>
    </contour>
    <contour>
      <point x="287.100000016" y="1185.69999976" type="curve" smooth="yes"/>
      <point x="379.200000077" y="1185.69999976"/>
      <point x="450.800000086" y="1253.4999998"/>
      <point x="450.800000086" y="1342.99999982" type="curve" smooth="yes"/>
      <point x="450.800000086" y="1432.39999984"/>
      <point x="379.40000008" y="1500.19999988"/>
      <point x="287.100000016" y="1500.19999988" type="curve" smooth="yes"/>
      <point x="194.899999954" y="1500.19999988"/>
      <point x="123.399999946" y="1432.49999984"/>
      <point x="123.399999946" y="1342.99999982" type="curve" smooth="yes"/>
      <point x="123.399999946" y="1253.4999998"/>
      <point x="194.999999955" y="1185.69999976"/>
    </contour>
  </outline>
</glyph>
<glyph name="ogonek" format="1">
  <advance width="554.399999917"/>
  <unicode hex="02DB"/>
  <outline>
    <contour>
      <point x="284.600000009" y="-377.799999937" type="curve" smooth="yes"/>
      <point x="327.400000036" y="-377.799999937"/>
      <point x="385.70000004" y="-364.599999934"/>
      <point x="409.200000092" y="-352.59999992" type="curve"/>
      <point x="409.200000092" y="-352.59999992"/>
      <point x="413.000000075" y="-263.799999833"/>
      <point x="413.800000072" y="-263.799999833" type="curve" smooth="yes"/>
      <point x="392.800000086" y="-272.399999827"/>
      <point x="352.700000055" y="-292.999999836"/>
      <point x="305.200000048" y="-292.999999836" type="curve" smooth="yes"/>
      <point x="251.985500073" y="-292.999999836"/>
      <point x="230.960700065" y="-267.52559982"/>
      <point x="230.960700065" y="-232.456399822" type="curve" smooth="yes"/>
      <point x="230.960700065" y="-155.949999858"/>
      <point x="326.775199959" y="-29.8068899606"/>
      <point x="377.799999997" y="6.00000007451" type="curve"/>
      <point x="311.29999993" y="7.60000009835" type="line"/>
      <point x="207.342899985" y="-29.580309908"/>
      <point x="112.281799971" y="-149.690199833"/>
      <point x="112.281799971" y="-249.602499872" type="curve" smooth="yes"/>
      <point x="112.281799971" y="-322.950399939"/>
      <point x="163.758300037" y="-377.799999937"/>
    </contour>
  </outline>
</glyph>
<glyph name="tilde" format="1">
  <advance width="871.799999699"/>
  <unicode hex="02DC"/>
  <outline>
    <contour>
      <point x="211.399999917" y="1204.99999984" type="line"/>
      <point x="216.395599933" y="1269.63199984"/>
      <point x="239.283199935" y="1296.94199983"/>
      <point x="272.734799931" y="1296.94199983" type="curve" smooth="yes"/>
      <point x="343.055199915" y="1296.94199983"/>
      <point x="460.540399872" y="1204.99999984"/>
      <point x="556.076899887" y="1204.99999984" type="curve"/>
      <point x="615.599400014" y="1204.99999984"/>
      <point x="675.899999984" y="1240.848"/>
      <point x="675.899999984" y="1377.39999995" type="curve"/>
      <point x="606.59999989" y="1377.39999995" type="line"/>
      <point x="600.858499878" y="1315.84699996"/>
      <point x="580.648099881" y="1295.34499996"/>
      <point x="550.41459989" y="1295.34499996" type="curve" smooth="yes"/>
      <point x="489.448899907" y="1295.34499996"/>
      <point x="387.748099942" y="1378.61499994"/>
      <point x="281.58319991" y="1378.61499994" type="curve" smooth="yes"/>
      <point x="209.679999784" y="1378.61499994"/>
      <point x="145.699999817" y="1339.8129998"/>
      <point x="145.699999817" y="1204.99999984" type="curve"/>
    </contour>
  </outline>
</glyph>
<glyph name="hungarumlaut" format="1">
  <advance width="671.700000323"/>
  <unicode hex="02DD"/>
  <outline>
    <contour>
      <point x="103.200000033" y="1195.39999975" type="line"/>
      <point x="164.300000168" y="1195.39999975" type="line"/>
      <point x="343.400000393" y="1483.19999984" type="line"/>
      <point x="218.200000226" y="1483.19999984" type="line"/>
    </contour>
    <contour>
      <point x="309.700000145" y="1195.39999975" type="line"/>
      <point x="373.300000273" y="1195.39999975" type="line"/>
      <point x="595.700000443" y="1483.19999984" type="line"/>
      <point x="461.200000286" y="1483.19999984" type="line"/>
    </contour>
  </outline>
</glyph>
<glyph name="uni0307" format="1">
  <advance width="289.900000267"/>
  <unicode hex="0307"/>
  <outline>
    <contour>
      <point x="74.7000000998" y="1223.69999979" type="line"/>
      <point x="201.600000218" y="1223.69999979" type="line"/>
      <point x="201.600000218" y="1387.99999987" type="line"/>
      <point x="74.7000000998" y="1387.99999987" type="line"/>
    </contour>
  </outline>
</glyph>
<glyph name="uni0311" format="1">
  <advance width="660.99999994"/>
  <unicode hex="0311"/>
  <outline>
    <contour>
      <point x="121.899999879" y="1211.99999985" type="curve"/>
      <point x="190.000000045" y="1211.99999985" type="line"/>
      <point x="190.000000045" y="1313.19999978"/>
      <point x="248.800000027" y="1360.89999975"/>
      <point x="324.099999987" y="1360.89999975" type="curve" smooth="yes"/>
      <point x="397.699999951" y="1360.89999975"/>
      <point x="460.29999993" y="1312.39999978"/>
      <point x="460.29999993" y="1211.99999985" type="curve"/>
      <point x="530.300000094" y="1211.99999985" type="line"/>
      <point x="530.300000094" y="1371.09999984"/>
      <point x="423.200000048" y="1452.89999982"/>
      <point x="321.799999997" y="1452.89999982" type="curve" smooth="yes"/>
      <point x="221.99999994" y="1452.89999982"/>
      <point x="121.899999879" y="1371.89999983"/>
    </contour>
  </outline>
</glyph>
<glyph name="uni031B" format="1">
  <advance width="444.900000118"/>
  <unicode hex="031B"/>
  <outline>
    <contour>
      <point x="192.799999997" y="458.800000042" type="line"/>
      <point x="200.800000012" y="438.300000004"/>
      <point x="215.500000007" y="387.900000013"/>
      <point x="215.500000007" y="340.00000003" type="curve" smooth="yes"/>
      <point x="215.500000007" y="286.100000031"/>
      <point x="195.899999999" y="235.400000051"/>
      <point x="126.199999988" y="235.400000051" type="curve" smooth="yes"/>
      <point x="120.799999997" y="235.400000051"/>
      <point x="113.699999996" y="235.400000051"/>
      <point x="106.500000007" y="236.300000049" type="curve"/>
      <point x="106.500000007" y="148.800000027" type="line"/>
      <point x="125.400000006" y="145.900000028"/>
      <point x="143.300000004" y="144.900000028"/>
      <point x="159.400000006" y="144.900000028" type="curve" smooth="yes"/>
      <point x="289.000000015" y="144.900000028"/>
      <point x="324.100000046" y="223.599999994"/>
      <point x="324.100000046" y="304.600000009" type="curve" smooth="yes"/>
      <point x="324.100000046" y="368.899999984"/>
      <point x="302.600000054" y="433.399999976"/>
      <point x="290.700000025" y="458.800000042" type="curve"/>
    </contour>
  </outline>
</glyph>
<glyph name="Delta" format="1">
  <advance width="1483.49999938"/>
  <unicode hex="0394"/>
  <outline>
    <contour>
      <point x="151.399999723" y="0.0" type="line"/>
      <point x="737.400000677" y="1216.79999799" type="line"/>
      <point x="806.399999782" y="1354.30000003" type="line"/>
      <point x="1255.09999868" y="137.500002049" type="line"/>
    </contour>
    <contour>
      <point x="334.299999885" y="118.600000113" type="line"/>
      <point x="1113.19999909" y="213.00000152" type="line"/>
      <point x="766.700000174" y="1122.09999845" type="line"/>
    </contour>
  </outline>
</glyph>
<glyph name="Lambda" format="1">
  <advance width="1483.49999938"/>
  <unicode hex="039B"/>
  <outline>
    <contour>
      <point x="152.19999972" y="0.0" type="line"/>
      <point x="625.399999246" y="1219.49999798" type="line"/>
      <point x="810.699999593" y="1334.9999997" type="line"/>
      <point x="1305.99999943" y="0.0" type="line"/>
      <point x="1187.39999993" y="0.0" type="line"/>
      <point x="745.599999845" y="1226.00000024" type="line"/>
      <point x="342.800000221" y="137.000002041" type="line"/>
    </contour>
  </outline>
</glyph>
<glyph name="Pi" format="1">
  <advance width="1365.39999987"/>
  <unicode hex="03A0"/>
  <outline>
    <contour>
      <point x="142.099999972" y="0.0" type="line"/>
      <point x="159.800000235" y="1219.49999798" type="line"/>
      <point x="1128.19999863" y="1340.99999979" type="line"/>
      <point x="1198.09999967" y="121.50000181" type="line"/>
      <point x="1063.9999999" y="0.0" type="line"/>
      <point x="1081.70000016" y="1105.19999817" type="line"/>
      <point x="383.300001316" y="1242.20000021" type="line"/>
      <point x="277.999999747" y="137.000002041" type="line"/>
    </contour>
  </outline>
</glyph>
<glyph name="Sigma" format="1">
  <advance width="1111.59999983"/>
  <unicode hex="03A3"/>
  <outline>
    <contour>
      <point x="140.599999979" y="0.0" type="line"/>
      <point x="223.90000122" y="1214.09999799" type="line"/>
      <point x="949.100000031" y="1236.09999832" type="line"/>
      <point x="890.299999215" y="1158.69999845" type="line"/>
      <point x="250.400000274" y="1196.199999" type="line"/>
      <point x="300.800001025" y="725.499999784" type="line"/>
      <point x="878.600000069" y="746.500000097" type="line"/>
      <point x="828.199999318" y="666.400000229" type="line"/>
      <point x="250.400000274" y="698.100000702" type="line"/>
      <point x="303.500001065" y="189.600001544" type="line"/>
      <point x="941.800000027" y="211.600001872" type="line"/>
      <point x="852.4999988" y="134.200002" type="line"/>
    </contour>
  </outline>
</glyph>
